NotoSansMyanmar-CondensedLight.ufo
<glyph name="question" format="2">
  <advance width="263"/>
  <unicode hex="003F"/>
  <outline>
    <contour>
      <point x="85" y="224" type="line"/>
      <point x="109" y="224" type="line"/>
      <point x="110" y="233" type="line" smooth="yes"/>
      <point x="114" y="266"/>
      <point x="114" y="294"/>
      <point x="161" y="363" type="curve" smooth="yes"/>
      <point x="200" y="420"/>
      <point x="240" y="468"/>
      <point x="240" y="565" type="curve" smooth="yes"/>
      <point x="240" y="674"/>
      <point x="189" y="724"/>
      <point x="115" y="724" type="curve" smooth="yes"/>
      <point x="76" y="724"/>
      <point x="40" y="710"/>
      <point x="17" y="693" type="curve"/>
      <point x="30" y="672" type="line"/>
      <point x="54" y="689"/>
      <point x="83" y="699"/>
      <point x="114" y="699" type="curve" smooth="yes"/>
      <point x="177" y="699"/>
      <point x="213" y="657"/>
      <point x="213" y="567" type="curve" smooth="yes"/>
      <point x="213" y="483"/>
      <point x="182" y="437"/>
      <point x="138" y="373" type="curve" smooth="yes"/>
      <point x="96" y="312"/>
      <point x="89" y="273"/>
      <point x="86" y="236" type="curve" smooth="yes"/>
    </contour>
    <contour>
      <point x="100" y="-10" type="curve" smooth="yes"/>
      <point x="139" y="-10"/>
      <point x="168" y="24"/>
      <point x="168" y="83" type="curve" smooth="yes"/>
      <point x="168" y="140"/>
      <point x="139" y="174"/>
      <point x="100" y="174" type="curve" smooth="yes"/>
      <point x="60" y="174"/>
      <point x="32" y="134"/>
      <point x="32" y="82" type="curve" smooth="yes"/>
      <point x="32" y="26"/>
      <point x="60" y="-10"/>
    </contour>
    <contour>
      <point x="100" y="15" type="curve" smooth="yes"/>
      <point x="73" y="15"/>
      <point x="58" y="37"/>
      <point x="58" y="82" type="curve" smooth="yes"/>
      <point x="58" y="121"/>
      <point x="74" y="149"/>
      <point x="100" y="149" type="curve" smooth="yes"/>
      <point x="125" y="149"/>
      <point x="142" y="121"/>
      <point x="142" y="82" type="curve" smooth="yes"/>
      <point x="142" y="39"/>
      <point x="125" y="15"/>
    </contour>
  </outline>
</glyph>
<glyph name="ga" format="2">
  <advance width="443"/>
  <unicode hex="1002"/>
  <note>
ga
</note>
  <outline>
    <contour>
      <point x="121" y="-10" type="curve"/>
      <point x="138" y="10" type="line"/>
      <point x="97" y="52"/>
      <point x="69" y="167"/>
      <point x="69" y="251" type="curve" smooth="yes"/>
      <point x="69" y="419"/>
      <point x="137" y="511"/>
      <point x="221" y="511" type="curve" smooth="yes"/>
      <point x="305" y="511"/>
      <point x="374" y="419"/>
      <point x="374" y="251" type="curve" smooth="yes"/>
      <point x="374" y="167"/>
      <point x="345" y="52"/>
      <point x="305" y="10" type="curve"/>
      <point x="321" y="-10" type="line"/>
      <point x="365" y="38"/>
      <point x="400" y="151"/>
      <point x="400" y="251" type="curve" smooth="yes"/>
      <point x="400" y="425"/>
      <point x="327" y="536"/>
      <point x="221" y="536" type="curve" smooth="yes"/>
      <point x="115" y="536"/>
      <point x="43" y="423"/>
      <point x="43" y="251" type="curve" smooth="yes"/>
      <point x="43" y="151"/>
      <point x="78" y="38"/>
    </contour>
  </outline>
</glyph>
<glyph name="nga" format="2">
  <advance width="421"/>
  <unicode hex="1004"/>
  <note>
nga
</note>
  <outline>
    <contour>
      <point x="220" y="-10" type="curve" smooth="yes"/>
      <point x="307" y="-10"/>
      <point x="365" y="56"/>
      <point x="389" y="159" type="curve"/>
      <point x="367" y="170" type="line"/>
      <point x="345" y="74"/>
      <point x="291" y="15"/>
      <point x="220" y="15" type="curve" smooth="yes"/>
      <point x="134" y="15"/>
      <point x="69" y="108"/>
      <point x="69" y="261" type="curve" smooth="yes"/>
      <point x="69" y="397"/>
      <point x="123" y="511"/>
      <point x="220" y="511" type="curve" smooth="yes"/>
      <point x="291" y="511"/>
      <point x="340" y="454"/>
      <point x="364" y="363" type="curve"/>
      <point x="387" y="374" type="line"/>
      <point x="362" y="469"/>
      <point x="307" y="536"/>
      <point x="220" y="536" type="curve" smooth="yes"/>
      <point x="105" y="536"/>
      <point x="43" y="411"/>
      <point x="43" y="261" type="curve" smooth="yes"/>
      <point x="43" y="109"/>
      <point x="108" y="-10"/>
    </contour>
  </outline>
</glyph>
<glyph name="ca" format="2">
  <advance width="444"/>
  <unicode hex="1005"/>
  <note>
ca
</note>
  <outline>
    <contour>
      <point x="220" y="-10" type="curve" smooth="yes"/>
      <point x="330" y="-10"/>
      <point x="401" y="102"/>
      <point x="401" y="261" type="curve" smooth="yes"/>
      <point x="401" y="412"/>
      <point x="335" y="536"/>
      <point x="220" y="536" type="curve" smooth="yes"/>
      <point x="104" y="536"/>
      <point x="43" y="409"/>
      <point x="43" y="261" type="curve" smooth="yes"/>
      <point x="43" y="105"/>
      <point x="109" y="-10"/>
    </contour>
    <contour>
      <point x="123" y="51" type="line"/>
      <point x="166" y="92"/>
      <point x="197" y="161"/>
      <point x="197" y="258" type="curve" smooth="yes"/>
      <point x="197" y="347"/>
      <point x="168" y="422"/>
      <point x="118" y="472" type="curve"/>
      <point x="102" y="452" type="line"/>
      <point x="144" y="409"/>
      <point x="171" y="343"/>
      <point x="171" y="258" type="curve" smooth="yes"/>
      <point x="171" y="175"/>
      <point x="145" y="107"/>
      <point x="105" y="69" type="curve"/>
    </contour>
    <contour>
      <point x="220" y="15" type="curve" smooth="yes"/>
      <point x="133" y="15"/>
      <point x="68" y="108"/>
      <point x="68" y="261" type="curve" smooth="yes"/>
      <point x="68" y="397"/>
      <point x="123" y="511"/>
      <point x="220" y="511" type="curve" smooth="yes"/>
      <point x="316" y="511"/>
      <point x="375" y="402"/>
      <point x="375" y="261" type="curve" smooth="yes"/>
      <point x="375" y="113"/>
      <point x="312" y="15"/>
    </contour>
  </outline>
</glyph>
<glyph name="cha" format="2">
  <advance width="771"/>
  <unicode hex="1006"/>
  <note>
cha
</note>
  <outline>
    <contour>
      <point x="223" y="-10" type="curve" smooth="yes"/>
      <point x="331" y="-10"/>
      <point x="401" y="103"/>
      <point x="401" y="261" type="curve" smooth="yes"/>
      <point x="401" y="413"/>
      <point x="331" y="536"/>
      <point x="211" y="536" type="curve" smooth="yes"/>
      <point x="117" y="536"/>
      <point x="66" y="470"/>
      <point x="43" y="375" type="curve"/>
      <point x="66" y="362" type="line"/>
      <point x="86" y="450"/>
      <point x="129" y="511"/>
      <point x="212" y="511" type="curve" smooth="yes"/>
      <point x="313" y="511"/>
      <point x="375" y="402"/>
      <point x="375" y="261" type="curve" smooth="yes"/>
      <point x="375" y="113"/>
      <point x="312" y="15"/>
      <point x="223" y="15" type="curve" smooth="yes"/>
      <point x="153" y="15"/>
      <point x="104" y="60"/>
      <point x="73" y="141" type="curve"/>
      <point x="107" y="190"/>
      <point x="155" y="217"/>
      <point x="212" y="217" type="curve" smooth="yes"/>
      <point x="282" y="217"/>
      <point x="329" y="174"/>
      <point x="363" y="135" type="curve"/>
      <point x="378" y="154" type="line"/>
      <point x="344" y="199"/>
      <point x="286" y="242"/>
      <point x="213" y="242" type="curve" smooth="yes"/>
      <point x="138" y="242"/>
      <point x="81" y="203"/>
      <point x="47" y="145" type="curve"/>
      <point x="76" y="47"/>
      <point x="137" y="-10"/>
    </contour>
    <contour>
      <point x="539" y="-10" type="curve" smooth="yes"/>
      <point x="653" y="-10"/>
      <point x="728" y="102"/>
      <point x="728" y="261" type="curve" smooth="yes"/>
      <point x="728" y="419"/>
      <point x="655" y="536"/>
      <point x="540" y="536" type="curve" smooth="yes"/>
      <point x="450" y="536"/>
      <point x="403" y="474"/>
      <point x="369" y="387" type="curve"/>
      <point x="386" y="364" type="line"/>
      <point x="419" y="450"/>
      <point x="461" y="511"/>
      <point x="540" y="511" type="curve" smooth="yes"/>
      <point x="641" y="511"/>
      <point x="702" y="402"/>
      <point x="702" y="261" type="curve" smooth="yes"/>
      <point x="702" y="113"/>
      <point x="636" y="15"/>
      <point x="539" y="15" type="curve" smooth="yes"/>
      <point x="470" y="15"/>
      <point x="428" y="66"/>
      <point x="381" y="147" type="curve"/>
      <point x="358" y="137" type="line"/>
      <point x="406" y="53"/>
      <point x="457" y="-10"/>
    </contour>
  </outline>
</glyph>
<glyph name="ja" format="2">
  <advance width="457"/>
  <unicode hex="1007"/>
  <note>
ja
</note>
  <outline>
    <contour>
      <point x="220" y="-10" type="curve" smooth="yes"/>
      <point x="287" y="-10"/>
      <point x="340" y="34"/>
      <point x="371" y="105" type="curve"/>
      <point x="351" y="120" type="line"/>
      <point x="324" y="54"/>
      <point x="278" y="15"/>
      <point x="220" y="15" type="curve" smooth="yes"/>
      <point x="131" y="15"/>
      <point x="69" y="108"/>
      <point x="69" y="261" type="curve" smooth="yes"/>
      <point x="69" y="397"/>
      <point x="124" y="511"/>
      <point x="238" y="511" type="curve" smooth="yes"/>
      <point x="249" y="511"/>
      <point x="257" y="511"/>
      <point x="272" y="508" type="curve"/>
      <point x="270" y="512" type="line"/>
      <point x="238" y="497"/>
      <point x="213" y="452"/>
      <point x="213" y="394" type="curve" smooth="yes"/>
      <point x="213" y="331"/>
      <point x="242" y="272"/>
      <point x="300" y="272" type="curve" smooth="yes"/>
      <point x="328" y="272"/>
      <point x="360" y="288"/>
      <point x="374" y="331" type="curve"/>
      <point x="364" y="310" type="line"/>
      <point x="364" y="212"/>
      <point x="392" y="175"/>
      <point x="440" y="175" type="curve" smooth="yes"/>
      <point x="445" y="175" type="line"/>
      <point x="445" y="201" type="line"/>
      <point x="399" y="201"/>
      <point x="389" y="238"/>
      <point x="389" y="323" type="curve" smooth="yes"/>
      <point x="389" y="343"/>
      <point x="389" y="353"/>
      <point x="389" y="381" type="curve" smooth="yes"/>
      <point x="389" y="489"/>
      <point x="355" y="536"/>
      <point x="237" y="536" type="curve" smooth="yes"/>
      <point x="106" y="536"/>
      <point x="43" y="408"/>
      <point x="43" y="261" type="curve" smooth="yes"/>
      <point x="43" y="109"/>
      <point x="105" y="-10"/>
    </contour>
    <contour>
      <point x="301" y="297" type="curve" smooth="yes"/>
      <point x="259" y="297"/>
      <point x="239" y="342"/>
      <point x="239" y="394" type="curve" smooth="yes"/>
      <point x="239" y="450"/>
      <point x="267" y="499"/>
      <point x="305" y="499" type="curve" smooth="yes"/>
      <point x="343" y="499"/>
      <point x="363" y="455"/>
      <point x="363" y="386" type="curve" smooth="yes"/>
      <point x="363" y="338"/>
      <point x="335" y="297"/>
    </contour>
  </outline>
</glyph>
<glyph name="jha" format="2">
  <advance width="571"/>
  <unicode hex="1008"/>
  <note>
jha
</note>
  <outline>
    <contour>
      <point x="401" y="-465" type="curve" smooth="yes"/>
      <point x="488" y="-465"/>
      <point x="511" y="-392"/>
      <point x="511" y="-204" type="curve" smooth="yes"/>
      <point x="511" y="524" type="line"/>
      <point x="485" y="524" type="line"/>
      <point x="485" y="-204" type="line" smooth="yes"/>
      <point x="485" y="-369"/>
      <point x="472" y="-439"/>
      <point x="402" y="-439" type="curve" smooth="yes"/>
      <point x="343" y="-439"/>
      <point x="316" y="-384"/>
      <point x="316" y="-204" type="curve" smooth="yes"/>
      <point x="316" y="37" type="line"/>
      <point x="290" y="24" type="line"/>
      <point x="290" y="-204" type="line" smooth="yes"/>
      <point x="290" y="-398"/>
      <point x="327" y="-465"/>
    </contour>
    <contour>
      <point x="220" y="-10" type="curve" smooth="yes"/>
      <point x="328" y="-10"/>
      <point x="401" y="103"/>
      <point x="401" y="261" type="curve" smooth="yes"/>
      <point x="401" y="413"/>
      <point x="331" y="536"/>
      <point x="220" y="536" type="curve" smooth="yes"/>
      <point x="107" y="536"/>
      <point x="43" y="408"/>
      <point x="43" y="261" type="curve" smooth="yes"/>
      <point x="43" y="111"/>
      <point x="109" y="-10"/>
    </contour>
    <contour>
      <point x="220" y="15" type="curve" smooth="yes"/>
      <point x="133" y="15"/>
      <point x="68" y="108"/>
      <point x="68" y="261" type="curve" smooth="yes"/>
      <point x="68" y="397"/>
      <point x="123" y="511"/>
      <point x="220" y="511" type="curve" smooth="yes"/>
      <point x="316" y="511"/>
      <point x="375" y="402"/>
      <point x="375" y="261" type="curve" smooth="yes"/>
      <point x="375" y="113"/>
      <point x="312" y="15"/>
    </contour>
    <contour>
      <point x="123" y="51" type="line"/>
      <point x="165" y="91"/>
      <point x="197" y="168"/>
      <point x="197" y="258" type="curve" smooth="yes"/>
      <point x="197" y="347"/>
      <point x="167" y="424"/>
      <point x="118" y="472" type="curve"/>
      <point x="102" y="452" type="line"/>
      <point x="145" y="409"/>
      <point x="172" y="338"/>
      <point x="172" y="258" type="curve" smooth="yes"/>
      <point x="172" y="175"/>
      <point x="146" y="107"/>
      <point x="105" y="69" type="curve"/>
    </contour>
  </outline>
</glyph>
<glyph name="nya" format="2">
  <advance width="449"/>
  <unicode hex="1009"/>
  <note>
nya
</note>
  <outline>
    <contour>
      <point x="191" y="-468" type="curve" smooth="yes"/>
      <point x="607" y="-468" type="line" smooth="yes"/>
      <point x="695" y="-468"/>
      <point x="738" y="-401"/>
      <point x="738" y="-269" type="curve" smooth="yes"/>
      <point x="738" y="-253" type="line"/>
      <point x="712" y="-253" type="line"/>
      <point x="712" y="-269" type="line" smooth="yes"/>
      <point x="712" y="-383"/>
      <point x="680" y="-442"/>
      <point x="608" y="-442" type="curve" smooth="yes"/>
      <point x="191" y="-442" type="line" smooth="yes"/>
      <point x="121" y="-442"/>
      <point x="86" y="-388"/>
      <point x="86" y="-269" type="curve" smooth="yes"/>
      <point x="86" y="134" type="line"/>
      <point x="60" y="159" type="line"/>
      <point x="60" y="-269" type="line" smooth="yes"/>
      <point x="60" y="-398"/>
      <point x="101" y="-468"/>
    </contour>
    <contour>
      <point x="229" y="-10" type="curve" smooth="yes"/>
      <point x="341" y="-10"/>
      <point x="406" y="109"/>
      <point x="406" y="261" type="curve" smooth="yes"/>
      <point x="406" y="411"/>
      <point x="344" y="536"/>
      <point x="229" y="536" type="curve" smooth="yes"/>
      <point x="142" y="536"/>
      <point x="87" y="469"/>
      <point x="62" y="374" type="curve"/>
      <point x="85" y="363" type="line"/>
      <point x="109" y="454"/>
      <point x="158" y="511"/>
      <point x="229" y="511" type="curve" smooth="yes"/>
      <point x="326" y="511"/>
      <point x="380" y="397"/>
      <point x="380" y="261" type="curve" smooth="yes"/>
      <point x="380" y="108"/>
      <point x="315" y="15"/>
      <point x="229" y="15" type="curve" smooth="yes"/>
      <point x="158" y="15"/>
      <point x="104" y="74"/>
      <point x="82" y="170" type="curve"/>
      <point x="60" y="159" type="line"/>
      <point x="84" y="56"/>
      <point x="142" y="-10"/>
    </contour>
  </outline>
</glyph>
<glyph name="nnya" format="2">
  <advance width="772"/>
  <unicode hex="100A"/>
  <note>
nnya
</note>
  <outline>
    <contour>
      <point x="191" y="-468" type="curve" smooth="yes"/>
      <point x="598" y="-468" type="line" smooth="yes"/>
      <point x="686" y="-468"/>
      <point x="729" y="-401"/>
      <point x="729" y="-269" type="curve" smooth="yes"/>
      <point x="729" y="-253" type="line"/>
      <point x="703" y="-253" type="line"/>
      <point x="703" y="-269" type="line" smooth="yes"/>
      <point x="703" y="-383"/>
      <point x="671" y="-442"/>
      <point x="599" y="-442" type="curve" smooth="yes"/>
      <point x="191" y="-442" type="line" smooth="yes"/>
      <point x="121" y="-442"/>
      <point x="86" y="-388"/>
      <point x="86" y="-269" type="curve" smooth="yes"/>
      <point x="86" y="134" type="line"/>
      <point x="60" y="159" type="line"/>
      <point x="60" y="-269" type="line" smooth="yes"/>
      <point x="60" y="-398"/>
      <point x="101" y="-468"/>
    </contour>
    <contour>
      <point x="229" y="-10" type="curve" smooth="yes"/>
      <point x="341" y="-10"/>
      <point x="406" y="109"/>
      <point x="406" y="261" type="curve" smooth="yes"/>
      <point x="406" y="411"/>
      <point x="344" y="536"/>
      <point x="229" y="536" type="curve" smooth="yes"/>
      <point x="142" y="536"/>
      <point x="87" y="469"/>
      <point x="62" y="374" type="curve"/>
      <point x="85" y="363" type="line"/>
      <point x="109" y="454"/>
      <point x="158" y="511"/>
      <point x="229" y="511" type="curve" smooth="yes"/>
      <point x="326" y="511"/>
      <point x="380" y="397"/>
      <point x="380" y="261" type="curve" smooth="yes"/>
      <point x="380" y="108"/>
      <point x="315" y="15"/>
      <point x="229" y="15" type="curve" smooth="yes"/>
      <point x="158" y="15"/>
      <point x="104" y="74"/>
      <point x="82" y="170" type="curve"/>
      <point x="60" y="159" type="line"/>
      <point x="84" y="56"/>
      <point x="142" y="-10"/>
    </contour>
    <contour>
      <point x="556" y="-8" type="curve" smooth="yes"/>
      <point x="665" y="-8"/>
      <point x="729" y="109"/>
      <point x="729" y="277" type="curve" smooth="yes"/>
      <point x="729" y="438"/>
      <point x="660" y="536"/>
      <point x="559" y="536" type="curve" smooth="yes"/>
      <point x="519" y="536"/>
      <point x="490" y="531"/>
      <point x="463" y="516" type="curve"/>
      <point x="475" y="493" type="line"/>
      <point x="497" y="507"/>
      <point x="528" y="511"/>
      <point x="557" y="511" type="curve" smooth="yes"/>
      <point x="644" y="511"/>
      <point x="703" y="426"/>
      <point x="703" y="277" type="curve" smooth="yes"/>
      <point x="703" y="131"/>
      <point x="653" y="17"/>
      <point x="556" y="17" type="curve" smooth="yes"/>
      <point x="485" y="17"/>
      <point x="434" y="56"/>
      <point x="382" y="183" type="curve"/>
      <point x="370" y="151" type="line"/>
      <point x="412" y="45"/>
      <point x="471" y="-8"/>
    </contour>
  </outline>
</glyph>
<glyph name="tta" format="2">
  <advance width="449"/>
  <unicode hex="100B"/>
  <note>
tta
</note>
  <outline>
    <contour>
      <point x="363" y="-468" type="line"/>
      <point x="469" y="-468" type="line"/>
      <point x="469" y="-443" type="line"/>
      <point x="389" y="-443" type="line"/>
      <point x="389" y="-204" type="line"/>
      <point x="339" y="-244"/>
      <point x="290" y="-265"/>
      <point x="234" y="-265" type="curve" smooth="yes"/>
      <point x="180" y="-265"/>
      <point x="137" y="-252"/>
      <point x="96" y="-232" type="curve"/>
      <point x="96" y="-103" type="line"/>
      <point x="133" y="-129"/>
      <point x="189" y="-144"/>
      <point x="234" y="-144" type="curve" smooth="yes"/>
      <point x="294" y="-144"/>
      <point x="350" y="-118"/>
      <point x="389" y="-69" type="curve"/>
      <point x="389" y="159" type="line"/>
      <point x="363" y="121" type="line"/>
      <point x="363" y="-61" type="line"/>
      <point x="329" y="-98"/>
      <point x="285" y="-119"/>
      <point x="228" y="-119" type="curve" smooth="yes"/>
      <point x="178" y="-119"/>
      <point x="117" y="-94"/>
      <point x="70" y="-53" type="curve"/>
      <point x="70" y="-247" type="line"/>
      <point x="120" y="-273"/>
      <point x="176" y="-290"/>
      <point x="234" y="-290" type="curve" smooth="yes"/>
      <point x="280" y="-290"/>
      <point x="326" y="-274"/>
      <point x="363" y="-251" type="curve"/>
    </contour>
    <contour>
      <point x="220" y="-10" type="curve" smooth="yes"/>
      <point x="307" y="-10"/>
      <point x="365" y="56"/>
      <point x="389" y="159" type="curve"/>
      <point x="367" y="170" type="line"/>
      <point x="345" y="74"/>
      <point x="291" y="15"/>
      <point x="220" y="15" type="curve" smooth="yes"/>
      <point x="134" y="15"/>
      <point x="69" y="108"/>
      <point x="69" y="261" type="curve" smooth="yes"/>
      <point x="69" y="397"/>
      <point x="123" y="511"/>
      <point x="220" y="511" type="curve" smooth="yes"/>
      <point x="291" y="511"/>
      <point x="340" y="454"/>
      <point x="364" y="363" type="curve"/>
      <point x="387" y="374" type="line"/>
      <point x="362" y="469"/>
      <point x="307" y="536"/>
      <point x="220" y="536" type="curve" smooth="yes"/>
      <point x="105" y="536"/>
      <point x="43" y="411"/>
      <point x="43" y="261" type="curve" smooth="yes"/>
      <point x="43" y="109"/>
      <point x="108" y="-10"/>
    </contour>
  </outline>
</glyph>
<glyph name="ttha" format="2">
  <advance width="449"/>
  <unicode hex="100C"/>
  <note>
ttha
</note>
  <outline>
    <contour>
      <point x="172" y="-468" type="curve" smooth="yes"/>
      <point x="258" y="-468" type="line" smooth="yes"/>
      <point x="348" y="-468"/>
      <point x="389" y="-398"/>
      <point x="389" y="-269" type="curve" smooth="yes"/>
      <point x="389" y="159" type="line"/>
      <point x="363" y="134" type="line"/>
      <point x="363" y="-269" type="line" smooth="yes"/>
      <point x="363" y="-388"/>
      <point x="327" y="-443"/>
      <point x="257" y="-443" type="curve" smooth="yes"/>
      <point x="172" y="-443" type="line" smooth="yes"/>
      <point x="105" y="-443"/>
      <point x="69" y="-406"/>
      <point x="69" y="-326" type="curve" smooth="yes"/>
      <point x="69" y="-261"/>
      <point x="95" y="-217"/>
      <point x="132" y="-217" type="curve" smooth="yes"/>
      <point x="162" y="-217"/>
      <point x="180" y="-235"/>
      <point x="201" y="-264" type="curve"/>
      <point x="221" y="-248" type="line"/>
      <point x="194" y="-213"/>
      <point x="173" y="-192"/>
      <point x="132" y="-192" type="curve" smooth="yes"/>
      <point x="81" y="-192"/>
      <point x="43" y="-245"/>
      <point x="43" y="-326" type="curve" smooth="yes"/>
      <point x="43" y="-420"/>
      <point x="88" y="-468"/>
    </contour>
    <contour>
      <point x="220" y="-10" type="curve" smooth="yes"/>
      <point x="307" y="-10"/>
      <point x="365" y="56"/>
      <point x="389" y="159" type="curve"/>
      <point x="367" y="170" type="line"/>
      <point x="345" y="74"/>
      <point x="291" y="15"/>
      <point x="220" y="15" type="curve" smooth="yes"/>
      <point x="134" y="15"/>
      <point x="69" y="108"/>
      <point x="69" y="261" type="curve" smooth="yes"/>
      <point x="69" y="397"/>
      <point x="123" y="511"/>
      <point x="220" y="511" type="curve" smooth="yes"/>
      <point x="291" y="511"/>
      <point x="340" y="454"/>
      <point x="364" y="363" type="curve"/>
      <point x="387" y="374" type="line"/>
      <point x="362" y="469"/>
      <point x="307" y="536"/>
      <point x="220" y="536" type="curve" smooth="yes"/>
      <point x="105" y="536"/>
      <point x="43" y="411"/>
      <point x="43" y="261" type="curve" smooth="yes"/>
      <point x="43" y="109"/>
      <point x="108" y="-10"/>
    </contour>
  </outline>
</glyph>
<glyph name="dda" format="2">
  <advance width="449"/>
  <unicode hex="100D"/>
  <note>
dda
</note>
  <outline>
    <contour>
      <point x="353" y="-468" type="line"/>
      <point x="457" y="-468" type="line"/>
      <point x="457" y="-443" type="line"/>
      <point x="379" y="-443" type="line"/>
      <point x="379" y="-64" type="line"/>
      <point x="328" y="-109"/>
      <point x="267" y="-130"/>
      <point x="220" y="-130" type="curve" smooth="yes"/>
      <point x="166" y="-130"/>
      <point x="119" y="-111"/>
      <point x="86" y="-71" type="curve"/>
      <point x="86" y="121" type="line"/>
      <point x="60" y="159" type="line"/>
      <point x="60" y="-80" type="line"/>
      <point x="101" y="-133"/>
      <point x="158" y="-155"/>
      <point x="220" y="-155" type="curve" smooth="yes"/>
      <point x="275" y="-155"/>
      <point x="323" y="-133"/>
      <point x="353" y="-115" type="curve"/>
    </contour>
    <contour>
      <point x="229" y="-10" type="curve" smooth="yes"/>
      <point x="341" y="-10"/>
      <point x="406" y="109"/>
      <point x="406" y="261" type="curve" smooth="yes"/>
      <point x="406" y="411"/>
      <point x="344" y="536"/>
      <point x="229" y="536" type="curve" smooth="yes"/>
      <point x="142" y="536"/>
      <point x="87" y="469"/>
      <point x="62" y="374" type="curve"/>
      <point x="85" y="363" type="line"/>
      <point x="109" y="454"/>
      <point x="158" y="511"/>
      <point x="229" y="511" type="curve" smooth="yes"/>
      <point x="326" y="511"/>
      <point x="380" y="397"/>
      <point x="380" y="261" type="curve" smooth="yes"/>
      <point x="380" y="108"/>
      <point x="315" y="15"/>
      <point x="229" y="15" type="curve" smooth="yes"/>
      <point x="158" y="15"/>
      <point x="104" y="74"/>
      <point x="82" y="170" type="curve"/>
      <point x="60" y="159" type="line"/>
      <point x="84" y="56"/>
      <point x="142" y="-10"/>
    </contour>
  </outline>
</glyph>
<glyph name="ddha" format="2">
  <advance width="449"/>
  <unicode hex="100E"/>
  <note>
ddha
</note>
  <outline>
    <contour>
      <point x="222" y="-10" type="curve" smooth="yes"/>
      <point x="331" y="-10"/>
      <point x="406" y="101"/>
      <point x="406" y="275" type="curve" smooth="yes"/>
      <point x="406" y="387"/>
      <point x="371" y="479"/>
      <point x="326" y="536" type="curve"/>
      <point x="310" y="516" type="line"/>
      <point x="352" y="465"/>
      <point x="380" y="371"/>
      <point x="380" y="275" type="curve" smooth="yes"/>
      <point x="380" y="109"/>
      <point x="311" y="15"/>
      <point x="223" y="15" type="curve" smooth="yes"/>
      <point x="129" y="15"/>
      <point x="76" y="92"/>
      <point x="76" y="204" type="curve" smooth="yes"/>
      <point x="76" y="276"/>
      <point x="95" y="315"/>
      <point x="129" y="364" type="curve" smooth="yes"/>
      <point x="159" y="407"/>
      <point x="166" y="430"/>
      <point x="166" y="460" type="curve" smooth="yes"/>
      <point x="166" y="501"/>
      <point x="144" y="534"/>
      <point x="108" y="534" type="curve" smooth="yes"/>
      <point x="79" y="534"/>
      <point x="58" y="519"/>
      <point x="45" y="489" type="curve"/>
      <point x="62" y="471" type="line"/>
      <point x="73" y="494"/>
      <point x="89" y="509"/>
      <point x="107" y="509" type="curve" smooth="yes"/>
      <point x="129" y="509"/>
      <point x="141" y="489"/>
      <point x="141" y="460" type="curve" smooth="yes"/>
      <point x="141" y="439"/>
      <point x="132" y="411"/>
      <point x="110" y="381" type="curve" smooth="yes"/>
      <point x="73" y="330"/>
      <point x="50" y="280"/>
      <point x="50" y="204" type="curve" smooth="yes"/>
      <point x="50" y="81"/>
      <point x="115" y="-10"/>
    </contour>
  </outline>
</glyph>
<glyph name="nna" format="2">
  <advance width="797"/>
  <unicode hex="100F"/>
  <note>
nna
</note>
  <outline>
    <contour>
      <point x="398" y="-12" type="curve" smooth="yes"/>
      <point x="458" y="-12"/>
      <point x="486" y="34"/>
      <point x="486" y="93" type="curve" smooth="yes"/>
      <point x="486" y="175"/>
      <point x="462" y="202"/>
      <point x="462" y="297" type="curve" smooth="yes"/>
      <point x="462" y="422"/>
      <point x="499" y="511"/>
      <point x="590" y="511" type="curve" smooth="yes"/>
      <point x="681" y="511"/>
      <point x="728" y="400"/>
      <point x="728" y="262" type="curve" smooth="yes"/>
      <point x="728" y="113"/>
      <point x="665" y="14"/>
      <point x="584" y="14" type="curve" smooth="yes"/>
      <point x="570" y="14"/>
      <point x="559" y="15"/>
      <point x="548" y="17" type="curve"/>
      <point x="542" y="-8" type="line"/>
      <point x="557" y="-10"/>
      <point x="569" y="-11"/>
      <point x="586" y="-11" type="curve" smooth="yes"/>
      <point x="680" y="-11"/>
      <point x="754" y="99"/>
      <point x="754" y="262" type="curve" smooth="yes"/>
      <point x="754" y="415"/>
      <point x="699" y="536"/>
      <point x="589" y="536" type="curve" smooth="yes"/>
      <point x="483" y="536"/>
      <point x="436" y="437"/>
      <point x="436" y="296" type="curve" smooth="yes"/>
      <point x="436" y="183"/>
      <point x="460" y="171"/>
      <point x="460" y="93" type="curve" smooth="yes"/>
      <point x="460" y="50"/>
      <point x="443" y="13"/>
      <point x="399" y="13" type="curve" smooth="yes"/>
      <point x="354" y="13"/>
      <point x="337" y="50"/>
      <point x="337" y="93" type="curve" smooth="yes"/>
      <point x="337" y="171"/>
      <point x="361" y="183"/>
      <point x="361" y="296" type="curve" smooth="yes"/>
      <point x="361" y="437"/>
      <point x="314" y="536"/>
      <point x="208" y="536" type="curve" smooth="yes"/>
      <point x="99" y="536"/>
      <point x="43" y="415"/>
      <point x="43" y="262" type="curve" smooth="yes"/>
      <point x="43" y="101"/>
      <point x="118" y="-11"/>
      <point x="211" y="-11" type="curve" smooth="yes"/>
      <point x="227" y="-11"/>
      <point x="240" y="-10"/>
      <point x="254" y="-8" type="curve"/>
      <point x="248" y="17" type="line"/>
      <point x="237" y="15"/>
      <point x="227" y="14"/>
      <point x="213" y="14" type="curve" smooth="yes"/>
      <point x="133" y="14"/>
      <point x="69" y="113"/>
      <point x="69" y="262" type="curve" smooth="yes"/>
      <point x="69" y="400"/>
      <point x="116" y="511"/>
      <point x="208" y="511" type="curve" smooth="yes"/>
      <point x="298" y="511"/>
      <point x="335" y="422"/>
      <point x="335" y="297" type="curve" smooth="yes"/>
      <point x="335" y="202"/>
      <point x="311" y="175"/>
      <point x="311" y="93" type="curve" smooth="yes"/>
      <point x="311" y="34"/>
      <point x="338" y="-12"/>
    </contour>
    <contour>
      <point x="325" y="451" type="line"/>
      <point x="346" y="482"/>
      <point x="361" y="511"/>
      <point x="399" y="511" type="curve" smooth="yes"/>
      <point x="435" y="511"/>
      <point x="451" y="482"/>
      <point x="472" y="451" type="curve"/>
      <point x="488" y="472" type="line"/>
      <point x="469" y="502"/>
      <point x="446" y="536"/>
      <point x="399" y="536" type="curve" smooth="yes"/>
      <point x="351" y="536"/>
      <point x="329" y="502"/>
      <point x="308" y="472" type="curve"/>
    </contour>
  </outline>
</glyph>
<glyph name="ta" format="2">
  <advance width="772"/>
  <unicode hex="1010"/>
  <note>
ta
</note>
  <outline>
    <contour>
      <point x="220" y="-10" type="curve" smooth="yes"/>
      <point x="329" y="-10"/>
      <point x="401" y="102"/>
      <point x="401" y="261" type="curve" smooth="yes"/>
      <point x="401" y="414"/>
      <point x="333" y="536"/>
      <point x="220" y="536" type="curve" smooth="yes"/>
      <point x="105" y="536"/>
      <point x="43" y="408"/>
      <point x="43" y="261" type="curve" smooth="yes"/>
      <point x="43" y="110"/>
      <point x="108" y="-10"/>
    </contour>
    <contour>
      <point x="220" y="15" type="curve" smooth="yes"/>
      <point x="133" y="15"/>
      <point x="69" y="108"/>
      <point x="69" y="261" type="curve" smooth="yes"/>
      <point x="69" y="397"/>
      <point x="123" y="511"/>
      <point x="220" y="511" type="curve" smooth="yes"/>
      <point x="317" y="511"/>
      <point x="375" y="402"/>
      <point x="375" y="261" type="curve" smooth="yes"/>
      <point x="375" y="113"/>
      <point x="312" y="15"/>
    </contour>
    <contour>
      <point x="555" y="-8" type="curve" smooth="yes"/>
      <point x="658" y="-8"/>
      <point x="728" y="98"/>
      <point x="728" y="256" type="curve" smooth="yes"/>
      <point x="728" y="419"/>
      <point x="663" y="536"/>
      <point x="552" y="536" type="curve" smooth="yes"/>
      <point x="467" y="536"/>
      <point x="408" y="483"/>
      <point x="366" y="377" type="curve"/>
      <point x="378" y="345" type="line"/>
      <point x="430" y="472"/>
      <point x="481" y="511"/>
      <point x="552" y="511" type="curve" smooth="yes"/>
      <point x="651" y="511"/>
      <point x="702" y="397"/>
      <point x="702" y="256" type="curve" smooth="yes"/>
      <point x="702" y="110"/>
      <point x="642" y="17"/>
      <point x="553" y="17" type="curve" smooth="yes"/>
      <point x="524" y="17"/>
      <point x="493" y="21"/>
      <point x="471" y="35" type="curve"/>
      <point x="459" y="12" type="line"/>
      <point x="486" y="-3"/>
      <point x="515" y="-8"/>
    </contour>
  </outline>
</glyph>
<glyph name="tha" format="2">
  <advance width="772"/>
  <unicode hex="1011"/>
  <note>
tha
</note>
  <outline>
    <contour>
      <point x="220" y="-10" type="curve" smooth="yes"/>
      <point x="328" y="-10"/>
      <point x="401" y="103"/>
      <point x="401" y="261" type="curve" smooth="yes"/>
      <point x="401" y="413"/>
      <point x="331" y="536"/>
      <point x="220" y="536" type="curve" smooth="yes"/>
      <point x="107" y="536"/>
      <point x="43" y="408"/>
      <point x="43" y="261" type="curve" smooth="yes"/>
      <point x="43" y="111"/>
      <point x="109" y="-10"/>
    </contour>
    <contour>
      <point x="220" y="16" type="curve" smooth="yes"/>
      <point x="133" y="16"/>
      <point x="69" y="109"/>
      <point x="69" y="261" type="curve" smooth="yes"/>
      <point x="69" y="396"/>
      <point x="123" y="510"/>
      <point x="220" y="510" type="curve" smooth="yes"/>
      <point x="317" y="510"/>
      <point x="375" y="401"/>
      <point x="375" y="261" type="curve" smooth="yes"/>
      <point x="375" y="114"/>
      <point x="312" y="16"/>
    </contour>
    <contour>
      <point x="546" y="-10" type="curve" smooth="yes"/>
      <point x="664" y="-10"/>
      <point x="728" y="114"/>
      <point x="728" y="261" type="curve" smooth="yes"/>
      <point x="728" y="412"/>
      <point x="664" y="536"/>
      <point x="547" y="536" type="curve" smooth="yes"/>
      <point x="466" y="536"/>
      <point x="411" y="485"/>
      <point x="371" y="406" type="curve"/>
      <point x="382" y="374" type="line"/>
      <point x="427" y="465"/>
      <point x="471" y="510"/>
      <point x="547" y="510" type="curve" smooth="yes"/>
      <point x="651" y="510"/>
      <point x="702" y="393"/>
      <point x="702" y="261" type="curve" smooth="yes"/>
      <point x="702" y="131"/>
      <point x="650" y="16"/>
      <point x="546" y="16" type="curve" smooth="yes"/>
      <point x="469" y="16"/>
      <point x="426" y="60"/>
      <point x="383" y="152" type="curve"/>
      <point x="371" y="119" type="line"/>
      <point x="410" y="40"/>
      <point x="466" y="-10"/>
    </contour>
  </outline>
</glyph>
<glyph name="da" format="2">
  <advance width="437"/>
  <unicode hex="1012"/>
  <note>
da
</note>
  <outline>
    <contour>
      <point x="219" y="-10" type="curve" smooth="yes"/>
      <point x="331" y="-10"/>
      <point x="394" y="49"/>
      <point x="394" y="149" type="curve" smooth="yes"/>
      <point x="394" y="222"/>
      <point x="354" y="267"/>
      <point x="300" y="278" type="curve"/>
      <point x="300" y="280" type="line"/>
      <point x="348" y="294"/>
      <point x="386" y="329"/>
      <point x="386" y="400" type="curve" smooth="yes"/>
      <point x="386" y="487"/>
      <point x="321" y="536"/>
      <point x="223" y="536" type="curve" smooth="yes"/>
      <point x="131" y="536"/>
      <point x="63" y="493"/>
      <point x="63" y="411" type="curve" smooth="yes"/>
      <point x="63" y="390"/>
      <point x="69" y="371"/>
      <point x="80" y="358" type="curve"/>
      <point x="101" y="372" type="line"/>
      <point x="92" y="384"/>
      <point x="89" y="396"/>
      <point x="89" y="411" type="curve" smooth="yes"/>
      <point x="89" y="475"/>
      <point x="145" y="511"/>
      <point x="223" y="511" type="curve" smooth="yes"/>
      <point x="279" y="511"/>
      <point x="360" y="494"/>
      <point x="360" y="400" type="curve" smooth="yes"/>
      <point x="360" y="328"/>
      <point x="311" y="290"/>
      <point x="257" y="290" type="curve" smooth="yes"/>
      <point x="225" y="290" type="line"/>
      <point x="225" y="265" type="line"/>
      <point x="257" y="265" type="line" smooth="yes"/>
      <point x="334" y="265"/>
      <point x="368" y="210"/>
      <point x="368" y="149" type="curve" smooth="yes"/>
      <point x="368" y="57"/>
      <point x="307" y="15"/>
      <point x="219" y="15" type="curve" smooth="yes"/>
      <point x="136" y="15"/>
      <point x="86" y="55"/>
      <point x="68" y="135" type="curve"/>
      <point x="46" y="123" type="line"/>
      <point x="64" y="43"/>
      <point x="119" y="-10"/>
    </contour>
  </outline>
</glyph>
<glyph name="dha" format="2">
  <advance width="444"/>
  <unicode hex="1013"/>
  <note>
dha
</note>
  <outline>
    <contour>
      <point x="90" y="114" type="line"/>
      <point x="121" y="180"/>
      <point x="170" y="223"/>
      <point x="224" y="223" type="curve" smooth="yes"/>
      <point x="282" y="223"/>
      <point x="328" y="173"/>
      <point x="356" y="114" type="curve"/>
      <point x="372" y="132" type="line"/>
      <point x="346" y="193"/>
      <point x="291" y="248"/>
      <point x="224" y="248" type="curve" smooth="yes"/>
      <point x="161" y="248"/>
      <point x="105" y="201"/>
      <point x="73" y="132" type="curve"/>
    </contour>
    <contour>
      <point x="220" y="-10" type="curve" smooth="yes"/>
      <point x="330" y="-10"/>
      <point x="401" y="103"/>
      <point x="401" y="261" type="curve" smooth="yes"/>
      <point x="401" y="414"/>
      <point x="332" y="536"/>
      <point x="220" y="536" type="curve" smooth="yes"/>
      <point x="106" y="536"/>
      <point x="43" y="409"/>
      <point x="43" y="261" type="curve" smooth="yes"/>
      <point x="43" y="110"/>
      <point x="108" y="-10"/>
    </contour>
    <contour>
      <point x="220" y="15" type="curve" smooth="yes"/>
      <point x="133" y="15"/>
      <point x="69" y="108"/>
      <point x="69" y="261" type="curve" smooth="yes"/>
      <point x="69" y="397"/>
      <point x="123" y="511"/>
      <point x="220" y="511" type="curve" smooth="yes"/>
      <point x="317" y="511"/>
      <point x="375" y="402"/>
      <point x="375" y="261" type="curve" smooth="yes"/>
      <point x="375" y="113"/>
      <point x="312" y="15"/>
    </contour>
  </outline>
</glyph>
<glyph name="na" format="2">
  <advance width="400"/>
  <unicode hex="1014"/>
  <note>
na
</note>
  <outline>
    <contour>
      <point x="212" y="-468" type="line"/>
      <point x="238" y="-468" type="line"/>
      <point x="238" y="55" type="line" smooth="yes"/>
      <point x="238" y="176"/>
      <point x="201" y="253"/>
      <point x="128" y="253" type="curve" smooth="yes"/>
      <point x="70" y="253"/>
      <point x="32" y="203"/>
      <point x="32" y="134" type="curve" smooth="yes"/>
      <point x="32" y="32"/>
      <point x="106" y="-12"/>
      <point x="204" y="-12" type="curve" smooth="yes"/>
      <point x="211" y="-12" type="line" smooth="yes"/>
      <point x="324" y="-12"/>
      <point x="368" y="55"/>
      <point x="368" y="136" type="curve" smooth="yes"/>
      <point x="368" y="221"/>
      <point x="322" y="262"/>
      <point x="243" y="299" type="curve" smooth="yes"/>
      <point x="170" y="333"/>
      <point x="147" y="367"/>
      <point x="147" y="422" type="curve" smooth="yes"/>
      <point x="147" y="469"/>
      <point x="175" y="509"/>
      <point x="224" y="509" type="curve" smooth="yes"/>
      <point x="268" y="509"/>
      <point x="293" y="492"/>
      <point x="323" y="440" type="curve"/>
      <point x="343" y="457" type="line"/>
      <point x="317" y="500"/>
      <point x="289" y="534"/>
      <point x="224" y="534" type="curve" smooth="yes"/>
      <point x="161" y="534"/>
      <point x="122" y="485"/>
      <point x="122" y="422" type="curve" smooth="yes"/>
      <point x="122" y="350"/>
      <point x="156" y="311"/>
      <point x="231" y="277" type="curve" smooth="yes"/>
      <point x="308" y="242"/>
      <point x="342" y="205"/>
      <point x="342" y="136" type="curve" smooth="yes"/>
      <point x="342" y="66"/>
      <point x="306" y="13"/>
      <point x="213" y="13" type="curve" smooth="yes"/>
      <point x="205" y="13" type="line" smooth="yes"/>
      <point x="127" y="13"/>
      <point x="58" y="44"/>
      <point x="58" y="134" type="curve" smooth="yes"/>
      <point x="58" y="189"/>
      <point x="84" y="228"/>
      <point x="127" y="228" type="curve" smooth="yes"/>
      <point x="188" y="228"/>
      <point x="212" y="155"/>
      <point x="212" y="54" type="curve" smooth="yes"/>
    </contour>
  </outline>
</glyph>
<glyph name="pa" format="2">
  <advance width="449"/>
  <unicode hex="1015"/>
  <note>
pa
</note>
  <outline>
    <contour>
      <point x="224" y="-10" type="curve" smooth="yes"/>
      <point x="332" y="-10"/>
      <point x="405" y="101"/>
      <point x="405" y="275" type="curve" smooth="yes"/>
      <point x="405" y="375"/>
      <point x="370" y="488"/>
      <point x="326" y="536" type="curve"/>
      <point x="310" y="516" type="line"/>
      <point x="350" y="474"/>
      <point x="379" y="359"/>
      <point x="379" y="275" type="curve" smooth="yes"/>
      <point x="379" y="107"/>
      <point x="310" y="15"/>
      <point x="224" y="15" type="curve" smooth="yes"/>
      <point x="138" y="15"/>
      <point x="69" y="107"/>
      <point x="69" y="275" type="curve" smooth="yes"/>
      <point x="69" y="359"/>
      <point x="97" y="474"/>
      <point x="138" y="516" type="curve"/>
      <point x="121" y="536" type="line"/>
      <point x="78" y="488"/>
      <point x="43" y="375"/>
      <point x="43" y="275" type="curve" smooth="yes"/>
      <point x="43" y="103"/>
      <point x="115" y="-10"/>
    </contour>
  </outline>
</glyph>
<glyph name="pha" format="2">
  <advance width="447"/>
  <unicode hex="1016"/>
  <note>
pha
</note>
  <outline>
    <contour>
      <point x="224" y="-10" type="curve" smooth="yes"/>
      <point x="339" y="-10"/>
      <point x="404" y="108"/>
      <point x="404" y="285" type="curve" smooth="yes"/>
      <point x="404" y="386"/>
      <point x="369" y="467"/>
      <point x="317" y="533" type="curve"/>
      <point x="258" y="472"/>
      <point x="232" y="397"/>
      <point x="232" y="285" type="curve" smooth="yes"/>
      <point x="232" y="185"/>
      <point x="268" y="86"/>
      <point x="304" y="43" type="curve"/>
      <point x="323" y="60" type="line"/>
      <point x="287" y="104"/>
      <point x="258" y="194"/>
      <point x="258" y="285" type="curve" smooth="yes"/>
      <point x="258" y="380"/>
      <point x="279" y="452"/>
      <point x="317" y="491" type="curve"/>
      <point x="349" y="449"/>
      <point x="378" y="377"/>
      <point x="378" y="285" type="curve" smooth="yes"/>
      <point x="378" y="119"/>
      <point x="322" y="15"/>
      <point x="224" y="15" type="curve" smooth="yes"/>
      <point x="127" y="15"/>
      <point x="69" y="122"/>
      <point x="69" y="285" type="curve" smooth="yes"/>
      <point x="69" y="360"/>
      <point x="87" y="451"/>
      <point x="136" y="515" type="curve"/>
      <point x="120" y="536" type="line"/>
      <point x="64" y="468"/>
      <point x="43" y="365"/>
      <point x="43" y="285" type="curve" smooth="yes"/>
      <point x="43" y="110"/>
      <point x="110" y="-10"/>
    </contour>
  </outline>
</glyph>
<glyph name="ba" format="2">
  <advance width="449"/>
  <unicode hex="1017"/>
  <note>
ba
</note>
  <outline>
    <contour>
      <point x="226" y="-10" type="curve" smooth="yes"/>
      <point x="333" y="-10"/>
      <point x="403" y="99"/>
      <point x="403" y="275" type="curve" smooth="yes"/>
      <point x="403" y="375"/>
      <point x="368" y="488"/>
      <point x="323" y="536" type="curve"/>
      <point x="307" y="516" type="line"/>
      <point x="348" y="471"/>
      <point x="377" y="359"/>
      <point x="377" y="275" type="curve" smooth="yes"/>
      <point x="377" y="107"/>
      <point x="313" y="15"/>
      <point x="226" y="15" type="curve" smooth="yes"/>
      <point x="132" y="15"/>
      <point x="69" y="107"/>
      <point x="69" y="275" type="curve" smooth="yes"/>
      <point x="69" y="359"/>
      <point x="99" y="472"/>
      <point x="138" y="516" type="curve"/>
      <point x="121" y="536" type="line"/>
      <point x="77" y="488"/>
      <point x="43" y="375"/>
      <point x="43" y="275" type="curve" smooth="yes"/>
      <point x="43" y="103"/>
      <point x="109" y="-10"/>
    </contour>
    <contour>
      <point x="221" y="283" type="curve" smooth="yes"/>
      <point x="296" y="283"/>
      <point x="342" y="354"/>
      <point x="342" y="443" type="curve" smooth="yes"/>
      <point x="342" y="478"/>
      <point x="335" y="510"/>
      <point x="323" y="536" type="curve"/>
      <point x="306" y="518" type="line"/>
      <point x="313" y="496"/>
      <point x="318" y="471"/>
      <point x="318" y="443" type="curve" smooth="yes"/>
      <point x="318" y="366"/>
      <point x="278" y="308"/>
      <point x="221" y="308" type="curve" smooth="yes"/>
      <point x="165" y="308"/>
      <point x="125" y="364"/>
      <point x="125" y="443" type="curve" smooth="yes"/>
      <point x="125" y="470"/>
      <point x="130" y="496"/>
      <point x="139" y="516" type="curve"/>
      <point x="122" y="535" type="line"/>
      <point x="108" y="510"/>
      <point x="101" y="477"/>
      <point x="101" y="443" type="curve" smooth="yes"/>
      <point x="101" y="350"/>
      <point x="146" y="283"/>
    </contour>
  </outline>
</glyph>
<glyph name="bha" format="2">
  <advance width="769"/>
  <unicode hex="1018"/>
  <note>
bha
</note>
  <outline>
    <contour>
      <point x="212" y="-10" type="curve" smooth="yes"/>
      <point x="324" y="-10"/>
      <point x="389" y="109"/>
      <point x="389" y="261" type="curve" smooth="yes"/>
      <point x="389" y="411"/>
      <point x="327" y="536"/>
      <point x="212" y="536" type="curve" smooth="yes"/>
      <point x="125" y="536"/>
      <point x="70" y="469"/>
      <point x="45" y="374" type="curve"/>
      <point x="68" y="363" type="line"/>
      <point x="92" y="454"/>
      <point x="141" y="511"/>
      <point x="212" y="511" type="curve" smooth="yes"/>
      <point x="309" y="511"/>
      <point x="363" y="397"/>
      <point x="363" y="261" type="curve" smooth="yes"/>
      <point x="363" y="108"/>
      <point x="298" y="15"/>
      <point x="212" y="15" type="curve" smooth="yes"/>
      <point x="141" y="15"/>
      <point x="87" y="74"/>
      <point x="65" y="170" type="curve"/>
      <point x="43" y="159" type="line"/>
      <point x="67" y="56"/>
      <point x="125" y="-10"/>
    </contour>
    <contour>
      <point x="553" y="-8" type="curve" smooth="yes"/>
      <point x="656" y="-8"/>
      <point x="726" y="90"/>
      <point x="726" y="251" type="curve" smooth="yes"/>
      <point x="726" y="409"/>
      <point x="672" y="536"/>
      <point x="550" y="536" type="curve" smooth="yes"/>
      <point x="469" y="536"/>
      <point x="403" y="477"/>
      <point x="360" y="378" type="curve"/>
      <point x="372" y="345" type="line"/>
      <point x="423" y="460"/>
      <point x="478" y="511"/>
      <point x="550" y="511" type="curve" smooth="yes"/>
      <point x="654" y="511"/>
      <point x="700" y="397"/>
      <point x="700" y="251" type="curve" smooth="yes"/>
      <point x="700" y="102"/>
      <point x="640" y="17"/>
      <point x="552" y="17" type="curve" smooth="yes"/>
      <point x="520" y="17"/>
      <point x="492" y="23"/>
      <point x="462" y="41" type="curve"/>
      <point x="450" y="19" type="line"/>
      <point x="477" y="3"/>
      <point x="505" y="-8"/>
    </contour>
  </outline>
</glyph>
<glyph name="ma" format="2">
  <advance width="448"/>
  <unicode hex="1019"/>
  <note>
ma
</note>
  <outline>
    <contour>
      <point x="224" y="-10" type="curve" smooth="yes"/>
      <point x="328" y="-10"/>
      <point x="405" y="104"/>
      <point x="405" y="275" type="curve" smooth="yes"/>
      <point x="405" y="375"/>
      <point x="370" y="488"/>
      <point x="326" y="536" type="curve"/>
      <point x="310" y="516" type="line"/>
      <point x="350" y="474"/>
      <point x="379" y="359"/>
      <point x="379" y="275" type="curve" smooth="yes"/>
      <point x="379" y="107"/>
      <point x="310" y="15"/>
      <point x="224" y="15" type="curve" smooth="yes"/>
      <point x="138" y="15"/>
      <point x="69" y="107"/>
      <point x="69" y="275" type="curve" smooth="yes"/>
      <point x="69" y="359"/>
      <point x="97" y="474"/>
      <point x="138" y="516" type="curve"/>
      <point x="121" y="536" type="line"/>
      <point x="78" y="488"/>
      <point x="43" y="375"/>
      <point x="43" y="275" type="curve" smooth="yes"/>
      <point x="43" y="104"/>
      <point x="120" y="-10"/>
    </contour>
    <contour>
      <point x="90" y="117" type="line"/>
      <point x="121" y="192"/>
      <point x="170" y="224"/>
      <point x="224" y="224" type="curve" smooth="yes"/>
      <point x="281" y="224"/>
      <point x="327" y="182"/>
      <point x="354" y="117" type="curve"/>
      <point x="371" y="137" type="line"/>
      <point x="347" y="201"/>
      <point x="290" y="249"/>
      <point x="224" y="249" type="curve" smooth="yes"/>
      <point x="162" y="249"/>
      <point x="104" y="213"/>
      <point x="73" y="137" type="curve"/>
    </contour>
  </outline>
</glyph>
<glyph name="ya" format="2">
  <advance width="772"/>
  <unicode hex="101A"/>
  <note>
ya
</note>
  <outline>
    <contour>
      <point x="224" y="-10" type="curve" smooth="yes"/>
      <point x="332" y="-10"/>
      <point x="405" y="101"/>
      <point x="405" y="275" type="curve" smooth="yes"/>
      <point x="405" y="375"/>
      <point x="370" y="488"/>
      <point x="326" y="536" type="curve"/>
      <point x="310" y="516" type="line"/>
      <point x="350" y="474"/>
      <point x="379" y="359"/>
      <point x="379" y="275" type="curve" smooth="yes"/>
      <point x="379" y="107"/>
      <point x="310" y="15"/>
      <point x="224" y="15" type="curve" smooth="yes"/>
      <point x="138" y="15"/>
      <point x="69" y="107"/>
      <point x="69" y="275" type="curve" smooth="yes"/>
      <point x="69" y="359"/>
      <point x="97" y="474"/>
      <point x="138" y="516" type="curve"/>
      <point x="121" y="536" type="line"/>
      <point x="78" y="488"/>
      <point x="43" y="375"/>
      <point x="43" y="275" type="curve" smooth="yes"/>
      <point x="43" y="103"/>
      <point x="115" y="-10"/>
    </contour>
    <contour>
      <point x="553" y="-10" type="curve" smooth="yes"/>
      <point x="664" y="-10"/>
      <point x="729" y="107"/>
      <point x="729" y="275" type="curve" smooth="yes"/>
      <point x="729" y="436"/>
      <point x="659" y="534"/>
      <point x="556" y="534" type="curve" smooth="yes"/>
      <point x="516" y="534"/>
      <point x="487" y="529"/>
      <point x="460" y="514" type="curve"/>
      <point x="472" y="491" type="line"/>
      <point x="494" y="505"/>
      <point x="525" y="509"/>
      <point x="554" y="509" type="curve" smooth="yes"/>
      <point x="643" y="509"/>
      <point x="703" y="424"/>
      <point x="703" y="275" type="curve" smooth="yes"/>
      <point x="703" y="129"/>
      <point x="652" y="15"/>
      <point x="553" y="15" type="curve" smooth="yes"/>
      <point x="482" y="15"/>
      <point x="431" y="54"/>
      <point x="379" y="181" type="curve"/>
      <point x="370" y="143" type="line"/>
      <point x="409" y="43"/>
      <point x="468" y="-10"/>
    </contour>
  </outline>
</glyph>
<glyph name="sa" format="2">
  <advance width="774"/>
  <unicode hex="101E"/>
  <note>
sa
</note>
  <outline>
    <contour>
      <point x="212" y="-10" type="curve" smooth="yes"/>
      <point x="324" y="-10"/>
      <point x="389" y="109"/>
      <point x="389" y="261" type="curve" smooth="yes"/>
      <point x="389" y="411"/>
      <point x="327" y="536"/>
      <point x="212" y="536" type="curve" smooth="yes"/>
      <point x="125" y="536"/>
      <point x="70" y="469"/>
      <point x="45" y="374" type="curve"/>
      <point x="68" y="363" type="line"/>
      <point x="92" y="454"/>
      <point x="141" y="511"/>
      <point x="212" y="511" type="curve" smooth="yes"/>
      <point x="309" y="511"/>
      <point x="363" y="397"/>
      <point x="363" y="261" type="curve" smooth="yes"/>
      <point x="363" y="108"/>
      <point x="298" y="15"/>
      <point x="212" y="15" type="curve" smooth="yes"/>
      <point x="141" y="15"/>
      <point x="87" y="74"/>
      <point x="65" y="170" type="curve"/>
      <point x="43" y="159" type="line"/>
      <point x="67" y="56"/>
      <point x="125" y="-10"/>
    </contour>
    <contour>
      <point x="555" y="-8" type="curve" smooth="yes"/>
      <point x="666" y="-8"/>
      <point x="731" y="109"/>
      <point x="731" y="277" type="curve" smooth="yes"/>
      <point x="731" y="438"/>
      <point x="661" y="536"/>
      <point x="558" y="536" type="curve" smooth="yes"/>
      <point x="518" y="536"/>
      <point x="489" y="531"/>
      <point x="462" y="516" type="curve"/>
      <point x="474" y="493" type="line"/>
      <point x="496" y="507"/>
      <point x="527" y="511"/>
      <point x="556" y="511" type="curve" smooth="yes"/>
      <point x="645" y="511"/>
      <point x="705" y="426"/>
      <point x="705" y="277" type="curve" smooth="yes"/>
      <point x="705" y="131"/>
      <point x="654" y="17"/>
      <point x="555" y="17" type="curve" smooth="yes"/>
      <point x="484" y="17"/>
      <point x="433" y="56"/>
      <point x="381" y="183" type="curve"/>
      <point x="369" y="151" type="line"/>
      <point x="411" y="45"/>
      <point x="470" y="-8"/>
    </contour>
  </outline>
</glyph>
<glyph name="ha" format="2">
  <advance width="772"/>
  <unicode hex="101F"/>
  <note>
ha
</note>
  <outline>
    <contour>
      <point x="224" y="-10" type="curve" smooth="yes"/>
      <point x="332" y="-10"/>
      <point x="405" y="101"/>
      <point x="405" y="275" type="curve" smooth="yes"/>
      <point x="405" y="375"/>
      <point x="370" y="488"/>
      <point x="326" y="536" type="curve"/>
      <point x="310" y="516" type="line"/>
      <point x="350" y="474"/>
      <point x="379" y="359"/>
      <point x="379" y="275" type="curve" smooth="yes"/>
      <point x="379" y="107"/>
      <point x="310" y="15"/>
      <point x="224" y="15" type="curve" smooth="yes"/>
      <point x="138" y="15"/>
      <point x="69" y="107"/>
      <point x="69" y="275" type="curve" smooth="yes"/>
      <point x="69" y="359"/>
      <point x="97" y="474"/>
      <point x="138" y="516" type="curve"/>
      <point x="121" y="536" type="line"/>
      <point x="78" y="488"/>
      <point x="43" y="375"/>
      <point x="43" y="275" type="curve" smooth="yes"/>
      <point x="43" y="103"/>
      <point x="115" y="-10"/>
    </contour>
    <contour>
      <point x="555" y="-8" type="curve" smooth="yes"/>
      <point x="658" y="-8"/>
      <point x="728" y="94"/>
      <point x="728" y="255" type="curve" smooth="yes"/>
      <point x="728" y="419"/>
      <point x="663" y="536"/>
      <point x="552" y="536" type="curve" smooth="yes"/>
      <point x="467" y="536"/>
      <point x="408" y="483"/>
      <point x="369" y="383" type="curve"/>
      <point x="378" y="345" type="line"/>
      <point x="430" y="472"/>
      <point x="481" y="511"/>
      <point x="552" y="511" type="curve" smooth="yes"/>
      <point x="651" y="511"/>
      <point x="702" y="397"/>
      <point x="702" y="255" type="curve" smooth="yes"/>
      <point x="702" y="106"/>
      <point x="642" y="17"/>
      <point x="553" y="17" type="curve" smooth="yes"/>
      <point x="524" y="17"/>
      <point x="493" y="21"/>
      <point x="471" y="35" type="curve"/>
      <point x="459" y="12" type="line"/>
      <point x="486" y="-3"/>
      <point x="515" y="-8"/>
    </contour>
  </outline>
</glyph>
<glyph name="lla" format="2">
  <advance width="446"/>
  <unicode hex="1020"/>
  <note>
lla
</note>
  <outline>
    <contour>
      <point x="200" y="-468" type="curve" smooth="yes"/>
      <point x="259" y="-468" type="line" smooth="yes"/>
      <point x="345" y="-468"/>
      <point x="389" y="-405"/>
      <point x="389" y="-282" type="curve" smooth="yes"/>
      <point x="389" y="-276" type="line"/>
      <point x="364" y="-276" type="line"/>
      <point x="364" y="-282" type="line" smooth="yes"/>
      <point x="364" y="-392"/>
      <point x="331" y="-442"/>
      <point x="259" y="-442" type="curve" smooth="yes"/>
      <point x="200" y="-442" type="line" smooth="yes"/>
      <point x="124" y="-442"/>
      <point x="96" y="-381"/>
      <point x="96" y="-258" type="curve" smooth="yes"/>
      <point x="96" y="-104" type="line"/>
      <point x="126" y="-122"/>
      <point x="174" y="-144"/>
      <point x="229" y="-144" type="curve" smooth="yes"/>
      <point x="291" y="-144"/>
      <point x="348" y="-122"/>
      <point x="389" y="-69" type="curve"/>
      <point x="389" y="159" type="line"/>
      <point x="363" y="121" type="line"/>
      <point x="363" y="-60" type="line"/>
      <point x="330" y="-100"/>
      <point x="283" y="-119"/>
      <point x="229" y="-119" type="curve" smooth="yes"/>
      <point x="182" y="-119"/>
      <point x="121" y="-98"/>
      <point x="70" y="-53" type="curve"/>
      <point x="70" y="-258" type="line" smooth="yes"/>
      <point x="70" y="-399"/>
      <point x="111" y="-468"/>
    </contour>
    <contour>
      <point x="220" y="-10" type="curve" smooth="yes"/>
      <point x="307" y="-10"/>
      <point x="365" y="56"/>
      <point x="389" y="159" type="curve"/>
      <point x="367" y="170" type="line"/>
      <point x="345" y="74"/>
      <point x="291" y="15"/>
      <point x="220" y="15" type="curve" smooth="yes"/>
      <point x="134" y="15"/>
      <point x="69" y="108"/>
      <point x="69" y="261" type="curve" smooth="yes"/>
      <point x="69" y="397"/>
      <point x="123" y="511"/>
      <point x="220" y="511" type="curve" smooth="yes"/>
      <point x="291" y="511"/>
      <point x="340" y="454"/>
      <point x="364" y="363" type="curve"/>
      <point x="387" y="374" type="line"/>
      <point x="362" y="469"/>
      <point x="307" y="536"/>
      <point x="220" y="536" type="curve" smooth="yes"/>
      <point x="105" y="536"/>
      <point x="43" y="411"/>
      <point x="43" y="261" type="curve" smooth="yes"/>
      <point x="43" y="109"/>
      <point x="108" y="-10"/>
    </contour>
  </outline>
</glyph>
<glyph name="a_m" format="2">
  <advance width="771"/>
  <unicode hex="1021"/>
  <note>
a_m
</note>
  <outline>
    <contour>
      <point x="219" y="-10" type="curve" smooth="yes"/>
      <point x="331" y="-10"/>
      <point x="394" y="49"/>
      <point x="394" y="149" type="curve" smooth="yes"/>
      <point x="394" y="222"/>
      <point x="354" y="267"/>
      <point x="300" y="278" type="curve"/>
      <point x="300" y="280" type="line"/>
      <point x="348" y="294"/>
      <point x="386" y="329"/>
      <point x="386" y="400" type="curve" smooth="yes"/>
      <point x="386" y="487"/>
      <point x="321" y="536"/>
      <point x="223" y="536" type="curve" smooth="yes"/>
      <point x="131" y="536"/>
      <point x="63" y="493"/>
      <point x="63" y="411" type="curve" smooth="yes"/>
      <point x="63" y="390"/>
      <point x="69" y="371"/>
      <point x="80" y="358" type="curve"/>
      <point x="101" y="372" type="line"/>
      <point x="92" y="384"/>
      <point x="89" y="396"/>
      <point x="89" y="411" type="curve" smooth="yes"/>
      <point x="89" y="475"/>
      <point x="145" y="511"/>
      <point x="223" y="511" type="curve" smooth="yes"/>
      <point x="279" y="511"/>
      <point x="360" y="494"/>
      <point x="360" y="400" type="curve" smooth="yes"/>
      <point x="360" y="328"/>
      <point x="311" y="290"/>
      <point x="257" y="290" type="curve" smooth="yes"/>
      <point x="225" y="290" type="line"/>
      <point x="225" y="265" type="line"/>
      <point x="257" y="265" type="line" smooth="yes"/>
      <point x="334" y="265"/>
      <point x="368" y="210"/>
      <point x="368" y="149" type="curve" smooth="yes"/>
      <point x="368" y="57"/>
      <point x="307" y="15"/>
      <point x="219" y="15" type="curve" smooth="yes"/>
      <point x="136" y="15"/>
      <point x="86" y="55"/>
      <point x="68" y="135" type="curve"/>
      <point x="46" y="123" type="line"/>
      <point x="64" y="43"/>
      <point x="119" y="-10"/>
    </contour>
    <contour>
      <point x="556" y="-10" type="curve" smooth="yes"/>
      <point x="662" y="-10"/>
      <point x="728" y="101"/>
      <point x="728" y="263" type="curve" smooth="yes"/>
      <point x="728" y="418"/>
      <point x="660" y="536"/>
      <point x="542" y="536" type="curve" smooth="yes"/>
      <point x="464" y="536"/>
      <point x="414" y="494"/>
      <point x="371" y="450" type="curve"/>
      <point x="382" y="426" type="line"/>
      <point x="425" y="470"/>
      <point x="472" y="511"/>
      <point x="541" y="511" type="curve" smooth="yes"/>
      <point x="645" y="511"/>
      <point x="702" y="403"/>
      <point x="702" y="263" type="curve" smooth="yes"/>
      <point x="702" y="121"/>
      <point x="651" y="15"/>
      <point x="554" y="15" type="curve" smooth="yes"/>
      <point x="534" y="15"/>
      <point x="519" y="20"/>
      <point x="500" y="32" type="curve"/>
      <point x="507" y="26" type="line"/>
      <point x="509" y="170"/>
      <point x="574" y="276"/>
      <point x="709" y="276" type="curve"/>
      <point x="706" y="301" type="line"/>
      <point x="558" y="300"/>
      <point x="481" y="188"/>
      <point x="481" y="12" type="curve"/>
      <point x="498" y="2"/>
      <point x="526" y="-10"/>
    </contour>
  </outline>
</glyph>
<glyph name="a_shn" format="2">
  <advance width="768"/>
  <unicode hex="1022"/>
  <note>
a_shn
</note>
  <outline>
    <contour>
      <point x="108" y="-8" type="curve" smooth="yes"/>
      <point x="144" y="-8"/>
      <point x="166" y="25"/>
      <point x="166" y="66" type="curve" smooth="yes"/>
      <point x="166" y="96"/>
      <point x="159" y="119"/>
      <point x="129" y="162" type="curve" smooth="yes"/>
      <point x="95" y="211"/>
      <point x="76" y="250"/>
      <point x="76" y="322" type="curve" smooth="yes"/>
      <point x="76" y="433"/>
      <point x="129" y="510"/>
      <point x="223" y="510" type="curve" smooth="yes"/>
      <point x="311" y="510"/>
      <point x="380" y="416"/>
      <point x="380" y="251" type="curve" smooth="yes"/>
      <point x="380" y="155"/>
      <point x="352" y="61"/>
      <point x="310" y="10" type="curve"/>
      <point x="326" y="-10" type="line"/>
      <point x="371" y="47"/>
      <point x="406" y="139"/>
      <point x="406" y="251" type="curve" smooth="yes"/>
      <point x="406" y="425"/>
      <point x="331" y="536"/>
      <point x="222" y="536" type="curve" smooth="yes"/>
      <point x="115" y="536"/>
      <point x="50" y="445"/>
      <point x="50" y="322" type="curve" smooth="yes"/>
      <point x="50" y="246"/>
      <point x="73" y="196"/>
      <point x="110" y="145" type="curve" smooth="yes"/>
      <point x="132" y="115"/>
      <point x="141" y="87"/>
      <point x="141" y="66" type="curve" smooth="yes"/>
      <point x="141" y="37"/>
      <point x="129" y="17"/>
      <point x="107" y="17" type="curve" smooth="yes"/>
      <point x="89" y="17"/>
      <point x="73" y="32"/>
      <point x="62" y="55" type="curve"/>
      <point x="45" y="37" type="line"/>
      <point x="58" y="7"/>
      <point x="79" y="-8"/>
    </contour>
    <contour>
      <point x="553" y="-10" type="curve" smooth="yes"/>
      <point x="655" y="-10"/>
      <point x="725" y="88"/>
      <point x="725" y="249" type="curve" smooth="yes"/>
      <point x="725" y="410"/>
      <point x="661" y="534"/>
      <point x="551" y="534" type="curve" smooth="yes"/>
      <point x="471" y="534"/>
      <point x="412" y="479"/>
      <point x="375" y="376" type="curve"/>
      <point x="386" y="343" type="line"/>
      <point x="435" y="470"/>
      <point x="486" y="509"/>
      <point x="551" y="509" type="curve" smooth="yes"/>
      <point x="649" y="509"/>
      <point x="699" y="395"/>
      <point x="699" y="249" type="curve" smooth="yes"/>
      <point x="699" y="100"/>
      <point x="640" y="15"/>
      <point x="551" y="15" type="curve" smooth="yes"/>
      <point x="523" y="15"/>
      <point x="492" y="19"/>
      <point x="469" y="33" type="curve"/>
      <point x="458" y="10" type="line"/>
      <point x="485" y="-5"/>
      <point x="514" y="-10"/>
    </contour>
  </outline>
</glyph>
<glyph name="i_m" format="2">
  <advance width="755"/>
  <unicode hex="1023"/>
  <note>
i_m
</note>
  <outline>
    <contour>
      <point x="124" y="-10" type="curve"/>
      <point x="139" y="11" type="line"/>
      <point x="99" y="55"/>
      <point x="69" y="129"/>
      <point x="69" y="251" type="curve" smooth="yes"/>
      <point x="69" y="414"/>
      <point x="132" y="511"/>
      <point x="218" y="511" type="curve" smooth="yes"/>
      <point x="322" y="511"/>
      <point x="364" y="385"/>
      <point x="364" y="204" type="curve" smooth="yes"/>
      <point x="364" y="117" type="line"/>
      <point x="390" y="117" type="line"/>
      <point x="390" y="204" type="line" smooth="yes"/>
      <point x="390" y="385"/>
      <point x="432" y="511"/>
      <point x="537" y="511" type="curve" smooth="yes"/>
      <point x="623" y="511"/>
      <point x="686" y="414"/>
      <point x="686" y="251" type="curve" smooth="yes"/>
      <point x="686" y="129"/>
      <point x="656" y="54"/>
      <point x="615" y="10" type="curve"/>
      <point x="631" y="-10" type="line"/>
      <point x="678" y="40"/>
      <point x="712" y="119"/>
      <point x="712" y="251" type="curve" smooth="yes"/>
      <point x="712" y="429"/>
      <point x="639" y="536"/>
      <point x="537" y="536" type="curve" smooth="yes"/>
      <point x="439" y="536"/>
      <point x="377" y="435"/>
      <point x="377" y="319" type="curve"/>
      <point x="379" y="319" type="line"/>
      <point x="374" y="440"/>
      <point x="316" y="536"/>
      <point x="217" y="536" type="curve" smooth="yes"/>
      <point x="118" y="536"/>
      <point x="43" y="428"/>
      <point x="43" y="251" type="curve" smooth="yes"/>
      <point x="43" y="119"/>
      <point x="77" y="40"/>
    </contour>
    <contour>
      <point x="575" y="-468" type="line"/>
      <point x="679" y="-468" type="line"/>
      <point x="679" y="-443" type="line"/>
      <point x="588" y="-443" type="line"/>
      <point x="607" y="-415"/>
      <point x="636" y="-357"/>
      <point x="636" y="-262" type="curve" smooth="yes"/>
      <point x="636" y="-125"/>
      <point x="581" y="-49"/>
      <point x="503" y="-49" type="curve" smooth="yes"/>
      <point x="429" y="-49"/>
      <point x="377" y="-124"/>
      <point x="377" y="-213" type="curve"/>
      <point x="379" y="-214" type="line"/>
      <point x="378" y="-127"/>
      <point x="328" y="-49"/>
      <point x="254" y="-49" type="curve" smooth="yes"/>
      <point x="178" y="-49"/>
      <point x="121" y="-127"/>
      <point x="121" y="-250" type="curve" smooth="yes"/>
      <point x="121" y="-357"/>
      <point x="154" y="-422"/>
      <point x="184" y="-458" type="curve"/>
      <point x="203" y="-439" type="line"/>
      <point x="174" y="-400"/>
      <point x="147" y="-347"/>
      <point x="147" y="-250" type="curve" smooth="yes"/>
      <point x="147" y="-143"/>
      <point x="191" y="-74"/>
      <point x="254" y="-74" type="curve" smooth="yes"/>
      <point x="325" y="-74"/>
      <point x="365" y="-164"/>
      <point x="365" y="-301" type="curve" smooth="yes"/>
      <point x="365" y="-365" type="line"/>
      <point x="391" y="-365" type="line"/>
      <point x="391" y="-303" type="line" smooth="yes"/>
      <point x="391" y="-152"/>
      <point x="432" y="-74"/>
      <point x="503" y="-74" type="curve" smooth="yes"/>
      <point x="566" y="-74"/>
      <point x="610" y="-140"/>
      <point x="610" y="-262" type="curve" smooth="yes"/>
      <point x="610" y="-351"/>
      <point x="584" y="-405"/>
      <point x="556" y="-445" type="curve"/>
    </contour>
  </outline>
</glyph>
<glyph name="ii" format="2">
  <advance width="886"/>
  <unicode hex="1024"/>
  <note>
ii
</note>
  <outline>
    <contour>
      <point x="224" y="-467" type="curve" smooth="yes"/>
      <point x="548" y="-467" type="line" smooth="yes"/>
      <point x="632" y="-467"/>
      <point x="680" y="-400"/>
      <point x="680" y="-274" type="curve" smooth="yes"/>
      <point x="680" y="234" type="line" smooth="yes"/>
      <point x="680" y="430"/>
      <point x="623" y="536"/>
      <point x="523" y="536" type="curve" smooth="yes"/>
      <point x="454" y="536"/>
      <point x="406" y="496"/>
      <point x="370" y="421" type="curve"/>
      <point x="383" y="389" type="line"/>
      <point x="418" y="469"/>
      <point x="460" y="511"/>
      <point x="523" y="511" type="curve" smooth="yes"/>
      <point x="607" y="511"/>
      <point x="654" y="414"/>
      <point x="654" y="229" type="curve" smooth="yes"/>
      <point x="654" y="-274" type="line" smooth="yes"/>
      <point x="654" y="-382"/>
      <point x="619" y="-441"/>
      <point x="549" y="-441" type="curve" smooth="yes"/>
      <point x="226" y="-441" type="line" smooth="yes"/>
      <point x="125" y="-441"/>
      <point x="69" y="-401"/>
      <point x="69" y="-322" type="curve" smooth="yes"/>
      <point x="69" y="-230"/>
      <point x="133" y="-189"/>
      <point x="260" y="-189" type="curve" smooth="yes"/>
      <point x="358" y="-189"/>
      <point x="433" y="-229"/>
      <point x="488" y="-260" type="curve"/>
      <point x="501" y="-238" type="line"/>
      <point x="450" y="-209"/>
      <point x="369" y="-164"/>
      <point x="260" y="-164" type="curve" smooth="yes"/>
      <point x="118" y="-164"/>
      <point x="43" y="-216"/>
      <point x="43" y="-322" type="curve" smooth="yes"/>
      <point x="43" y="-409"/>
      <point x="104" y="-467"/>
    </contour>
    <contour>
      <point x="123" y="-10" type="curve"/>
      <point x="140" y="10" type="line"/>
      <point x="99" y="52"/>
      <point x="71" y="167"/>
      <point x="71" y="251" type="curve" smooth="yes"/>
      <point x="71" y="419"/>
      <point x="140" y="511"/>
      <point x="226" y="511" type="curve" smooth="yes"/>
      <point x="312" y="511"/>
      <point x="381" y="419"/>
      <point x="381" y="251" type="curve" smooth="yes"/>
      <point x="381" y="167"/>
      <point x="352" y="52"/>
      <point x="312" y="10" type="curve"/>
      <point x="328" y="-10" type="line"/>
      <point x="372" y="38"/>
      <point x="407" y="151"/>
      <point x="407" y="251" type="curve" smooth="yes"/>
      <point x="407" y="425"/>
      <point x="334" y="536"/>
      <point x="226" y="536" type="curve" smooth="yes"/>
      <point x="117" y="536"/>
      <point x="45" y="423"/>
      <point x="45" y="251" type="curve" smooth="yes"/>
      <point x="45" y="151"/>
      <point x="80" y="38"/>
    </contour>
    <contour>
      <point x="800" y="-468" type="line"/>
      <point x="826" y="-468" type="line"/>
      <point x="826" y="187" type="line" smooth="yes"/>
      <point x="826" y="419"/>
      <point x="795" y="525"/>
      <point x="706" y="629" type="curve" smooth="yes"/>
      <point x="637" y="710"/>
      <point x="619" y="768"/>
      <point x="619" y="835" type="curve" smooth="yes"/>
      <point x="619" y="915"/>
      <point x="656" y="979"/>
      <point x="722" y="979" type="curve" smooth="yes"/>
      <point x="765" y="979"/>
      <point x="801" y="958"/>
      <point x="818" y="903" type="curve"/>
      <point x="840" y="916" type="line"/>
      <point x="824" y="971"/>
      <point x="779" y="1004"/>
      <point x="721" y="1004" type="curve" smooth="yes"/>
      <point x="643" y="1004"/>
      <point x="593" y="931"/>
      <point x="593" y="835" type="curve" smooth="yes"/>
      <point x="593" y="751"/>
      <point x="623" y="687"/>
      <point x="688" y="611" type="curve" smooth="yes"/>
      <point x="770" y="515"/>
      <point x="800" y="415"/>
      <point x="800" y="194" type="curve" smooth="yes"/>
    </contour>
  </outline>
</glyph>
<glyph name="u_m" format="2">
  <advance width="449"/>
  <unicode hex="1025"/>
  <note>
u_m
</note>
  <outline>
    <contour>
      <point x="191" y="-468" type="curve" smooth="yes"/>
      <point x="277" y="-468" type="line" smooth="yes"/>
      <point x="361" y="-468"/>
      <point x="406" y="-420"/>
      <point x="406" y="-326" type="curve" smooth="yes"/>
      <point x="406" y="-245"/>
      <point x="368" y="-192"/>
      <point x="317" y="-192" type="curve" smooth="yes"/>
      <point x="276" y="-192"/>
      <point x="255" y="-213"/>
      <point x="228" y="-248" type="curve"/>
      <point x="248" y="-264" type="line"/>
      <point x="269" y="-235"/>
      <point x="287" y="-217"/>
      <point x="317" y="-217" type="curve" smooth="yes"/>
      <point x="354" y="-217"/>
      <point x="380" y="-261"/>
      <point x="380" y="-326" type="curve" smooth="yes"/>
      <point x="380" y="-406"/>
      <point x="344" y="-443"/>
      <point x="277" y="-443" type="curve" smooth="yes"/>
      <point x="192" y="-443" type="line" smooth="yes"/>
      <point x="122" y="-443"/>
      <point x="86" y="-388"/>
      <point x="86" y="-269" type="curve" smooth="yes"/>
      <point x="86" y="134" type="line"/>
      <point x="60" y="159" type="line"/>
      <point x="60" y="-269" type="line" smooth="yes"/>
      <point x="60" y="-398"/>
      <point x="101" y="-468"/>
    </contour>
    <contour>
      <point x="229" y="-10" type="curve" smooth="yes"/>
      <point x="341" y="-10"/>
      <point x="406" y="109"/>
      <point x="406" y="261" type="curve" smooth="yes"/>
      <point x="406" y="411"/>
      <point x="344" y="536"/>
      <point x="229" y="536" type="curve" smooth="yes"/>
      <point x="142" y="536"/>
      <point x="87" y="469"/>
      <point x="62" y="374" type="curve"/>
      <point x="85" y="363" type="line"/>
      <point x="109" y="454"/>
      <point x="158" y="511"/>
      <point x="229" y="511" type="curve" smooth="yes"/>
      <point x="326" y="511"/>
      <point x="380" y="397"/>
      <point x="380" y="261" type="curve" smooth="yes"/>
      <point x="380" y="108"/>
      <point x="315" y="15"/>
      <point x="229" y="15" type="curve" smooth="yes"/>
      <point x="158" y="15"/>
      <point x="104" y="74"/>
      <point x="82" y="170" type="curve"/>
      <point x="60" y="159" type="line"/>
      <point x="84" y="56"/>
      <point x="142" y="-10"/>
    </contour>
  </outline>
</glyph>
<glyph name="e_m" format="2">
  <advance width="434"/>
  <unicode hex="1027"/>
  <note>
e_m
</note>
  <outline>
    <contour>
      <point x="224" y="-10" type="curve" smooth="yes"/>
      <point x="300" y="-10"/>
      <point x="360" y="38"/>
      <point x="391" y="116" type="curve"/>
      <point x="356" y="178"/>
      <point x="300" y="217"/>
      <point x="227" y="217" type="curve" smooth="yes"/>
      <point x="167" y="217"/>
      <point x="118" y="181"/>
      <point x="86" y="139" type="curve"/>
      <point x="75" y="175"/>
      <point x="69" y="216"/>
      <point x="69" y="263" type="curve" smooth="yes"/>
      <point x="69" y="310"/>
      <point x="75" y="351"/>
      <point x="86" y="387" type="curve"/>
      <point x="118" y="345"/>
      <point x="167" y="309"/>
      <point x="227" y="309" type="curve" smooth="yes"/>
      <point x="300" y="309"/>
      <point x="356" y="348"/>
      <point x="391" y="410" type="curve"/>
      <point x="360" y="488"/>
      <point x="300" y="536"/>
      <point x="224" y="536" type="curve" smooth="yes"/>
      <point x="111" y="536"/>
      <point x="43" y="423"/>
      <point x="43" y="263" type="curve" smooth="yes"/>
      <point x="43" y="103"/>
      <point x="111" y="-10"/>
    </contour>
    <contour>
      <point x="224" y="15" type="curve" smooth="yes"/>
      <point x="167" y="15"/>
      <point x="122" y="51"/>
      <point x="96" y="113" type="curve"/>
      <point x="127" y="152"/>
      <point x="167" y="192"/>
      <point x="228" y="192" type="curve" smooth="yes"/>
      <point x="284" y="192"/>
      <point x="330" y="165"/>
      <point x="363" y="116" type="curve"/>
      <point x="333" y="51"/>
      <point x="284" y="15"/>
    </contour>
    <contour>
      <point x="228" y="334" type="curve" smooth="yes"/>
      <point x="167" y="334"/>
      <point x="127" y="374"/>
      <point x="96" y="413" type="curve"/>
      <point x="122" y="475"/>
      <point x="167" y="511"/>
      <point x="224" y="511" type="curve" smooth="yes"/>
      <point x="284" y="511"/>
      <point x="333" y="475"/>
      <point x="363" y="410" type="curve"/>
      <point x="330" y="361"/>
      <point x="284" y="334"/>
    </contour>
  </outline>
</glyph>
<glyph name="e_mon" format="2">
  <advance width="441"/>
  <unicode hex="1028"/>
  <note>
e_mon
</note>
  <outline>
    <contour>
      <point x="237" y="-467" type="curve" smooth="yes"/>
      <point x="349" y="-467"/>
      <point x="401" y="-348"/>
      <point x="401" y="-231" type="curve" smooth="yes"/>
      <point x="401" y="-200" type="line"/>
      <point x="375" y="-200" type="line"/>
      <point x="375" y="-231" type="line" smooth="yes"/>
      <point x="375" y="-337"/>
      <point x="332" y="-441"/>
      <point x="238" y="-441" type="curve" smooth="yes"/>
      <point x="137" y="-441"/>
      <point x="94" y="-327"/>
      <point x="94" y="-174" type="curve" smooth="yes"/>
      <point x="94" y="253" type="line" smooth="yes"/>
      <point x="94" y="405"/>
      <point x="139" y="521"/>
      <point x="231" y="521" type="curve" smooth="yes"/>
      <point x="324" y="521"/>
      <point x="375" y="417"/>
      <point x="375" y="275" type="curve" smooth="yes"/>
      <point x="375" y="122"/>
      <point x="334" y="15"/>
      <point x="282" y="15" type="curve" smooth="yes"/>
      <point x="260" y="15"/>
      <point x="247" y="31"/>
      <point x="247" y="64" type="curve" smooth="yes"/>
      <point x="247" y="93"/>
      <point x="256" y="114"/>
      <point x="271" y="145" type="curve" smooth="yes"/>
      <point x="279" y="162"/>
      <point x="300" y="199"/>
      <point x="300" y="246" type="curve" smooth="yes"/>
      <point x="300" y="296"/>
      <point x="278" y="329"/>
      <point x="240" y="329" type="curve" smooth="yes"/>
      <point x="197" y="329"/>
      <point x="182" y="292"/>
      <point x="168" y="251" type="curve"/>
      <point x="190" y="238" type="line"/>
      <point x="201" y="272"/>
      <point x="213" y="303"/>
      <point x="241" y="303" type="curve" smooth="yes"/>
      <point x="265" y="303"/>
      <point x="275" y="277"/>
      <point x="275" y="246" type="curve" smooth="yes"/>
      <point x="275" y="211"/>
      <point x="263" y="184"/>
      <point x="252" y="164" type="curve" smooth="yes"/>
      <point x="233" y="130"/>
      <point x="221" y="99"/>
      <point x="221" y="64" type="curve" smooth="yes"/>
      <point x="221" y="20"/>
      <point x="241" y="-10"/>
      <point x="282" y="-10" type="curve" smooth="yes"/>
      <point x="360" y="-10"/>
      <point x="401" y="117"/>
      <point x="401" y="275" type="curve" smooth="yes"/>
      <point x="401" y="429"/>
      <point x="341" y="546"/>
      <point x="230" y="546" type="curve" smooth="yes"/>
      <point x="119" y="546"/>
      <point x="68" y="419"/>
      <point x="68" y="253" type="curve" smooth="yes"/>
      <point x="68" y="-174" type="line" smooth="yes"/>
      <point x="68" y="-341"/>
      <point x="120" y="-467"/>
    </contour>
  </outline>
</glyph>
<glyph name="o_m" format="2">
  <advance width="920"/>
  <unicode hex="1029"/>
  <note>
o_m
</note>
  <outline>
    <contour>
      <point x="191" y="-468" type="curve" smooth="yes"/>
      <point x="735" y="-468" type="line" smooth="yes"/>
      <point x="823" y="-468"/>
      <point x="866" y="-401"/>
      <point x="866" y="-269" type="curve" smooth="yes"/>
      <point x="866" y="176" type="line"/>
      <point x="840" y="176" type="line"/>
      <point x="840" y="-269" type="line" smooth="yes"/>
      <point x="840" y="-383"/>
      <point x="808" y="-442"/>
      <point x="736" y="-442" type="curve" smooth="yes"/>
      <point x="191" y="-442" type="line" smooth="yes"/>
      <point x="121" y="-442"/>
      <point x="86" y="-388"/>
      <point x="86" y="-269" type="curve" smooth="yes"/>
      <point x="86" y="803" type="line" smooth="yes"/>
      <point x="86" y="922"/>
      <point x="121" y="976"/>
      <point x="191" y="976" type="curve" smooth="yes"/>
      <point x="736" y="976" type="line" smooth="yes"/>
      <point x="808" y="976"/>
      <point x="840" y="917"/>
      <point x="840" y="803" type="curve" smooth="yes"/>
      <point x="840" y="766" type="line"/>
      <point x="866" y="766" type="line"/>
      <point x="866" y="803" type="line" smooth="yes"/>
      <point x="866" y="932"/>
      <point x="825" y="1002"/>
      <point x="735" y="1002" type="curve" smooth="yes"/>
      <point x="191" y="1002" type="line" smooth="yes"/>
      <point x="102" y="1002"/>
      <point x="60" y="932"/>
      <point x="60" y="803" type="curve" smooth="yes"/>
      <point x="60" y="-269" type="line" smooth="yes"/>
      <point x="60" y="-398"/>
      <point x="101" y="-468"/>
    </contour>
    <contour>
      <point x="358" y="-10" type="curve" smooth="yes"/>
      <point x="470" y="-10"/>
      <point x="535" y="109"/>
      <point x="535" y="261" type="curve" smooth="yes"/>
      <point x="535" y="411"/>
      <point x="473" y="536"/>
      <point x="358" y="536" type="curve" smooth="yes"/>
      <point x="271" y="536"/>
      <point x="216" y="469"/>
      <point x="191" y="374" type="curve"/>
      <point x="214" y="363" type="line"/>
      <point x="238" y="454"/>
      <point x="287" y="511"/>
      <point x="358" y="511" type="curve" smooth="yes"/>
      <point x="455" y="511"/>
      <point x="509" y="397"/>
      <point x="509" y="261" type="curve" smooth="yes"/>
      <point x="509" y="108"/>
      <point x="444" y="15"/>
      <point x="358" y="15" type="curve" smooth="yes"/>
      <point x="287" y="15"/>
      <point x="233" y="74"/>
      <point x="211" y="170" type="curve"/>
      <point x="189" y="159" type="line"/>
      <point x="213" y="56"/>
      <point x="271" y="-10"/>
    </contour>
    <contour>
      <point x="701" y="-8" type="curve" smooth="yes"/>
      <point x="812" y="-8"/>
      <point x="877" y="109"/>
      <point x="877" y="277" type="curve" smooth="yes"/>
      <point x="877" y="438"/>
      <point x="807" y="536"/>
      <point x="704" y="536" type="curve" smooth="yes"/>
      <point x="664" y="536"/>
      <point x="635" y="531"/>
      <point x="608" y="516" type="curve"/>
      <point x="620" y="493" type="line"/>
      <point x="642" y="507"/>
      <point x="673" y="511"/>
      <point x="702" y="511" type="curve" smooth="yes"/>
      <point x="791" y="511"/>
      <point x="851" y="426"/>
      <point x="851" y="277" type="curve" smooth="yes"/>
      <point x="851" y="131"/>
      <point x="800" y="17"/>
      <point x="701" y="17" type="curve" smooth="yes"/>
      <point x="630" y="17"/>
      <point x="579" y="56"/>
      <point x="527" y="183" type="curve"/>
      <point x="515" y="151" type="line"/>
      <point x="557" y="45"/>
      <point x="616" y="-8"/>
    </contour>
  </outline>
</glyph>
<glyph name="_tall_aa" format="2">
  <advance width="146"/>
  <unicode hex="102B"/>
  <note>
_tall_aa
</note>
  <outline>
    <contour>
      <point x="60" y="0" type="line"/>
      <point x="86" y="0" type="line"/>
      <point x="86" y="807" type="line" smooth="yes"/>
      <point x="86" y="942"/>
      <point x="43" y="1002"/>
      <point x="-41" y="1002" type="curve" smooth="yes"/>
      <point x="-123" y="1002"/>
      <point x="-166" y="936"/>
      <point x="-166" y="832" type="curve" smooth="yes"/>
      <point x="-166" y="799" type="line"/>
      <point x="-140" y="799" type="line"/>
      <point x="-140" y="833" type="line" smooth="yes"/>
      <point x="-140" y="924"/>
      <point x="-106" y="977"/>
      <point x="-40" y="977" type="curve" smooth="yes"/>
      <point x="29" y="977"/>
      <point x="60" y="927"/>
      <point x="60" y="797" type="curve" smooth="yes"/>
    </contour>
  </outline>
</glyph>
<glyph name="_aa" format="2">
  <advance width="324"/>
  <unicode hex="102C"/>
  <note>
_aa
</note>
  <outline>
    <contour>
      <point x="110" y="-8" type="curve" smooth="yes"/>
      <point x="213" y="-8"/>
      <point x="282" y="90"/>
      <point x="282" y="251" type="curve" smooth="yes"/>
      <point x="282" y="410"/>
      <point x="225" y="536"/>
      <point x="103" y="536" type="curve" smooth="yes"/>
      <point x="10" y="536"/>
      <point x="-53" y="475"/>
      <point x="-95" y="409" type="curve"/>
      <point x="-84" y="381" type="line"/>
      <point x="-32" y="462"/>
      <point x="25" y="511"/>
      <point x="103" y="511" type="curve" smooth="yes"/>
      <point x="209" y="511"/>
      <point x="256" y="397"/>
      <point x="256" y="251" type="curve" smooth="yes"/>
      <point x="256" y="102"/>
      <point x="197" y="17"/>
      <point x="108" y="17" type="curve" smooth="yes"/>
      <point x="80" y="17"/>
      <point x="49" y="21"/>
      <point x="27" y="35" type="curve"/>
      <point x="15" y="12" type="line"/>
      <point x="43" y="-3"/>
      <point x="65" y="-8"/>
    </contour>
  </outline>
</glyph>
<glyph name="_i" format="2">
  <unicode hex="102D"/>
  <note>
_i
</note>
  <outline>
    <contour>
      <point x="-201" y="627" type="curve" smooth="yes"/>
      <point x="-121" y="627"/>
      <point x="-82" y="703"/>
      <point x="-82" y="811" type="curve" smooth="yes"/>
      <point x="-82" y="909"/>
      <point x="-120" y="997"/>
      <point x="-201" y="997" type="curve" smooth="yes"/>
      <point x="-272" y="997"/>
      <point x="-319" y="918"/>
      <point x="-319" y="811" type="curve" smooth="yes"/>
      <point x="-319" y="716"/>
      <point x="-282" y="627"/>
    </contour>
    <contour>
      <point x="-200" y="652" type="curve" smooth="yes"/>
      <point x="-265" y="652"/>
      <point x="-293" y="723"/>
      <point x="-293" y="811" type="curve" smooth="yes"/>
      <point x="-293" y="906"/>
      <point x="-257" y="972"/>
      <point x="-200" y="972" type="curve" smooth="yes"/>
      <point x="-137" y="972"/>
      <point x="-108" y="899"/>
      <point x="-108" y="811" type="curve" smooth="yes"/>
      <point x="-108" y="708"/>
      <point x="-144" y="652"/>
    </contour>
  </outline>
</glyph>
<glyph name="_ii" format="2">
  <unicode hex="102E"/>
  <note>
_ii
</note>
  <outline>
    <contour>
      <point x="-201" y="627" type="curve" smooth="yes"/>
      <point x="-125" y="627"/>
      <point x="-82" y="704"/>
      <point x="-82" y="811" type="curve" smooth="yes"/>
      <point x="-82" y="909"/>
      <point x="-120" y="997"/>
      <point x="-201" y="997" type="curve" smooth="yes"/>
      <point x="-272" y="997"/>
      <point x="-319" y="918"/>
      <point x="-319" y="811" type="curve" smooth="yes"/>
      <point x="-319" y="716"/>
      <point x="-282" y="627"/>
    </contour>
    <contour>
      <point x="-200" y="652" type="curve" smooth="yes"/>
      <point x="-266" y="652"/>
      <point x="-294" y="723"/>
      <point x="-294" y="811" type="curve" smooth="yes"/>
      <point x="-294" y="906"/>
      <point x="-258" y="972"/>
      <point x="-200" y="972" type="curve" smooth="yes"/>
      <point x="-136" y="972"/>
      <point x="-106" y="899"/>
      <point x="-106" y="811" type="curve" smooth="yes"/>
      <point x="-106" y="708"/>
      <point x="-143" y="652"/>
    </contour>
    <contour>
      <point x="-286" y="726" type="line"/>
      <point x="-260" y="761"/>
      <point x="-234" y="783"/>
      <point x="-201" y="783" type="curve" smooth="yes"/>
      <point x="-168" y="783"/>
      <point x="-141" y="761"/>
      <point x="-116" y="726" type="curve"/>
      <point x="-105" y="746" type="line"/>
      <point x="-131" y="779"/>
      <point x="-157" y="809"/>
      <point x="-201" y="809" type="curve" smooth="yes"/>
      <point x="-245" y="809"/>
      <point x="-272" y="779"/>
      <point x="-297" y="746" type="curve"/>
    </contour>
  </outline>
</glyph>
<glyph name="_u" format="2">
  <unicode hex="102F"/>
  <note>
_u
</note>
  <outline>
    <contour>
      <point x="-249" y="-468" type="line"/>
      <point x="-113" y="-468" type="line"/>
      <point x="-113" y="-443" type="line"/>
      <point x="-223" y="-443" type="line"/>
      <point x="-223" y="-51" type="line"/>
      <point x="-249" y="-51" type="line"/>
    </contour>
  </outline>
</glyph>
<glyph name="_uu" format="2">
  <unicode hex="1030"/>
  <note>
_uu
</note>
  <outline>
    <contour>
      <point x="-173" y="-468" type="line"/>
      <point x="-39" y="-468" type="line"/>
      <point x="-39" y="-442" type="line"/>
      <point x="-147" y="-442" type="line"/>
      <point x="-147" y="-51" type="line"/>
      <point x="-173" y="-51" type="line"/>
    </contour>
    <contour>
      <point x="-283" y="-468" type="line"/>
      <point x="-257" y="-468" type="line"/>
      <point x="-257" y="-51" type="line"/>
      <point x="-283" y="-51" type="line"/>
    </contour>
  </outline>
</glyph>
<glyph name="_ai" format="2">
  <unicode hex="1032"/>
  <note>
_ai
</note>
  <outline>
    <contour>
      <point x="-135" y="616" type="line"/>
      <point x="-115" y="632" type="line"/>
      <point x="-240" y="846" type="line"/>
      <point x="-262" y="832" type="line"/>
    </contour>
  </outline>
</glyph>
<glyph name="_ii_mon" format="2">
  <unicode hex="1033"/>
  <note>
_ii_mon
</note>
  <outline>
    <contour>
      <point x="-215" y="627" type="curve" smooth="yes"/>
      <point x="-137" y="627"/>
      <point x="-83" y="699"/>
      <point x="-83" y="812" type="curve" smooth="yes"/>
      <point x="-83" y="916"/>
      <point x="-139" y="995"/>
      <point x="-215" y="995" type="curve" smooth="yes"/>
      <point x="-294" y="995"/>
      <point x="-345" y="911"/>
      <point x="-345" y="812" type="curve" smooth="yes"/>
      <point x="-345" y="706"/>
      <point x="-292" y="627"/>
    </contour>
    <contour>
      <point x="-215" y="652" type="curve" smooth="yes"/>
      <point x="-274" y="652"/>
      <point x="-319" y="716"/>
      <point x="-319" y="812" type="curve" smooth="yes"/>
      <point x="-319" y="903"/>
      <point x="-274" y="969"/>
      <point x="-215" y="969" type="curve" smooth="yes"/>
      <point x="-152" y="969"/>
      <point x="-109" y="900"/>
      <point x="-109" y="812" type="curve" smooth="yes"/>
      <point x="-109" y="709"/>
      <point x="-154" y="652"/>
    </contour>
    <contour>
      <point x="-215" y="734" type="curve" smooth="yes"/>
      <point x="-182" y="734"/>
      <point x="-159" y="763"/>
      <point x="-159" y="812" type="curve" smooth="yes"/>
      <point x="-159" y="859"/>
      <point x="-183" y="889"/>
      <point x="-215" y="889" type="curve" smooth="yes"/>
      <point x="-246" y="889"/>
      <point x="-269" y="858"/>
      <point x="-269" y="812" type="curve" smooth="yes"/>
      <point x="-269" y="766"/>
      <point x="-244" y="734"/>
    </contour>
    <contour>
      <point x="-215" y="759" type="curve" smooth="yes"/>
      <point x="-231" y="759"/>
      <point x="-243" y="780"/>
      <point x="-243" y="812" type="curve" smooth="yes"/>
      <point x="-243" y="844"/>
      <point x="-229" y="864"/>
      <point x="-215" y="864" type="curve" smooth="yes"/>
      <point x="-197" y="864"/>
      <point x="-185" y="844"/>
      <point x="-185" y="812" type="curve" smooth="yes"/>
      <point x="-185" y="780"/>
      <point x="-196" y="759"/>
    </contour>
  </outline>
</glyph>
<glyph name="_o_mon" format="2">
  <unicode hex="1034"/>
  <note>
_o_mon
</note>
  <outline>
    <contour>
      <point x="-275" y="621" type="line"/>
      <point x="-155" y="833" type="line"/>
      <point x="-174" y="848" type="line"/>
      <point x="-293" y="642" type="line"/>
    </contour>
  </outline>
</glyph>
<glyph name="_e_above" format="2">
  <unicode hex="1035"/>
  <note>
_e_above
</note>
  <outline>
    <contour>
      <point x="-200" y="627" type="curve" smooth="yes"/>
      <point x="-145" y="627"/>
      <point x="-100" y="669"/>
      <point x="-81" y="740" type="curve"/>
      <point x="-111" y="780"/>
      <point x="-148" y="803"/>
      <point x="-195" y="803" type="curve" smooth="yes"/>
      <point x="-243" y="803"/>
      <point x="-279" y="780"/>
      <point x="-301" y="755" type="curve"/>
      <point x="-289" y="732" type="line"/>
      <point x="-268" y="754"/>
      <point x="-240" y="778"/>
      <point x="-195" y="778" type="curve" smooth="yes"/>
      <point x="-159" y="778"/>
      <point x="-132" y="760"/>
      <point x="-110" y="735" type="curve"/>
      <point x="-128" y="681"/>
      <point x="-161" y="652"/>
      <point x="-201" y="652" type="curve" smooth="yes"/>
      <point x="-261" y="652"/>
      <point x="-297" y="720"/>
      <point x="-297" y="812" type="curve" smooth="yes"/>
      <point x="-297" y="904"/>
      <point x="-260" y="972"/>
      <point x="-200" y="972" type="curve" smooth="yes"/>
      <point x="-151" y="972"/>
      <point x="-116" y="934"/>
      <point x="-102" y="875" type="curve"/>
      <point x="-79" y="888" type="line"/>
      <point x="-94" y="952"/>
      <point x="-141" y="997"/>
      <point x="-199" y="997" type="curve" smooth="yes"/>
      <point x="-277" y="997"/>
      <point x="-323" y="918"/>
      <point x="-323" y="812" type="curve" smooth="yes"/>
      <point x="-323" y="705"/>
      <point x="-276" y="627"/>
    </contour>
  </outline>
</glyph>
<glyph name="anusvara" format="2">
  <unicode hex="1036"/>
  <note>
anusvara
</note>
  <outline>
    <contour>
      <point x="-218" y="642" type="curve" smooth="yes"/>
      <point x="-179" y="642"/>
      <point x="-150" y="676"/>
      <point x="-150" y="735" type="curve" smooth="yes"/>
      <point x="-150" y="792"/>
      <point x="-179" y="826"/>
      <point x="-218" y="826" type="curve" smooth="yes"/>
      <point x="-258" y="826"/>
      <point x="-286" y="786"/>
      <point x="-286" y="734" type="curve" smooth="yes"/>
      <point x="-286" y="678"/>
      <point x="-258" y="642"/>
    </contour>
    <contour>
      <point x="-218" y="667" type="curve" smooth="yes"/>
      <point x="-245" y="667"/>
      <point x="-260" y="689"/>
      <point x="-260" y="734" type="curve" smooth="yes"/>
      <point x="-260" y="773"/>
      <point x="-244" y="801"/>
      <point x="-218" y="801" type="curve" smooth="yes"/>
      <point x="-193" y="801"/>
      <point x="-176" y="773"/>
      <point x="-176" y="734" type="curve" smooth="yes"/>
      <point x="-176" y="691"/>
      <point x="-193" y="667"/>
    </contour>
  </outline>
</glyph>
<glyph name="dot_below" format="2">
  <unicode hex="1037"/>
  <note>
dot_below
</note>
  <outline>
    <contour>
      <point x="-218" y="-337" type="curve" smooth="yes"/>
      <point x="-179" y="-337"/>
      <point x="-150" y="-303"/>
      <point x="-150" y="-244" type="curve" smooth="yes"/>
      <point x="-150" y="-187"/>
      <point x="-179" y="-153"/>
      <point x="-218" y="-153" type="curve" smooth="yes"/>
      <point x="-258" y="-153"/>
      <point x="-286" y="-193"/>
      <point x="-286" y="-245" type="curve" smooth="yes"/>
      <point x="-286" y="-301"/>
      <point x="-258" y="-337"/>
    </contour>
    <contour>
      <point x="-218" y="-312" type="curve" smooth="yes"/>
      <point x="-245" y="-312"/>
      <point x="-260" y="-290"/>
      <point x="-260" y="-245" type="curve" smooth="yes"/>
      <point x="-260" y="-206"/>
      <point x="-244" y="-178"/>
      <point x="-218" y="-178" type="curve" smooth="yes"/>
      <point x="-193" y="-178"/>
      <point x="-176" y="-206"/>
      <point x="-176" y="-245" type="curve" smooth="yes"/>
      <point x="-176" y="-288"/>
      <point x="-193" y="-312"/>
    </contour>
  </outline>
</glyph>
<glyph name="visarga" format="2">
  <advance width="214"/>
  <unicode hex="1038"/>
  <note>
visarga
</note>
  <outline>
    <contour>
      <point x="107" y="350" type="curve" smooth="yes"/>
      <point x="146" y="350"/>
      <point x="175" y="384"/>
      <point x="175" y="443" type="curve" smooth="yes"/>
      <point x="175" y="500"/>
      <point x="146" y="534"/>
      <point x="107" y="534" type="curve" smooth="yes"/>
      <point x="67" y="534"/>
      <point x="39" y="494"/>
      <point x="39" y="442" type="curve" smooth="yes"/>
      <point x="39" y="386"/>
      <point x="67" y="350"/>
    </contour>
    <contour>
      <point x="107" y="-13" type="curve" smooth="yes"/>
      <point x="146" y="-13"/>
      <point x="175" y="21"/>
      <point x="175" y="80" type="curve" smooth="yes"/>
      <point x="175" y="137"/>
      <point x="146" y="171"/>
      <point x="107" y="171" type="curve" smooth="yes"/>
      <point x="67" y="171"/>
      <point x="39" y="131"/>
      <point x="39" y="79" type="curve" smooth="yes"/>
      <point x="39" y="23"/>
      <point x="67" y="-13"/>
    </contour>
    <contour>
      <point x="107" y="12" type="curve" smooth="yes"/>
      <point x="80" y="12"/>
      <point x="65" y="34"/>
      <point x="65" y="79" type="curve" smooth="yes"/>
      <point x="65" y="118"/>
      <point x="81" y="146"/>
      <point x="107" y="146" type="curve" smooth="yes"/>
      <point x="132" y="146"/>
      <point x="149" y="118"/>
      <point x="149" y="79" type="curve" smooth="yes"/>
      <point x="149" y="36"/>
      <point x="132" y="12"/>
    </contour>
    <contour>
      <point x="107" y="375" type="curve" smooth="yes"/>
      <point x="80" y="375"/>
      <point x="65" y="397"/>
      <point x="65" y="442" type="curve" smooth="yes"/>
      <point x="65" y="481"/>
      <point x="81" y="509"/>
      <point x="107" y="509" type="curve" smooth="yes"/>
      <point x="132" y="509"/>
      <point x="149" y="481"/>
      <point x="149" y="442" type="curve" smooth="yes"/>
      <point x="149" y="399"/>
      <point x="132" y="375"/>
    </contour>
  </outline>
</glyph>
<glyph name="virama" format="2">
  <unicode hex="1039"/>
  <note>
virama
</note>
  <outline>
    <contour>
      <point x="-228" y="-394" type="line"/>
      <point x="-202" y="-394" type="line"/>
      <point x="-202" y="-259" type="line"/>
      <point x="-114" y="-259" type="line"/>
      <point x="-114" y="-234" type="line"/>
      <point x="-202" y="-234" type="line"/>
      <point x="-202" y="-98" type="line"/>
      <point x="-228" y="-98" type="line"/>
      <point x="-228" y="-234" type="line"/>
      <point x="-315" y="-234" type="line"/>
      <point x="-315" y="-259" type="line"/>
      <point x="-228" y="-259" type="line"/>
    </contour>
  </outline>
</glyph>
<glyph name="asat" format="2">
  <unicode hex="103A"/>
  <note>
asat
</note>
  <outline>
    <contour>
      <point x="-249" y="638" type="curve"/>
      <point x="-233" y="658" type="line"/>
      <point x="-270" y="697"/>
      <point x="-292" y="750"/>
      <point x="-292" y="819" type="curve" smooth="yes"/>
      <point x="-292" y="914"/>
      <point x="-255" y="972"/>
      <point x="-203" y="972" type="curve" smooth="yes"/>
      <point x="-165" y="972"/>
      <point x="-143" y="939"/>
      <point x="-127" y="899" type="curve"/>
      <point x="-105" y="914" type="line"/>
      <point x="-123" y="958"/>
      <point x="-153" y="997"/>
      <point x="-203" y="997" type="curve" smooth="yes"/>
      <point x="-268" y="997"/>
      <point x="-318" y="935"/>
      <point x="-318" y="819" type="curve" smooth="yes"/>
      <point x="-318" y="725"/>
      <point x="-281" y="673"/>
    </contour>
  </outline>
</glyph>
<glyph name="medial_ya" format="2">
  <advance width="146"/>
  <unicode hex="103B"/>
  <note>
medial_ya
</note>
  <outline>
    <contour>
      <point x="86" y="-458" type="line"/>
      <point x="86" y="516" type="line"/>
      <point x="60" y="516" type="line"/>
      <point x="60" y="-418" type="line"/>
      <point x="-79" y="-351" type="line"/>
      <point x="-79" y="96" type="line"/>
      <point x="-105" y="96" type="line"/>
      <point x="-105" y="-367" type="line"/>
    </contour>
  </outline>
</glyph>
<glyph name="medial_wa" format="2">
  <unicode hex="103D"/>
  <note>
medial_wa
</note>
  <outline>
    <contour>
      <point x="-182" y="-408" type="curve" smooth="yes"/>
      <point x="-106" y="-408"/>
      <point x="-69" y="-338"/>
      <point x="-69" y="-234" type="curve" smooth="yes"/>
      <point x="-69" y="-135"/>
      <point x="-103" y="-51"/>
      <point x="-183" y="-51" type="curve" smooth="yes"/>
      <point x="-258" y="-51"/>
      <point x="-296" y="-124"/>
      <point x="-296" y="-234" type="curve" smooth="yes"/>
      <point x="-296" y="-326"/>
      <point x="-263" y="-408"/>
    </contour>
    <contour>
      <point x="-181" y="-383" type="curve" smooth="yes"/>
      <point x="-243" y="-383"/>
      <point x="-270" y="-317"/>
      <point x="-270" y="-234" type="curve" smooth="yes"/>
      <point x="-270" y="-139"/>
      <point x="-241" y="-76"/>
      <point x="-183" y="-76" type="curve" smooth="yes"/>
      <point x="-122" y="-76"/>
      <point x="-95" y="-147"/>
      <point x="-95" y="-234" type="curve" smooth="yes"/>
      <point x="-95" y="-330"/>
      <point x="-128" y="-383"/>
    </contour>
  </outline>
</glyph>
<glyph name="medial_ha" format="2">
  <unicode hex="103E"/>
  <note>
medial_ha
</note>
  <outline>
    <contour>
      <point x="-322" y="-468" type="line"/>
      <point x="-188" y="-468" type="line"/>
      <point x="-188" y="-51" type="line"/>
      <point x="-214" y="-51" type="line"/>
      <point x="-214" y="-443" type="line"/>
      <point x="-322" y="-443" type="line"/>
    </contour>
  </outline>
</glyph>
<glyph name="great_sa" format="2">
  <advance width="1112"/>
  <unicode hex="103F"/>
  <note>
great_sa
</note>
  <outline>
    <contour>
      <point x="212" y="-10" type="curve" smooth="yes"/>
      <point x="324" y="-10"/>
      <point x="389" y="109"/>
      <point x="389" y="261" type="curve" smooth="yes"/>
      <point x="389" y="411"/>
      <point x="327" y="536"/>
      <point x="212" y="536" type="curve" smooth="yes"/>
      <point x="125" y="536"/>
      <point x="70" y="469"/>
      <point x="45" y="374" type="curve"/>
      <point x="68" y="363" type="line"/>
      <point x="92" y="454"/>
      <point x="141" y="511"/>
      <point x="212" y="511" type="curve" smooth="yes"/>
      <point x="309" y="511"/>
      <point x="363" y="397"/>
      <point x="363" y="261" type="curve" smooth="yes"/>
      <point x="363" y="108"/>
      <point x="298" y="15"/>
      <point x="212" y="15" type="curve" smooth="yes"/>
      <point x="141" y="15"/>
      <point x="87" y="74"/>
      <point x="65" y="170" type="curve"/>
      <point x="43" y="159" type="line"/>
      <point x="67" y="56"/>
      <point x="125" y="-10"/>
    </contour>
    <contour>
      <point x="554" y="-8" type="curve" smooth="yes"/>
      <point x="665" y="-8"/>
      <point x="730" y="109"/>
      <point x="730" y="277" type="curve" smooth="yes"/>
      <point x="730" y="438"/>
      <point x="660" y="536"/>
      <point x="557" y="536" type="curve" smooth="yes"/>
      <point x="517" y="536"/>
      <point x="488" y="531"/>
      <point x="461" y="516" type="curve"/>
      <point x="473" y="493" type="line"/>
      <point x="495" y="507"/>
      <point x="526" y="511"/>
      <point x="555" y="511" type="curve" smooth="yes"/>
      <point x="644" y="511"/>
      <point x="704" y="426"/>
      <point x="704" y="277" type="curve" smooth="yes"/>
      <point x="704" y="131"/>
      <point x="653" y="17"/>
      <point x="554" y="17" type="curve" smooth="yes"/>
      <point x="483" y="17"/>
      <point x="432" y="56"/>
      <point x="380" y="183" type="curve"/>
      <point x="368" y="151" type="line"/>
      <point x="410" y="45"/>
      <point x="469" y="-8"/>
    </contour>
    <contour>
      <point x="893" y="-8" type="curve" smooth="yes"/>
      <point x="1004" y="-8"/>
      <point x="1069" y="109"/>
      <point x="1069" y="277" type="curve" smooth="yes"/>
      <point x="1069" y="438"/>
      <point x="999" y="536"/>
      <point x="896" y="536" type="curve" smooth="yes"/>
      <point x="856" y="536"/>
      <point x="827" y="531"/>
      <point x="800" y="516" type="curve"/>
      <point x="812" y="493" type="line"/>
      <point x="834" y="507"/>
      <point x="865" y="511"/>
      <point x="894" y="511" type="curve" smooth="yes"/>
      <point x="983" y="511"/>
      <point x="1043" y="426"/>
      <point x="1043" y="277" type="curve" smooth="yes"/>
      <point x="1043" y="131"/>
      <point x="992" y="17"/>
      <point x="893" y="17" type="curve" smooth="yes"/>
      <point x="822" y="17"/>
      <point x="771" y="56"/>
      <point x="719" y="183" type="curve"/>
      <point x="707" y="151" type="line"/>
      <point x="749" y="45"/>
      <point x="808" y="-8"/>
    </contour>
  </outline>
</glyph>
<glyph name="zero_m" format="2">
  <advance width="444"/>
  <unicode hex="1040"/>
  <note>
zero_m
</note>
  <outline>
    <contour>
      <point x="220" y="-10" type="curve" smooth="yes"/>
      <point x="329" y="-10"/>
      <point x="401" y="102"/>
      <point x="401" y="261" type="curve" smooth="yes"/>
      <point x="401" y="414"/>
      <point x="333" y="536"/>
      <point x="220" y="536" type="curve" smooth="yes"/>
      <point x="105" y="536"/>
      <point x="43" y="408"/>
      <point x="43" y="261" type="curve" smooth="yes"/>
      <point x="43" y="110"/>
      <point x="108" y="-10"/>
    </contour>
    <contour>
      <point x="220" y="15" type="curve" smooth="yes"/>
      <point x="133" y="15"/>
      <point x="69" y="108"/>
      <point x="69" y="261" type="curve" smooth="yes"/>
      <point x="69" y="397"/>
      <point x="123" y="511"/>
      <point x="220" y="511" type="curve" smooth="yes"/>
      <point x="317" y="511"/>
      <point x="375" y="402"/>
      <point x="375" y="261" type="curve" smooth="yes"/>
      <point x="375" y="113"/>
      <point x="312" y="15"/>
    </contour>
  </outline>
</glyph>
<glyph name="one_m" format="2">
  <advance width="442"/>
  <unicode hex="1041"/>
  <note>
one_m
</note>
  <outline>
    <contour>
      <point x="217" y="-10" type="curve" smooth="yes"/>
      <point x="332" y="-10"/>
      <point x="399" y="109"/>
      <point x="399" y="261" type="curve" smooth="yes"/>
      <point x="399" y="411"/>
      <point x="335" y="536"/>
      <point x="217" y="536" type="curve" smooth="yes"/>
      <point x="127" y="536"/>
      <point x="71" y="469"/>
      <point x="45" y="374" type="curve"/>
      <point x="68" y="363" type="line"/>
      <point x="93" y="454"/>
      <point x="144" y="511"/>
      <point x="217" y="511" type="curve" smooth="yes"/>
      <point x="317" y="511"/>
      <point x="373" y="397"/>
      <point x="373" y="261" type="curve" smooth="yes"/>
      <point x="373" y="108"/>
      <point x="306" y="15"/>
      <point x="217" y="15" type="curve" smooth="yes"/>
      <point x="144" y="15"/>
      <point x="88" y="74"/>
      <point x="65" y="170" type="curve"/>
      <point x="43" y="159" type="line"/>
      <point x="68" y="56"/>
      <point x="127" y="-10"/>
    </contour>
  </outline>
</glyph>
<glyph name="two_m" format="2">
  <advance width="433"/>
  <unicode hex="1042"/>
  <note>
two_m
</note>
  <outline>
    <contour>
      <point x="204" y="-467" type="curve" smooth="yes"/>
      <point x="321" y="-467"/>
      <point x="373" y="-341"/>
      <point x="373" y="-174" type="curve" smooth="yes"/>
      <point x="373" y="526" type="line"/>
      <point x="347" y="526" type="line" smooth="yes"/>
      <point x="347" y="-174" type="line" smooth="yes"/>
      <point x="347" y="-327"/>
      <point x="304" y="-441"/>
      <point x="204" y="-441" type="curve" smooth="yes"/>
      <point x="109" y="-441"/>
      <point x="66" y="-337"/>
      <point x="66" y="-231" type="curve" smooth="yes"/>
      <point x="66" y="-200" type="line"/>
      <point x="40" y="-200" type="line"/>
      <point x="40" y="-231" type="line" smooth="yes"/>
      <point x="40" y="-348"/>
      <point x="92" y="-467"/>
    </contour>
  </outline>
</glyph>
<glyph name="three_m" format="2">
  <advance width="444"/>
  <unicode hex="1043"/>
  <note>
three_m
</note>
  <outline>
    <contour>
      <point x="275" y="-468" type="line"/>
      <point x="303" y="-468" type="line"/>
      <point x="187" y="-156" type="line" smooth="yes"/>
      <point x="162" y="-89"/>
      <point x="129" y="5"/>
      <point x="111" y="44" type="curve"/>
      <point x="106" y="41" type="line"/>
      <point x="134" y="6"/>
      <point x="173" y="-10"/>
      <point x="217" y="-10" type="curve" smooth="yes"/>
      <point x="332" y="-10"/>
      <point x="399" y="109"/>
      <point x="399" y="261" type="curve" smooth="yes"/>
      <point x="399" y="411"/>
      <point x="335" y="536"/>
      <point x="217" y="536" type="curve" smooth="yes"/>
      <point x="127" y="536"/>
      <point x="71" y="469"/>
      <point x="45" y="374" type="curve"/>
      <point x="68" y="363" type="line"/>
      <point x="93" y="454"/>
      <point x="144" y="511"/>
      <point x="217" y="511" type="curve" smooth="yes"/>
      <point x="317" y="511"/>
      <point x="373" y="397"/>
      <point x="373" y="261" type="curve" smooth="yes"/>
      <point x="373" y="108"/>
      <point x="306" y="15"/>
      <point x="217" y="15" type="curve" smooth="yes"/>
      <point x="146" y="15"/>
      <point x="103" y="68"/>
      <point x="66" y="170" type="curve"/>
      <point x="43" y="159" type="line"/>
    </contour>
  </outline>
</glyph>
<glyph name="four_m" format="2">
  <advance width="444"/>
  <unicode hex="1044"/>
  <note>
four_m
</note>
  <outline>
    <contour>
      <point x="139" y="-468" type="line"/>
      <point x="167" y="-468" type="line"/>
      <point x="399" y="159" type="line"/>
      <point x="376" y="170" type="line"/>
      <point x="339" y="68"/>
      <point x="296" y="15"/>
      <point x="225" y="15" type="curve" smooth="yes"/>
      <point x="136" y="15"/>
      <point x="69" y="108"/>
      <point x="69" y="261" type="curve" smooth="yes"/>
      <point x="69" y="397"/>
      <point x="125" y="511"/>
      <point x="225" y="511" type="curve" smooth="yes"/>
      <point x="298" y="511"/>
      <point x="349" y="454"/>
      <point x="374" y="363" type="curve"/>
      <point x="397" y="374" type="line"/>
      <point x="371" y="469"/>
      <point x="315" y="536"/>
      <point x="225" y="536" type="curve" smooth="yes"/>
      <point x="107" y="536"/>
      <point x="43" y="411"/>
      <point x="43" y="261" type="curve" smooth="yes"/>
      <point x="43" y="109"/>
      <point x="110" y="-10"/>
      <point x="225" y="-10" type="curve" smooth="yes"/>
      <point x="269" y="-10"/>
      <point x="308" y="6"/>
      <point x="336" y="41" type="curve"/>
      <point x="331" y="44" type="line"/>
      <point x="313" y="5"/>
      <point x="280" y="-89"/>
      <point x="255" y="-156" type="curve" smooth="yes"/>
    </contour>
  </outline>
</glyph>
<glyph name="five_m" format="2">
  <advance width="433"/>
  <unicode hex="1045"/>
  <note>
five_m
</note>
  <outline>
    <contour>
      <point x="204" y="-467" type="curve" smooth="yes"/>
      <point x="321" y="-467"/>
      <point x="373" y="-341"/>
      <point x="373" y="-174" type="curve" smooth="yes"/>
      <point x="373" y="279" type="line" smooth="yes"/>
      <point x="373" y="436"/>
      <point x="331" y="534"/>
      <point x="220" y="534" type="curve" smooth="yes"/>
      <point x="119" y="534"/>
      <point x="62" y="430"/>
      <point x="62" y="284" type="curve" smooth="yes"/>
      <point x="62" y="196"/>
      <point x="92" y="135"/>
      <point x="156" y="135" type="curve" smooth="yes"/>
      <point x="212" y="135"/>
      <point x="247" y="189"/>
      <point x="247" y="262" type="curve" smooth="yes"/>
      <point x="247" y="331"/>
      <point x="214" y="389"/>
      <point x="158" y="389" type="curve" smooth="yes"/>
      <point x="124" y="389"/>
      <point x="105" y="375"/>
      <point x="92" y="356" type="curve"/>
      <point x="108" y="431"/>
      <point x="139" y="508"/>
      <point x="219" y="508" type="curve" smooth="yes"/>
      <point x="317" y="508"/>
      <point x="347" y="417"/>
      <point x="347" y="279" type="curve" smooth="yes"/>
      <point x="347" y="-174" type="line" smooth="yes"/>
      <point x="347" y="-327"/>
      <point x="304" y="-441"/>
      <point x="203" y="-441" type="curve" smooth="yes"/>
      <point x="109" y="-441"/>
      <point x="66" y="-337"/>
      <point x="66" y="-231" type="curve" smooth="yes"/>
      <point x="66" y="-200" type="line"/>
      <point x="40" y="-200" type="line"/>
      <point x="40" y="-231" type="line" smooth="yes"/>
      <point x="40" y="-348"/>
      <point x="92" y="-467"/>
    </contour>
    <contour>
      <point x="155" y="160" type="curve" smooth="yes"/>
      <point x="111" y="160"/>
      <point x="90" y="207"/>
      <point x="90" y="262" type="curve" smooth="yes"/>
      <point x="90" y="319"/>
      <point x="110" y="364"/>
      <point x="155" y="364" type="curve" smooth="yes"/>
      <point x="200" y="364"/>
      <point x="221" y="315"/>
      <point x="221" y="262" type="curve" smooth="yes"/>
      <point x="221" y="202"/>
      <point x="197" y="160"/>
    </contour>
  </outline>
</glyph>
<glyph name="six_m" format="2">
  <advance width="475"/>
  <unicode hex="1046"/>
  <note>
six_m
</note>
  <outline>
    <contour>
      <point x="253" y="-10" type="curve" smooth="yes"/>
      <point x="378" y="-10"/>
      <point x="435" y="104"/>
      <point x="435" y="257" type="curve" smooth="yes"/>
      <point x="435" y="313"/>
      <point x="416" y="346"/>
      <point x="375" y="346" type="curve" smooth="yes"/>
      <point x="320" y="346"/>
      <point x="305" y="286"/>
      <point x="260" y="286" type="curve" smooth="yes"/>
      <point x="218" y="286"/>
      <point x="193" y="335"/>
      <point x="193" y="405" type="curve" smooth="yes"/>
      <point x="193" y="454"/>
      <point x="215" y="512"/>
      <point x="262" y="512" type="curve" smooth="yes"/>
      <point x="285" y="512"/>
      <point x="299" y="502"/>
      <point x="306" y="481" type="curve"/>
      <point x="328" y="494" type="line"/>
      <point x="315" y="525"/>
      <point x="296" y="537"/>
      <point x="262" y="537" type="curve" smooth="yes"/>
      <point x="198" y="537"/>
      <point x="167" y="468"/>
      <point x="167" y="405" type="curve" smooth="yes"/>
      <point x="167" y="324"/>
      <point x="199" y="261"/>
      <point x="260" y="261" type="curve" smooth="yes"/>
      <point x="319" y="261"/>
      <point x="333" y="320"/>
      <point x="374" y="320" type="curve" smooth="yes"/>
      <point x="404" y="320"/>
      <point x="409" y="292"/>
      <point x="409" y="257" type="curve" smooth="yes"/>
      <point x="409" y="114"/>
      <point x="359" y="15"/>
      <point x="254" y="15" type="curve" smooth="yes"/>
      <point x="144" y="15"/>
      <point x="86" y="111"/>
      <point x="86" y="276" type="curve" smooth="yes"/>
      <point x="86" y="676" type="line" smooth="yes"/>
      <point x="86" y="877"/>
      <point x="146" y="957"/>
      <point x="256" y="957" type="curve" smooth="yes"/>
      <point x="362" y="957"/>
      <point x="409" y="851"/>
      <point x="409" y="750" type="curve" smooth="yes"/>
      <point x="409" y="742" type="line"/>
      <point x="435" y="742" type="line"/>
      <point x="435" y="750" type="line" smooth="yes"/>
      <point x="435" y="868"/>
      <point x="376" y="982"/>
      <point x="256" y="982" type="curve" smooth="yes"/>
      <point x="129" y="982"/>
      <point x="60" y="890"/>
      <point x="60" y="676" type="curve" smooth="yes"/>
      <point x="60" y="276" type="line" smooth="yes"/>
      <point x="60" y="102"/>
      <point x="127" y="-10"/>
    </contour>
  </outline>
</glyph>
<glyph name="seven_m" format="2">
  <advance width="429"/>
  <unicode hex="1047"/>
  <note>
seven_m
</note>
  <outline>
    <contour>
      <point x="237" y="-458" type="curve" smooth="yes"/>
      <point x="280" y="-458"/>
      <point x="308" y="-434"/>
      <point x="325" y="-384" type="curve"/>
      <point x="305" y="-367" type="line"/>
      <point x="288" y="-415"/>
      <point x="270" y="-433"/>
      <point x="238" y="-433" type="curve" smooth="yes"/>
      <point x="193" y="-433"/>
      <point x="169" y="-395"/>
      <point x="169" y="-329" type="curve" smooth="yes"/>
      <point x="169" y="-253"/>
      <point x="200" y="-164"/>
      <point x="288" y="-7" type="curve" smooth="yes"/>
      <point x="353" y="108"/>
      <point x="397" y="190"/>
      <point x="397" y="306" type="curve" smooth="yes"/>
      <point x="397" y="440"/>
      <point x="331" y="536"/>
      <point x="222" y="536" type="curve" smooth="yes"/>
      <point x="96" y="536"/>
      <point x="37" y="431"/>
      <point x="37" y="271" type="curve" smooth="yes"/>
      <point x="37" y="151"/>
      <point x="79" y="80"/>
      <point x="118" y="50" type="curve"/>
      <point x="134" y="69" type="line"/>
      <point x="99" y="101"/>
      <point x="63" y="166"/>
      <point x="63" y="271" type="curve" smooth="yes"/>
      <point x="63" y="416"/>
      <point x="112" y="511"/>
      <point x="222" y="511" type="curve" smooth="yes"/>
      <point x="319" y="511"/>
      <point x="371" y="422"/>
      <point x="371" y="306" type="curve" smooth="yes"/>
      <point x="371" y="181"/>
      <point x="322" y="106"/>
      <point x="264" y="3" type="curve" smooth="yes"/>
      <point x="177" y="-151"/>
      <point x="143" y="-245"/>
      <point x="143" y="-329" type="curve" smooth="yes"/>
      <point x="143" y="-403"/>
      <point x="175" y="-458"/>
    </contour>
  </outline>
</glyph>
<glyph name="eight_m" format="2">
  <advance width="443"/>
  <unicode hex="1048"/>
  <note>
eight_m
</note>
  <outline>
    <contour>
      <point x="121" y="-12" type="curve"/>
      <point x="170" y="53"/>
      <point x="202" y="143"/>
      <point x="202" y="236" type="curve" smooth="yes"/>
      <point x="202" y="360"/>
      <point x="162" y="432"/>
      <point x="123" y="471" type="curve"/>
      <point x="107" y="452" type="line"/>
      <point x="142" y="411"/>
      <point x="176" y="354"/>
      <point x="176" y="236" type="curve" smooth="yes"/>
      <point x="176" y="157"/>
      <point x="152" y="80"/>
      <point x="120" y="32" type="curve"/>
      <point x="92" y="78"/>
      <point x="69" y="149"/>
      <point x="69" y="248" type="curve" smooth="yes"/>
      <point x="69" y="403"/>
      <point x="124" y="511"/>
      <point x="224" y="511" type="curve" smooth="yes"/>
      <point x="306" y="511"/>
      <point x="374" y="419"/>
      <point x="374" y="251" type="curve" smooth="yes"/>
      <point x="374" y="167"/>
      <point x="345" y="52"/>
      <point x="305" y="10" type="curve"/>
      <point x="321" y="-10" type="line"/>
      <point x="365" y="38"/>
      <point x="400" y="151"/>
      <point x="400" y="251" type="curve" smooth="yes"/>
      <point x="400" y="425"/>
      <point x="328" y="536"/>
      <point x="224" y="536" type="curve" smooth="yes"/>
      <point x="110" y="536"/>
      <point x="43" y="420"/>
      <point x="43" y="248" type="curve" smooth="yes"/>
      <point x="43" y="131"/>
      <point x="75" y="41"/>
    </contour>
  </outline>
</glyph>
<glyph name="nine_m" format="2">
  <advance width="475"/>
  <unicode hex="1049"/>
  <note>
nine_m
</note>
  <outline>
    <contour>
      <point x="251" y="-458" type="curve" smooth="yes"/>
      <point x="368" y="-458"/>
      <point x="435" y="-344"/>
      <point x="435" y="-226" type="curve" smooth="yes"/>
      <point x="435" y="-218" type="line"/>
      <point x="409" y="-218" type="line"/>
      <point x="409" y="-226" type="line" smooth="yes"/>
      <point x="409" y="-327"/>
      <point x="356" y="-432"/>
      <point x="251" y="-432" type="curve" smooth="yes"/>
      <point x="147" y="-432"/>
      <point x="86" y="-352"/>
      <point x="86" y="-152" type="curve" smooth="yes"/>
      <point x="86" y="248" type="line" smooth="yes"/>
      <point x="86" y="413"/>
      <point x="145" y="509"/>
      <point x="254" y="509" type="curve" smooth="yes"/>
      <point x="352" y="509"/>
      <point x="409" y="410"/>
      <point x="409" y="267" type="curve" smooth="yes"/>
      <point x="409" y="229"/>
      <point x="398" y="203"/>
      <point x="374" y="203" type="curve" smooth="yes"/>
      <point x="333" y="203"/>
      <point x="325" y="264"/>
      <point x="260" y="264" type="curve" smooth="yes"/>
      <point x="197" y="264"/>
      <point x="167" y="203"/>
      <point x="167" y="119" type="curve" smooth="yes"/>
      <point x="167" y="59"/>
      <point x="196" y="-13"/>
      <point x="262" y="-13" type="curve" smooth="yes"/>
      <point x="294" y="-13"/>
      <point x="315" y="6"/>
      <point x="327" y="30" type="curve"/>
      <point x="305" y="42" type="line"/>
      <point x="297" y="27"/>
      <point x="283" y="12"/>
      <point x="262" y="12" type="curve" smooth="yes"/>
      <point x="215" y="12"/>
      <point x="193" y="70"/>
      <point x="193" y="119" type="curve" smooth="yes"/>
      <point x="193" y="190"/>
      <point x="215" y="239"/>
      <point x="260" y="239" type="curve" smooth="yes"/>
      <point x="308" y="239"/>
      <point x="318" y="178"/>
      <point x="375" y="178" type="curve" smooth="yes"/>
      <point x="414" y="178"/>
      <point x="435" y="212"/>
      <point x="435" y="267" type="curve" smooth="yes"/>
      <point x="435" y="419"/>
      <point x="372" y="534"/>
      <point x="253" y="534" type="curve" smooth="yes"/>
      <point x="126" y="534"/>
      <point x="60" y="422"/>
      <point x="60" y="248" type="curve" smooth="yes"/>
      <point x="60" y="-152" type="line" smooth="yes"/>
      <point x="60" y="-365"/>
      <point x="131" y="-458"/>
    </contour>
  </outline>
</glyph>
<glyph name="little_section" format="2">
  <advance width="143"/>
  <unicode hex="104A"/>
  <note>
little_section
</note>
  <outline>
    <contour>
      <point x="59" y="0" type="line"/>
      <point x="85" y="0" type="line"/>
      <point x="85" y="526" type="line"/>
      <point x="59" y="526" type="line"/>
    </contour>
  </outline>
</glyph>
<glyph name="locative" format="2">
  <advance width="450"/>
  <unicode hex="104C"/>
  <note>
locative
</note>
  <outline>
    <contour>
      <point x="180" y="-469" type="curve" smooth="yes"/>
      <point x="249" y="-469" type="line" smooth="yes"/>
      <point x="339" y="-469"/>
      <point x="380" y="-399"/>
      <point x="380" y="-270" type="curve" smooth="yes"/>
      <point x="380" y="-50" type="line"/>
      <point x="333" y="-91"/>
      <point x="272" y="-116"/>
      <point x="222" y="-116" type="curve" smooth="yes"/>
      <point x="165" y="-116"/>
      <point x="121" y="-95"/>
      <point x="87" y="-58" type="curve"/>
      <point x="87" y="124" type="line"/>
      <point x="61" y="162" type="line"/>
      <point x="61" y="-66" type="line"/>
      <point x="100" y="-115"/>
      <point x="156" y="-141"/>
      <point x="216" y="-141" type="curve" smooth="yes"/>
      <point x="261" y="-141"/>
      <point x="317" y="-126"/>
      <point x="354" y="-100" type="curve"/>
      <point x="354" y="-271" type="line" smooth="yes"/>
      <point x="354" y="-390"/>
      <point x="318" y="-444"/>
      <point x="248" y="-444" type="curve" smooth="yes"/>
      <point x="180" y="-444" type="line" smooth="yes"/>
      <point x="113" y="-444"/>
      <point x="77" y="-407"/>
      <point x="77" y="-327" type="curve" smooth="yes"/>
      <point x="77" y="-262"/>
      <point x="103" y="-218"/>
      <point x="140" y="-218" type="curve" smooth="yes"/>
      <point x="170" y="-218"/>
      <point x="188" y="-236"/>
      <point x="209" y="-265" type="curve"/>
      <point x="229" y="-249" type="line"/>
      <point x="202" y="-214"/>
      <point x="181" y="-193"/>
      <point x="140" y="-193" type="curve" smooth="yes"/>
      <point x="89" y="-193"/>
      <point x="51" y="-246"/>
      <point x="51" y="-327" type="curve" smooth="yes"/>
      <point x="51" y="-421"/>
      <point x="96" y="-469"/>
    </contour>
    <contour>
      <point x="230" y="-7" type="curve" smooth="yes"/>
      <point x="342" y="-7"/>
      <point x="407" y="112"/>
      <point x="407" y="264" type="curve" smooth="yes"/>
      <point x="407" y="414"/>
      <point x="345" y="539"/>
      <point x="230" y="539" type="curve" smooth="yes"/>
      <point x="143" y="539"/>
      <point x="88" y="472"/>
      <point x="63" y="377" type="curve"/>
      <point x="86" y="366" type="line"/>
      <point x="110" y="457"/>
      <point x="159" y="514"/>
      <point x="230" y="514" type="curve" smooth="yes"/>
      <point x="327" y="514"/>
      <point x="381" y="400"/>
      <point x="381" y="264" type="curve" smooth="yes"/>
      <point x="381" y="111"/>
      <point x="316" y="18"/>
      <point x="230" y="18" type="curve" smooth="yes"/>
      <point x="159" y="18"/>
      <point x="105" y="77"/>
      <point x="83" y="173" type="curve"/>
      <point x="61" y="162" type="line"/>
      <point x="85" y="59"/>
      <point x="143" y="-7"/>
    </contour>
    <component base="asat" xOffset="445"/>
  </outline>
</glyph>
<glyph name="completed" format="2">
  <advance width="600"/>
  <unicode hex="104D"/>
  <note>
completed
</note>
  <outline>
    <contour>
      <point x="172" y="-468" type="curve" smooth="yes"/>
      <point x="409" y="-468" type="line" smooth="yes"/>
      <point x="499" y="-468"/>
      <point x="540" y="-398"/>
      <point x="540" y="-269" type="curve" smooth="yes"/>
      <point x="540" y="187" type="line" smooth="yes"/>
      <point x="540" y="419"/>
      <point x="509" y="525"/>
      <point x="420" y="629" type="curve" smooth="yes"/>
      <point x="351" y="710"/>
      <point x="333" y="768"/>
      <point x="333" y="835" type="curve" smooth="yes"/>
      <point x="333" y="915"/>
      <point x="370" y="979"/>
      <point x="436" y="979" type="curve" smooth="yes"/>
      <point x="479" y="979"/>
      <point x="515" y="958"/>
      <point x="532" y="903" type="curve"/>
      <point x="554" y="916" type="line"/>
      <point x="538" y="971"/>
      <point x="493" y="1004"/>
      <point x="435" y="1004" type="curve" smooth="yes"/>
      <point x="357" y="1004"/>
      <point x="307" y="931"/>
      <point x="307" y="835" type="curve" smooth="yes"/>
      <point x="307" y="751"/>
      <point x="337" y="687"/>
      <point x="402" y="611" type="curve" smooth="yes"/>
      <point x="484" y="515"/>
      <point x="514" y="415"/>
      <point x="514" y="194" type="curve" smooth="yes"/>
      <point x="514" y="-269" type="line" smooth="yes"/>
      <point x="514" y="-388"/>
      <point x="478" y="-443"/>
      <point x="408" y="-443" type="curve" smooth="yes"/>
      <point x="172" y="-443" type="line" smooth="yes"/>
      <point x="105" y="-443"/>
      <point x="69" y="-406"/>
      <point x="69" y="-326" type="curve" smooth="yes"/>
      <point x="69" y="-261"/>
      <point x="95" y="-217"/>
      <point x="132" y="-217" type="curve" smooth="yes"/>
      <point x="162" y="-217"/>
      <point x="180" y="-235"/>
      <point x="201" y="-264" type="curve"/>
      <point x="221" y="-248" type="line"/>
      <point x="194" y="-213"/>
      <point x="173" y="-192"/>
      <point x="132" y="-192" type="curve" smooth="yes"/>
      <point x="81" y="-192"/>
      <point x="43" y="-245"/>
      <point x="43" y="-326" type="curve" smooth="yes"/>
      <point x="43" y="-420"/>
      <point x="88" y="-468"/>
    </contour>
    <contour>
      <point x="368" y="-267" type="line"/>
      <point x="394" y="-267" type="line"/>
      <point x="394" y="261" type="line" smooth="yes"/>
      <point x="394" y="418"/>
      <point x="339" y="536"/>
      <point x="222" y="536" type="curve" smooth="yes"/>
      <point x="109" y="536"/>
      <point x="43" y="417"/>
      <point x="43" y="263" type="curve" smooth="yes"/>
      <point x="43" y="114"/>
      <point x="102" y="-10"/>
      <point x="215" y="-10" type="curve" smooth="yes"/>
      <point x="245" y="-10"/>
      <point x="273" y="0"/>
      <point x="289" y="8" type="curve"/>
      <point x="289" y="191"/>
      <point x="216" y="300"/>
      <point x="65" y="301" type="curve"/>
      <point x="62" y="276" type="line"/>
      <point x="204" y="276"/>
      <point x="261" y="177"/>
      <point x="263" y="19" type="curve"/>
      <point x="273" y="29" type="line"/>
      <point x="254" y="19"/>
      <point x="237" y="15"/>
      <point x="216" y="15" type="curve" smooth="yes"/>
      <point x="121" y="15"/>
      <point x="69" y="121"/>
      <point x="69" y="263" type="curve" smooth="yes"/>
      <point x="69" y="402"/>
      <point x="124" y="510"/>
      <point x="222" y="510" type="curve" smooth="yes"/>
      <point x="322" y="510"/>
      <point x="368" y="406"/>
      <point x="368" y="261" type="curve" smooth="yes"/>
    </contour>
  </outline>
</glyph>
<glyph name="aforementioned" format="2">
  <advance width="449"/>
  <unicode hex="104E"/>
  <note>
aforementioned
</note>
  <outline>
    <contour>
      <point x="220" y="-10" type="curve" smooth="yes"/>
      <point x="307" y="-10"/>
      <point x="365" y="56"/>
      <point x="389" y="159" type="curve"/>
      <point x="367" y="170" type="line"/>
      <point x="345" y="74"/>
      <point x="291" y="15"/>
      <point x="220" y="15" type="curve" smooth="yes"/>
      <point x="134" y="15"/>
      <point x="69" y="108"/>
      <point x="69" y="261" type="curve" smooth="yes"/>
      <point x="69" y="397"/>
      <point x="123" y="511"/>
      <point x="220" y="511" type="curve" smooth="yes"/>
      <point x="291" y="511"/>
      <point x="340" y="454"/>
      <point x="364" y="363" type="curve"/>
      <point x="387" y="374" type="line"/>
      <point x="362" y="469"/>
      <point x="307" y="536"/>
      <point x="220" y="536" type="curve" smooth="yes"/>
      <point x="105" y="536"/>
      <point x="43" y="411"/>
      <point x="43" y="261" type="curve" smooth="yes"/>
      <point x="43" y="109"/>
      <point x="108" y="-10"/>
    </contour>
    <contour>
      <point x="363" y="-458" type="line"/>
      <point x="389" y="-458" type="line"/>
      <point x="389" y="159" type="line"/>
      <point x="363" y="122" type="line"/>
    </contour>
  </outline>
</glyph>
<glyph name="genitive" format="2">
  <advance width="740"/>
  <unicode hex="104F"/>
  <note>
genitive
</note>
  <outline>
    <contour>
      <point x="668" y="0" type="line"/>
      <point x="694" y="0" type="line"/>
      <point x="694" y="379" type="line" smooth="yes"/>
      <point x="694" y="550"/>
      <point x="661" y="612"/>
      <point x="568" y="681" type="curve" smooth="yes"/>
      <point x="496" y="734"/>
      <point x="466" y="776"/>
      <point x="466" y="854" type="curve" smooth="yes"/>
      <point x="466" y="920"/>
      <point x="507" y="979"/>
      <point x="569" y="979" type="curve" smooth="yes"/>
      <point x="624" y="979"/>
      <point x="643" y="946"/>
      <point x="661" y="900" type="curve"/>
      <point x="684" y="911" type="line"/>
      <point x="666" y="964"/>
      <point x="636" y="1004"/>
      <point x="568" y="1004" type="curve" smooth="yes"/>
      <point x="493" y="1004"/>
      <point x="440" y="936"/>
      <point x="440" y="854" type="curve" smooth="yes"/>
      <point x="440" y="759"/>
      <point x="480" y="718"/>
      <point x="557" y="658" type="curve" smooth="yes"/>
      <point x="640" y="594"/>
      <point x="668" y="538"/>
      <point x="668" y="379" type="curve" smooth="yes"/>
    </contour>
    <contour>
      <point x="522" y="0" type="line"/>
      <point x="548" y="0" type="line"/>
      <point x="548" y="404" type="line" smooth="yes"/>
      <point x="548" y="493"/>
      <point x="514" y="536"/>
      <point x="459" y="536" type="curve" smooth="yes"/>
      <point x="401" y="536"/>
      <point x="377" y="480"/>
      <point x="370" y="436" type="curve"/>
      <point x="391" y="410" type="line"/>
      <point x="396" y="455"/>
      <point x="413" y="511"/>
      <point x="459" y="511" type="curve" smooth="yes"/>
      <point x="497" y="511"/>
      <point x="522" y="480"/>
      <point x="522" y="404" type="curve" smooth="yes"/>
    </contour>
    <component base="e_m"/>
  </outline>
</glyph>
<glyph name="sha_skt" format="2">
  <advance width="448"/>
  <unicode hex="1050"/>
  <note>
sha_skt
</note>
  <outline>
    <contour>
      <point x="225" y="225" type="curve" smooth="yes"/>
      <point x="243" y="225"/>
      <point x="248" y="239"/>
      <point x="248" y="256" type="curve" smooth="yes"/>
      <point x="248" y="272"/>
      <point x="243" y="287"/>
      <point x="225" y="287" type="curve" smooth="yes"/>
      <point x="209" y="287"/>
      <point x="203" y="272"/>
      <point x="203" y="256" type="curve" smooth="yes"/>
      <point x="203" y="239"/>
      <point x="209" y="225"/>
    </contour>
    <component base="ga"/>
  </outline>
</glyph>
<glyph name="ssa_skt" format="2">
  <advance width="449"/>
  <unicode hex="1051"/>
  <note>
ssa_skt
</note>
  <outline>
    <contour>
      <point x="224" y="-10" type="curve" smooth="yes"/>
      <point x="332" y="-10"/>
      <point x="405" y="101"/>
      <point x="405" y="275" type="curve" smooth="yes"/>
      <point x="405" y="375"/>
      <point x="370" y="488"/>
      <point x="326" y="536" type="curve"/>
      <point x="310" y="516" type="line"/>
      <point x="350" y="474"/>
      <point x="379" y="359"/>
      <point x="379" y="275" type="curve" smooth="yes"/>
      <point x="379" y="107"/>
      <point x="310" y="15"/>
      <point x="224" y="15" type="curve" smooth="yes"/>
      <point x="138" y="15"/>
      <point x="69" y="107"/>
      <point x="69" y="275" type="curve" smooth="yes"/>
      <point x="69" y="359"/>
      <point x="97" y="474"/>
      <point x="138" y="516" type="curve"/>
      <point x="121" y="536" type="line"/>
      <point x="78" y="488"/>
      <point x="43" y="375"/>
      <point x="43" y="275" type="curve" smooth="yes"/>
      <point x="43" y="103"/>
      <point x="115" y="-10"/>
    </contour>
    <contour>
      <point x="225" y="239" type="curve" smooth="yes"/>
      <point x="243" y="239"/>
      <point x="248" y="254"/>
      <point x="248" y="270" type="curve" smooth="yes"/>
      <point x="248" y="287"/>
      <point x="243" y="301"/>
      <point x="225" y="301" type="curve" smooth="yes"/>
      <point x="209" y="301"/>
      <point x="203" y="287"/>
      <point x="203" y="270" type="curve" smooth="yes"/>
      <point x="203" y="254"/>
      <point x="209" y="239"/>
    </contour>
  </outline>
</glyph>
<glyph name="vocR_skt" format="2">
  <advance width="441"/>
  <unicode hex="1052"/>
  <note>
vocR_skt
</note>
  <outline>
    <contour>
      <point x="227" y="-10" type="curve" smooth="yes"/>
      <point x="332" y="-10"/>
      <point x="395" y="81"/>
      <point x="395" y="204" type="curve" smooth="yes"/>
      <point x="395" y="280"/>
      <point x="372" y="330"/>
      <point x="335" y="381" type="curve" smooth="yes"/>
      <point x="313" y="411"/>
      <point x="304" y="439"/>
      <point x="304" y="460" type="curve" smooth="yes"/>
      <point x="304" y="489"/>
      <point x="316" y="509"/>
      <point x="338" y="509" type="curve" smooth="yes"/>
      <point x="356" y="509"/>
      <point x="372" y="494"/>
      <point x="383" y="471" type="curve"/>
      <point x="400" y="489" type="line"/>
      <point x="387" y="519"/>
      <point x="366" y="534"/>
      <point x="337" y="534" type="curve" smooth="yes"/>
      <point x="301" y="534"/>
      <point x="279" y="501"/>
      <point x="279" y="460" type="curve" smooth="yes"/>
      <point x="279" y="430"/>
      <point x="286" y="407"/>
      <point x="316" y="364" type="curve" smooth="yes"/>
      <point x="350" y="315"/>
      <point x="369" y="276"/>
      <point x="369" y="204" type="curve" smooth="yes"/>
      <point x="369" y="92"/>
      <point x="317" y="15"/>
      <point x="226" y="15" type="curve" smooth="yes"/>
      <point x="138" y="15"/>
      <point x="69" y="109"/>
      <point x="69" y="275" type="curve" smooth="yes"/>
      <point x="69" y="371"/>
      <point x="97" y="465"/>
      <point x="139" y="516" type="curve"/>
      <point x="123" y="536" type="line"/>
      <point x="78" y="479"/>
      <point x="43" y="387"/>
      <point x="43" y="275" type="curve" smooth="yes"/>
      <point x="43" y="101"/>
      <point x="118" y="-10"/>
    </contour>
  </outline>
</glyph>
<glyph name="vocRR_skt" format="2">
  <advance width="441"/>
  <unicode hex="1053"/>
  <note>
vocRR_skt
</note>
  <outline>
    <contour>
      <point x="221" y="-10" type="curve" smooth="yes"/>
      <point x="330" y="-10"/>
      <point x="395" y="81"/>
      <point x="395" y="204" type="curve" smooth="yes"/>
      <point x="395" y="280"/>
      <point x="372" y="330"/>
      <point x="335" y="381" type="curve" smooth="yes"/>
      <point x="313" y="411"/>
      <point x="304" y="439"/>
      <point x="304" y="460" type="curve" smooth="yes"/>
      <point x="304" y="489"/>
      <point x="316" y="509"/>
      <point x="338" y="509" type="curve" smooth="yes"/>
      <point x="357" y="509"/>
      <point x="373" y="491"/>
      <point x="383" y="471" type="curve"/>
      <point x="400" y="489" type="line"/>
      <point x="388" y="514"/>
      <point x="366" y="534"/>
      <point x="337" y="534" type="curve" smooth="yes"/>
      <point x="301" y="534"/>
      <point x="279" y="501"/>
      <point x="279" y="460" type="curve" smooth="yes"/>
      <point x="279" y="430"/>
      <point x="286" y="407"/>
      <point x="316" y="364" type="curve" smooth="yes"/>
      <point x="350" y="315"/>
      <point x="369" y="276"/>
      <point x="369" y="204" type="curve" smooth="yes"/>
      <point x="369" y="92"/>
      <point x="316" y="15"/>
      <point x="220" y="15" type="curve" smooth="yes"/>
      <point x="125" y="15"/>
      <point x="72" y="92"/>
      <point x="72" y="204" type="curve" smooth="yes"/>
      <point x="72" y="276"/>
      <point x="91" y="315"/>
      <point x="125" y="364" type="curve" smooth="yes"/>
      <point x="155" y="407"/>
      <point x="162" y="430"/>
      <point x="162" y="460" type="curve" smooth="yes"/>
      <point x="162" y="501"/>
      <point x="140" y="534"/>
      <point x="104" y="534" type="curve" smooth="yes"/>
      <point x="75" y="534"/>
      <point x="54" y="514"/>
      <point x="41" y="489" type="curve"/>
      <point x="58" y="471" type="line"/>
      <point x="69" y="493"/>
      <point x="86" y="509"/>
      <point x="103" y="509" type="curve" smooth="yes"/>
      <point x="125" y="509"/>
      <point x="137" y="489"/>
      <point x="137" y="460" type="curve" smooth="yes"/>
      <point x="137" y="439"/>
      <point x="128" y="411"/>
      <point x="106" y="381" type="curve" smooth="yes"/>
      <point x="69" y="330"/>
      <point x="46" y="280"/>
      <point x="46" y="204" type="curve" smooth="yes"/>
      <point x="46" y="81"/>
      <point x="111" y="-10"/>
    </contour>
  </outline>
</glyph>
<glyph name="vocL_skt" format="2">
  <advance width="437"/>
  <unicode hex="1054"/>
  <note>
vocL_skt
</note>
  <outline>
    <contour>
      <point x="231" y="-10" type="curve" smooth="yes"/>
      <point x="323" y="-10"/>
      <point x="372" y="56"/>
      <point x="394" y="151" type="curve"/>
      <point x="371" y="163" type="line"/>
      <point x="352" y="76"/>
      <point x="310" y="15"/>
      <point x="230" y="15" type="curve" smooth="yes"/>
      <point x="130" y="15"/>
      <point x="69" y="124"/>
      <point x="69" y="265" type="curve" smooth="yes"/>
      <point x="69" y="413"/>
      <point x="131" y="511"/>
      <point x="219" y="511" type="curve" smooth="yes"/>
      <point x="286" y="511"/>
      <point x="334" y="466"/>
      <point x="364" y="385" type="curve"/>
      <point x="331" y="336"/>
      <point x="285" y="309"/>
      <point x="230" y="309" type="curve" smooth="yes"/>
      <point x="161" y="309"/>
      <point x="115" y="352"/>
      <point x="81" y="391" type="curve"/>
      <point x="66" y="372" type="line"/>
      <point x="100" y="327"/>
      <point x="157" y="284"/>
      <point x="229" y="284" type="curve" smooth="yes"/>
      <point x="301" y="284"/>
      <point x="357" y="323"/>
      <point x="390" y="381" type="curve"/>
      <point x="361" y="479"/>
      <point x="302" y="536"/>
      <point x="219" y="536" type="curve" smooth="yes"/>
      <point x="112" y="536"/>
      <point x="43" y="423"/>
      <point x="43" y="265" type="curve" smooth="yes"/>
      <point x="43" y="113"/>
      <point x="112" y="-10"/>
    </contour>
  </outline>
</glyph>
<glyph name="vocLL_skt" format="2">
  <advance width="437"/>
  <unicode hex="1055"/>
  <note>
vocLL_skt
</note>
  <outline>
    <contour>
      <point x="160" y="-11" type="curve" smooth="yes"/>
      <point x="197" y="-11"/>
      <point x="219" y="12"/>
      <point x="234" y="53" type="curve"/>
      <point x="228" y="50" type="line"/>
      <point x="238" y="22"/>
      <point x="262" y="-11"/>
      <point x="307" y="-11" type="curve" smooth="yes"/>
      <point x="354" y="-11"/>
      <point x="387" y="24"/>
      <point x="394" y="109" type="curve"/>
      <point x="368" y="114" type="line"/>
      <point x="362" y="33"/>
      <point x="337" y="15"/>
      <point x="306" y="15" type="curve" smooth="yes"/>
      <point x="271" y="15"/>
      <point x="243" y="50"/>
      <point x="243" y="108" type="curve" smooth="yes"/>
      <point x="243" y="122" type="line"/>
      <point x="217" y="122" type="line"/>
      <point x="217" y="108" type="line" smooth="yes"/>
      <point x="217" y="65"/>
      <point x="201" y="15"/>
      <point x="161" y="15" type="curve" smooth="yes"/>
      <point x="93" y="15"/>
      <point x="69" y="128"/>
      <point x="69" y="253" type="curve" smooth="yes"/>
      <point x="69" y="413"/>
      <point x="130" y="511"/>
      <point x="216" y="511" type="curve" smooth="yes"/>
      <point x="282" y="511"/>
      <point x="329" y="466"/>
      <point x="358" y="385" type="curve"/>
      <point x="326" y="336"/>
      <point x="281" y="309"/>
      <point x="227" y="309" type="curve" smooth="yes"/>
      <point x="159" y="309"/>
      <point x="114" y="352"/>
      <point x="81" y="391" type="curve"/>
      <point x="66" y="372" type="line"/>
      <point x="99" y="327"/>
      <point x="155" y="284"/>
      <point x="226" y="284" type="curve" smooth="yes"/>
      <point x="297" y="284"/>
      <point x="352" y="323"/>
      <point x="384" y="381" type="curve"/>
      <point x="356" y="479"/>
      <point x="298" y="536"/>
      <point x="216" y="536" type="curve" smooth="yes"/>
      <point x="111" y="536"/>
      <point x="43" y="423"/>
      <point x="43" y="253" type="curve" smooth="yes"/>
      <point x="43" y="98"/>
      <point x="79" y="-11"/>
    </contour>
  </outline>
</glyph>
<glyph name="_vocR_skt" format="2">
  <advance width="234"/>
  <unicode hex="1056"/>
  <note>
_vocR_skt
</note>
  <outline>
    <contour>
      <point x="51" y="-10" type="curve" smooth="yes"/>
      <point x="140" y="-10"/>
      <point x="197" y="63"/>
      <point x="197" y="148" type="curve" smooth="yes"/>
      <point x="197" y="231"/>
      <point x="167" y="261"/>
      <point x="107" y="323" type="curve" smooth="yes"/>
      <point x="71" y="361"/>
      <point x="49" y="393"/>
      <point x="49" y="445" type="curve" smooth="yes"/>
      <point x="49" y="476"/>
      <point x="65" y="513"/>
      <point x="99" y="513" type="curve" smooth="yes"/>
      <point x="121" y="513"/>
      <point x="135" y="506"/>
      <point x="154" y="473" type="curve"/>
      <point x="174" y="489" type="line"/>
      <point x="154" y="522"/>
      <point x="134" y="538"/>
      <point x="99" y="538" type="curve" smooth="yes"/>
      <point x="50" y="538"/>
      <point x="23" y="491"/>
      <point x="23" y="445" type="curve" smooth="yes"/>
      <point x="23" y="382"/>
      <point x="49" y="345"/>
      <point x="94" y="300" type="curve" smooth="yes"/>
      <point x="152" y="241"/>
      <point x="171" y="210"/>
      <point x="171" y="148" type="curve" smooth="yes"/>
      <point x="171" y="76"/>
      <point x="124" y="15"/>
      <point x="51" y="15" type="curve" smooth="yes"/>
      <point x="-9" y="15"/>
      <point x="-50" y="49"/>
      <point x="-72" y="115" type="curve"/>
      <point x="-95" y="103" type="line"/>
      <point x="-73" y="35"/>
      <point x="-21" y="-10"/>
    </contour>
  </outline>
</glyph>
<glyph name="_vocRR_skt" format="2">
  <advance width="242"/>
  <unicode hex="1057"/>
  <note>
_vocRR_skt
</note>
  <outline>
    <contour>
      <point x="-11" y="-11" type="curve" smooth="yes"/>
      <point x="29" y="-11"/>
      <point x="50" y="17"/>
      <point x="63" y="53" type="curve"/>
      <point x="53" y="59" type="line"/>
      <point x="68" y="11"/>
      <point x="94" y="-10"/>
      <point x="132" y="-10" type="curve" smooth="yes"/>
      <point x="185" y="-10"/>
      <point x="211" y="52"/>
      <point x="211" y="127" type="curve" smooth="yes"/>
      <point x="211" y="223"/>
      <point x="181" y="261"/>
      <point x="121" y="323" type="curve" smooth="yes"/>
      <point x="85" y="361"/>
      <point x="63" y="393"/>
      <point x="63" y="445" type="curve" smooth="yes"/>
      <point x="63" y="476"/>
      <point x="79" y="513"/>
      <point x="113" y="513" type="curve" smooth="yes"/>
      <point x="135" y="513"/>
      <point x="149" y="506"/>
      <point x="168" y="473" type="curve"/>
      <point x="188" y="489" type="line"/>
      <point x="168" y="522"/>
      <point x="148" y="538"/>
      <point x="113" y="538" type="curve" smooth="yes"/>
      <point x="64" y="538"/>
      <point x="37" y="491"/>
      <point x="37" y="445" type="curve" smooth="yes"/>
      <point x="37" y="382"/>
      <point x="63" y="345"/>
      <point x="108" y="300" type="curve" smooth="yes"/>
      <point x="166" y="241"/>
      <point x="185" y="202"/>
      <point x="185" y="127" type="curve" smooth="yes"/>
      <point x="185" y="72"/>
      <point x="171" y="15"/>
      <point x="131" y="15" type="curve" smooth="yes"/>
      <point x="89" y="15"/>
      <point x="72" y="65"/>
      <point x="72" y="108" type="curve" smooth="yes"/>
      <point x="72" y="122" type="line"/>
      <point x="46" y="122" type="line"/>
      <point x="46" y="108" type="line" smooth="yes"/>
      <point x="46" y="49"/>
      <point x="21" y="14"/>
      <point x="-10" y="14" type="curve" smooth="yes"/>
      <point x="-41" y="14"/>
      <point x="-63" y="32"/>
      <point x="-69" y="114" type="curve"/>
      <point x="-95" y="109" type="line"/>
      <point x="-88" y="24"/>
      <point x="-57" y="-11"/>
    </contour>
  </outline>
</glyph>
<glyph name="_vocL_skt" format="2">
  <unicode hex="1058"/>
  <note>
_vocL_skt
</note>
  <outline>
    <contour>
      <point x="-218" y="-460" type="curve" smooth="yes"/>
      <point x="-152" y="-460"/>
      <point x="-115" y="-413"/>
      <point x="-95" y="-339" type="curve"/>
      <point x="-118" y="-327" type="line"/>
      <point x="-134" y="-391"/>
      <point x="-165" y="-435"/>
      <point x="-219" y="-435" type="curve" smooth="yes"/>
      <point x="-289" y="-435"/>
      <point x="-329" y="-356"/>
      <point x="-329" y="-253" type="curve" smooth="yes"/>
      <point x="-329" y="-151"/>
      <point x="-289" y="-76"/>
      <point x="-224" y="-76" type="curve" smooth="yes"/>
      <point x="-181" y="-76"/>
      <point x="-145" y="-109"/>
      <point x="-127" y="-166" type="curve"/>
      <point x="-148" y="-196"/>
      <point x="-178" y="-218"/>
      <point x="-209" y="-218" type="curve" smooth="yes"/>
      <point x="-266" y="-218"/>
      <point x="-297" y="-182"/>
      <point x="-319" y="-146" type="curve"/>
      <point x="-334" y="-170" type="line"/>
      <point x="-309" y="-207"/>
      <point x="-270" y="-243"/>
      <point x="-210" y="-243" type="curve" smooth="yes"/>
      <point x="-168" y="-243"/>
      <point x="-131" y="-215"/>
      <point x="-98" y="-171" type="curve"/>
      <point x="-119" y="-95"/>
      <point x="-165" y="-51"/>
      <point x="-223" y="-51" type="curve" smooth="yes"/>
      <point x="-305" y="-51"/>
      <point x="-355" y="-136"/>
      <point x="-355" y="-253" type="curve" smooth="yes"/>
      <point x="-355" y="-368"/>
      <point x="-305" y="-460"/>
    </contour>
  </outline>
</glyph>
<glyph name="_vocLL_skt" format="2">
  <unicode hex="1059"/>
  <note>
_vocLL_skt
</note>
  <outline>
    <contour>
      <point x="-265" y="-460" type="curve" smooth="yes"/>
      <point x="-238" y="-460"/>
      <point x="-218" y="-445"/>
      <point x="-210" y="-415" type="curve"/>
      <point x="-216" y="-418" type="line"/>
      <point x="-208" y="-439"/>
      <point x="-189" y="-460"/>
      <point x="-155" y="-460" type="curve" smooth="yes"/>
      <point x="-119" y="-460"/>
      <point x="-96" y="-432"/>
      <point x="-91" y="-368" type="curve"/>
      <point x="-117" y="-364" type="line"/>
      <point x="-121" y="-419"/>
      <point x="-134" y="-435"/>
      <point x="-158" y="-435" type="curve" smooth="yes"/>
      <point x="-184" y="-435"/>
      <point x="-200" y="-411"/>
      <point x="-200" y="-369" type="curve" smooth="yes"/>
      <point x="-200" y="-358" type="line"/>
      <point x="-226" y="-358" type="line"/>
      <point x="-226" y="-369" type="line" smooth="yes"/>
      <point x="-226" y="-400"/>
      <point x="-236" y="-435"/>
      <point x="-265" y="-435" type="curve" smooth="yes"/>
      <point x="-311" y="-435"/>
      <point x="-327" y="-353"/>
      <point x="-327" y="-263" type="curve" smooth="yes"/>
      <point x="-327" y="-147"/>
      <point x="-280" y="-76"/>
      <point x="-213" y="-76" type="curve" smooth="yes"/>
      <point x="-169" y="-76"/>
      <point x="-130" y="-115"/>
      <point x="-115" y="-166" type="curve"/>
      <point x="-136" y="-194"/>
      <point x="-168" y="-218"/>
      <point x="-203" y="-218" type="curve" smooth="yes"/>
      <point x="-263" y="-218"/>
      <point x="-294" y="-182"/>
      <point x="-317" y="-146" type="curve"/>
      <point x="-331" y="-169" type="line"/>
      <point x="-308" y="-209"/>
      <point x="-265" y="-243"/>
      <point x="-203" y="-243" type="curve" smooth="yes"/>
      <point x="-160" y="-243"/>
      <point x="-120" y="-215"/>
      <point x="-86" y="-171" type="curve"/>
      <point x="-107" y="-95"/>
      <point x="-156" y="-51"/>
      <point x="-213" y="-51" type="curve" smooth="yes"/>
      <point x="-299" y="-51"/>
      <point x="-353" y="-137"/>
      <point x="-353" y="-263" type="curve" smooth="yes"/>
      <point x="-353" y="-384"/>
      <point x="-325" y="-460"/>
    </contour>
  </outline>
</glyph>
<glyph name="nga_mon" format="2">
  <advance width="432"/>
  <unicode hex="105A"/>
  <note>
nga_mon
</note>
  <outline>
    <contour>
      <point x="220" y="-10" type="curve" smooth="yes"/>
      <point x="307" y="-10"/>
      <point x="365" y="56"/>
      <point x="389" y="159" type="curve"/>
      <point x="367" y="170" type="line"/>
      <point x="345" y="74"/>
      <point x="291" y="15"/>
      <point x="220" y="15" type="curve" smooth="yes"/>
      <point x="134" y="15"/>
      <point x="69" y="108"/>
      <point x="69" y="261" type="curve" smooth="yes"/>
      <point x="69" y="397"/>
      <point x="123" y="511"/>
      <point x="220" y="511" type="curve" smooth="yes"/>
      <point x="291" y="511"/>
      <point x="340" y="454"/>
      <point x="364" y="363" type="curve"/>
      <point x="387" y="374" type="line"/>
      <point x="362" y="469"/>
      <point x="307" y="536"/>
      <point x="220" y="536" type="curve" smooth="yes"/>
      <point x="105" y="536"/>
      <point x="43" y="411"/>
      <point x="43" y="261" type="curve" smooth="yes"/>
      <point x="43" y="109"/>
      <point x="108" y="-10"/>
    </contour>
    <contour>
      <point x="267" y="-458" type="curve" smooth="yes"/>
      <point x="289" y="-458"/>
      <point x="305" y="-449"/>
      <point x="314" y="-440" type="curve"/>
      <point x="301" y="-419" type="line"/>
      <point x="293" y="-425"/>
      <point x="283" y="-433"/>
      <point x="267" y="-433" type="curve" smooth="yes"/>
      <point x="244" y="-433"/>
      <point x="231" y="-411"/>
      <point x="231" y="-383" type="curve" smooth="yes"/>
      <point x="231" y="-355"/>
      <point x="237" y="-332"/>
      <point x="268" y="-285" type="curve" smooth="yes"/>
      <point x="292" y="-249"/>
      <point x="309" y="-215"/>
      <point x="309" y="-169" type="curve" smooth="yes"/>
      <point x="309" y="-103"/>
      <point x="276" y="-49"/>
      <point x="216" y="-49" type="curve" smooth="yes"/>
      <point x="160" y="-49"/>
      <point x="125" y="-100"/>
      <point x="124" y="-169" type="curve"/>
      <point x="150" y="-169" type="line"/>
      <point x="151" y="-112"/>
      <point x="176" y="-74"/>
      <point x="217" y="-74" type="curve" smooth="yes"/>
      <point x="259" y="-74"/>
      <point x="283" y="-116"/>
      <point x="283" y="-169" type="curve" smooth="yes"/>
      <point x="283" y="-203"/>
      <point x="272" y="-234"/>
      <point x="251" y="-264" type="curve" smooth="yes"/>
      <point x="210" y="-322"/>
      <point x="205" y="-355"/>
      <point x="205" y="-383" type="curve" smooth="yes"/>
      <point x="205" y="-423"/>
      <point x="228" y="-458"/>
    </contour>
  </outline>
</glyph>
<glyph name="jha_mon" format="2">
  <advance width="571"/>
  <unicode hex="105B"/>
  <note>
jha_mon
</note>
  <outline>
    <contour>
      <point x="220" y="-10" type="curve" smooth="yes"/>
      <point x="287" y="-10"/>
      <point x="340" y="34"/>
      <point x="371" y="105" type="curve"/>
      <point x="351" y="120" type="line"/>
      <point x="324" y="54"/>
      <point x="278" y="15"/>
      <point x="220" y="15" type="curve" smooth="yes"/>
      <point x="131" y="15"/>
      <point x="69" y="108"/>
      <point x="69" y="261" type="curve" smooth="yes"/>
      <point x="69" y="397"/>
      <point x="124" y="511"/>
      <point x="238" y="511" type="curve" smooth="yes"/>
      <point x="249" y="511"/>
      <point x="257" y="511"/>
      <point x="272" y="508" type="curve"/>
      <point x="270" y="512" type="line"/>
      <point x="238" y="497"/>
      <point x="213" y="452"/>
      <point x="213" y="394" type="curve" smooth="yes"/>
      <point x="213" y="331"/>
      <point x="242" y="272"/>
      <point x="300" y="272" type="curve" smooth="yes"/>
      <point x="328" y="272"/>
      <point x="360" y="288"/>
      <point x="374" y="331" type="curve"/>
      <point x="364" y="310" type="line"/>
      <point x="364" y="212"/>
      <point x="392" y="175"/>
      <point x="451" y="175" type="curve" smooth="yes"/>
      <point x="498" y="175" type="line"/>
      <point x="498" y="201" type="line"/>
      <point x="456" y="201" type="line" smooth="yes"/>
      <point x="399" y="201"/>
      <point x="389" y="238"/>
      <point x="389" y="323" type="curve" smooth="yes"/>
      <point x="389" y="343"/>
      <point x="389" y="353"/>
      <point x="389" y="381" type="curve" smooth="yes"/>
      <point x="389" y="489"/>
      <point x="355" y="536"/>
      <point x="237" y="536" type="curve" smooth="yes"/>
      <point x="106" y="536"/>
      <point x="43" y="408"/>
      <point x="43" y="261" type="curve" smooth="yes"/>
      <point x="43" y="109"/>
      <point x="105" y="-10"/>
    </contour>
    <contour>
      <point x="401" y="-465" type="curve" smooth="yes"/>
      <point x="488" y="-465"/>
      <point x="511" y="-392"/>
      <point x="511" y="-204" type="curve" smooth="yes"/>
      <point x="511" y="524" type="line"/>
      <point x="485" y="524" type="line"/>
      <point x="485" y="-204" type="line" smooth="yes"/>
      <point x="485" y="-369"/>
      <point x="472" y="-439"/>
      <point x="402" y="-439" type="curve" smooth="yes"/>
      <point x="343" y="-439"/>
      <point x="316" y="-384"/>
      <point x="316" y="-204" type="curve" smooth="yes"/>
      <point x="316" y="37" type="line"/>
      <point x="290" y="24" type="line"/>
      <point x="290" y="-204" type="line" smooth="yes"/>
      <point x="290" y="-398"/>
      <point x="327" y="-465"/>
    </contour>
    <contour>
      <point x="301" y="297" type="curve" smooth="yes"/>
      <point x="259" y="297"/>
      <point x="239" y="342"/>
      <point x="239" y="394" type="curve" smooth="yes"/>
      <point x="239" y="450"/>
      <point x="267" y="499"/>
      <point x="305" y="499" type="curve" smooth="yes"/>
      <point x="343" y="499"/>
      <point x="363" y="455"/>
      <point x="363" y="386" type="curve" smooth="yes"/>
      <point x="363" y="338"/>
      <point x="335" y="297"/>
    </contour>
  </outline>
</glyph>
<glyph name="bba_mon" format="2">
  <advance width="444"/>
  <unicode hex="105C"/>
  <note>
bba_mon
</note>
  <outline>
    <contour>
      <point x="220" y="-10" type="curve" smooth="yes"/>
      <point x="329" y="-10"/>
      <point x="401" y="102"/>
      <point x="401" y="261" type="curve" smooth="yes"/>
      <point x="401" y="414"/>
      <point x="333" y="536"/>
      <point x="220" y="536" type="curve" smooth="yes"/>
      <point x="105" y="536"/>
      <point x="43" y="408"/>
      <point x="43" y="261" type="curve" smooth="yes"/>
      <point x="43" y="110"/>
      <point x="108" y="-10"/>
    </contour>
    <contour>
      <point x="220" y="15" type="curve" smooth="yes"/>
      <point x="133" y="15"/>
      <point x="69" y="108"/>
      <point x="69" y="261" type="curve" smooth="yes"/>
      <point x="69" y="397"/>
      <point x="123" y="511"/>
      <point x="220" y="511" type="curve" smooth="yes"/>
      <point x="317" y="511"/>
      <point x="375" y="402"/>
      <point x="375" y="261" type="curve" smooth="yes"/>
      <point x="375" y="113"/>
      <point x="312" y="15"/>
    </contour>
    <contour>
      <point x="223" y="168" type="curve" smooth="yes"/>
      <point x="265" y="168"/>
      <point x="293" y="210"/>
      <point x="293" y="264" type="curve" smooth="yes"/>
      <point x="293" y="318"/>
      <point x="265" y="360"/>
      <point x="223" y="360" type="curve" smooth="yes"/>
      <point x="178" y="360"/>
      <point x="151" y="315"/>
      <point x="151" y="264" type="curve" smooth="yes"/>
      <point x="151" y="213"/>
      <point x="178" y="168"/>
    </contour>
    <contour>
      <point x="223" y="193" type="curve" smooth="yes"/>
      <point x="193" y="193"/>
      <point x="177" y="226"/>
      <point x="177" y="264" type="curve" smooth="yes"/>
      <point x="177" y="302"/>
      <point x="193" y="335"/>
      <point x="223" y="335" type="curve" smooth="yes"/>
      <point x="250" y="335"/>
      <point x="267" y="305"/>
      <point x="267" y="264" type="curve" smooth="yes"/>
      <point x="267" y="223"/>
      <point x="250" y="193"/>
    </contour>
  </outline>
</glyph>
<glyph name="bbe_mon" format="2">
  <advance width="448"/>
  <unicode hex="105D"/>
  <note>
bbe_mon
</note>
  <outline>
    <contour>
      <point x="172" y="-468" type="curve" smooth="yes"/>
      <point x="251" y="-468" type="line" smooth="yes"/>
      <point x="341" y="-468"/>
      <point x="382" y="-398"/>
      <point x="382" y="-269" type="curve" smooth="yes"/>
      <point x="382" y="132" type="line"/>
      <point x="356" y="93" type="line"/>
      <point x="356" y="-269" type="line" smooth="yes"/>
      <point x="356" y="-388"/>
      <point x="320" y="-443"/>
      <point x="250" y="-443" type="curve" smooth="yes"/>
      <point x="172" y="-443" type="line" smooth="yes"/>
      <point x="105" y="-443"/>
      <point x="69" y="-406"/>
      <point x="69" y="-326" type="curve" smooth="yes"/>
      <point x="69" y="-261"/>
      <point x="95" y="-217"/>
      <point x="132" y="-217" type="curve" smooth="yes"/>
      <point x="162" y="-217"/>
      <point x="180" y="-235"/>
      <point x="201" y="-264" type="curve"/>
      <point x="221" y="-248" type="line"/>
      <point x="194" y="-213"/>
      <point x="173" y="-192"/>
      <point x="132" y="-192" type="curve" smooth="yes"/>
      <point x="81" y="-192"/>
      <point x="43" y="-245"/>
      <point x="43" y="-326" type="curve" smooth="yes"/>
      <point x="43" y="-420"/>
      <point x="88" y="-468"/>
    </contour>
    <contour>
      <point x="90" y="117" type="line"/>
      <point x="121" y="192"/>
      <point x="170" y="224"/>
      <point x="224" y="224" type="curve" smooth="yes"/>
      <point x="281" y="224"/>
      <point x="327" y="182"/>
      <point x="354" y="117" type="curve"/>
      <point x="371" y="137" type="line"/>
      <point x="347" y="201"/>
      <point x="290" y="249"/>
      <point x="224" y="249" type="curve" smooth="yes"/>
      <point x="162" y="249"/>
      <point x="104" y="213"/>
      <point x="73" y="137" type="curve"/>
    </contour>
    <contour>
      <point x="224" y="-10" type="curve" smooth="yes"/>
      <point x="328" y="-10"/>
      <point x="405" y="104"/>
      <point x="405" y="275" type="curve" smooth="yes"/>
      <point x="405" y="375"/>
      <point x="370" y="488"/>
      <point x="326" y="536" type="curve"/>
      <point x="310" y="516" type="line"/>
      <point x="350" y="474"/>
      <point x="379" y="359"/>
      <point x="379" y="275" type="curve" smooth="yes"/>
      <point x="379" y="107"/>
      <point x="310" y="15"/>
      <point x="224" y="15" type="curve" smooth="yes"/>
      <point x="138" y="15"/>
      <point x="69" y="107"/>
      <point x="69" y="275" type="curve" smooth="yes"/>
      <point x="69" y="359"/>
      <point x="97" y="474"/>
      <point x="138" y="516" type="curve"/>
      <point x="121" y="536" type="line"/>
      <point x="78" y="488"/>
      <point x="43" y="375"/>
      <point x="43" y="275" type="curve" smooth="yes"/>
      <point x="43" y="104"/>
      <point x="120" y="-10"/>
    </contour>
  </outline>
</glyph>
<glyph name="_medialNa_mon" format="2">
  <unicode hex="105E"/>
  <note>
_medialNa_mon
</note>
  <outline>
    <contour>
      <point x="-290" y="-458" type="curve" smooth="yes"/>
      <point x="-237" y="-458"/>
      <point x="-202" y="-406"/>
      <point x="-202" y="-320" type="curve" smooth="yes"/>
      <point x="-202" y="-33" type="line"/>
      <point x="-228" y="-33" type="line"/>
      <point x="-228" y="-320" type="line" smooth="yes"/>
      <point x="-228" y="-394"/>
      <point x="-252" y="-433"/>
      <point x="-290" y="-433" type="curve" smooth="yes"/>
      <point x="-324" y="-433"/>
      <point x="-352" y="-396"/>
      <point x="-352" y="-329" type="curve" smooth="yes"/>
      <point x="-352" y="-261"/>
      <point x="-318" y="-208"/>
      <point x="-231" y="-208" type="curve" smooth="yes"/>
      <point x="-176" y="-208"/>
      <point x="-141" y="-233"/>
      <point x="-101" y="-270" type="curve"/>
      <point x="-88" y="-248" type="line"/>
      <point x="-132" y="-207"/>
      <point x="-174" y="-183"/>
      <point x="-231" y="-183" type="curve" smooth="yes"/>
      <point x="-330" y="-183"/>
      <point x="-378" y="-245"/>
      <point x="-378" y="-329" type="curve" smooth="yes"/>
      <point x="-378" y="-405"/>
      <point x="-341" y="-458"/>
    </contour>
  </outline>
</glyph>
<glyph name="_medialMa_mon" format="2">
  <unicode hex="105F"/>
  <note>
_medialMa_mon
</note>
  <outline>
    <contour>
      <point x="-225" y="-458" type="curve" smooth="yes"/>
      <point x="-158" y="-458"/>
      <point x="-107" y="-432"/>
      <point x="-63" y="-386" type="curve"/>
      <point x="-78" y="-365" type="line"/>
      <point x="-125" y="-415"/>
      <point x="-172" y="-433"/>
      <point x="-224" y="-433" type="curve" smooth="yes"/>
      <point x="-284" y="-433"/>
      <point x="-338" y="-402"/>
      <point x="-338" y="-317" type="curve" smooth="yes"/>
      <point x="-338" y="-244"/>
      <point x="-290" y="-201"/>
      <point x="-215" y="-201" type="curve" smooth="yes"/>
      <point x="-204" y="-201"/>
      <point x="-196" y="-202"/>
      <point x="-187" y="-203" type="curve"/>
      <point x="-187" y="-33" type="line"/>
      <point x="-213" y="-33" type="line"/>
      <point x="-213" y="-176" type="line"/>
      <point x="-306" y="-176"/>
      <point x="-364" y="-231"/>
      <point x="-364" y="-317" type="curve" smooth="yes"/>
      <point x="-364" y="-414"/>
      <point x="-299" y="-458"/>
    </contour>
  </outline>
</glyph>
<glyph name="_medialLa_mon" format="2">
  <unicode hex="1060"/>
  <note>
_medialLa_mon
</note>
  <outline>
    <contour>
      <point x="-338" y="-468" type="line"/>
      <point x="-85" y="-468" type="line"/>
      <point x="-85" y="-443" type="line"/>
      <point x="-302" y="-443" type="line"/>
      <point x="-162" y="-51" type="line"/>
      <point x="-189" y="-51" type="line"/>
    </contour>
  </outline>
</glyph>
<glyph name="hathi_skn" format="2">
  <advance width="449"/>
  <unicode hex="1063"/>
  <note>
hathi_skn
</note>
  <outline>
    <contour>
      <point x="60" y="-458" type="line"/>
      <point x="86" y="-458" type="line"/>
      <point x="86" y="122" type="line"/>
      <point x="60" y="159" type="line"/>
    </contour>
    <contour>
      <point x="229" y="-10" type="curve" smooth="yes"/>
      <point x="341" y="-10"/>
      <point x="406" y="109"/>
      <point x="406" y="261" type="curve" smooth="yes"/>
      <point x="406" y="411"/>
      <point x="344" y="536"/>
      <point x="229" y="536" type="curve" smooth="yes"/>
      <point x="142" y="536"/>
      <point x="87" y="469"/>
      <point x="62" y="374" type="curve"/>
      <point x="85" y="363" type="line"/>
      <point x="109" y="454"/>
      <point x="158" y="511"/>
      <point x="229" y="511" type="curve" smooth="yes"/>
      <point x="326" y="511"/>
      <point x="380" y="397"/>
      <point x="380" y="261" type="curve" smooth="yes"/>
      <point x="380" y="108"/>
      <point x="315" y="15"/>
      <point x="229" y="15" type="curve" smooth="yes"/>
      <point x="158" y="15"/>
      <point x="104" y="74"/>
      <point x="82" y="170" type="curve"/>
      <point x="60" y="159" type="line"/>
      <point x="84" y="56"/>
      <point x="142" y="-10"/>
    </contour>
  </outline>
</glyph>
<glyph name="kepho_skn" format="2">
  <advance width="259"/>
  <unicode hex="1064"/>
  <note>
kepho_skn
</note>
  <outline>
    <contour>
      <point x="116" y="0" type="line"/>
      <point x="235" y="0" type="line"/>
      <point x="235" y="25" type="line"/>
      <point x="143" y="25" type="line"/>
      <point x="143" y="526" type="line"/>
      <point x="24" y="526" type="line"/>
      <point x="24" y="501" type="line"/>
      <point x="116" y="501" type="line"/>
    </contour>
  </outline>
</glyph>
<glyph name="tha_wpk" format="2">
  <advance width="445"/>
  <unicode hex="1065"/>
  <note>
tha_wpk
</note>
  <outline>
    <contour>
      <point x="220" y="-10" type="curve" smooth="yes"/>
      <point x="333" y="-10"/>
      <point x="402" y="111"/>
      <point x="402" y="261" type="curve" smooth="yes"/>
      <point x="402" y="408"/>
      <point x="335" y="536"/>
      <point x="220" y="536" type="curve" smooth="yes"/>
      <point x="135" y="536"/>
      <point x="72" y="469"/>
      <point x="45" y="374" type="curve"/>
      <point x="67" y="364" type="line"/>
      <point x="91" y="451"/>
      <point x="145" y="510"/>
      <point x="220" y="510" type="curve" smooth="yes"/>
      <point x="320" y="510"/>
      <point x="376" y="396"/>
      <point x="376" y="261" type="curve" smooth="yes"/>
      <point x="376" y="109"/>
      <point x="310" y="16"/>
      <point x="220" y="16" type="curve" smooth="yes"/>
      <point x="145" y="16"/>
      <point x="88" y="75"/>
      <point x="65" y="170" type="curve"/>
      <point x="43" y="159" type="line"/>
      <point x="68" y="57"/>
      <point x="134" y="-10"/>
    </contour>
  </outline>
</glyph>
<glyph name="pwa_wpk" format="2">
  <advance width="449"/>
  <unicode hex="1066"/>
  <note>
pwa_wpk
</note>
  <outline>
    <contour>
      <point x="224" y="-10" type="curve" smooth="yes"/>
      <point x="332" y="-10"/>
      <point x="405" y="101"/>
      <point x="405" y="275" type="curve" smooth="yes"/>
      <point x="405" y="375"/>
      <point x="370" y="488"/>
      <point x="326" y="536" type="curve"/>
      <point x="310" y="516" type="line"/>
      <point x="350" y="474"/>
      <point x="379" y="359"/>
      <point x="379" y="275" type="curve" smooth="yes"/>
      <point x="379" y="107"/>
      <point x="310" y="15"/>
      <point x="224" y="15" type="curve" smooth="yes"/>
      <point x="138" y="15"/>
      <point x="69" y="107"/>
      <point x="69" y="275" type="curve" smooth="yes"/>
      <point x="69" y="359"/>
      <point x="97" y="474"/>
      <point x="138" y="516" type="curve"/>
      <point x="121" y="536" type="line"/>
      <point x="78" y="488"/>
      <point x="43" y="375"/>
      <point x="43" y="275" type="curve" smooth="yes"/>
      <point x="43" y="103"/>
      <point x="115" y="-10"/>
    </contour>
    <contour>
      <point x="127" y="-468" type="line"/>
      <point x="247" y="-468" type="line"/>
      <point x="247" y="-6" type="line"/>
      <point x="221" y="-4" type="line"/>
      <point x="221" y="-443" type="line"/>
      <point x="127" y="-443" type="line"/>
    </contour>
  </outline>
</glyph>
<glyph name="eu_wpk" format="2">
  <advance width="288"/>
  <unicode hex="1067"/>
  <note>
eu_wpk
</note>
  <outline>
    <contour>
      <point x="132" y="-12" type="curve" smooth="yes"/>
      <point x="185" y="-12"/>
      <point x="219" y="36"/>
      <point x="219" y="113" type="curve" smooth="yes"/>
      <point x="219" y="180"/>
      <point x="186" y="240"/>
      <point x="132" y="240" type="curve" smooth="yes"/>
      <point x="78" y="240"/>
      <point x="44" y="180"/>
      <point x="44" y="113" type="curve" smooth="yes"/>
      <point x="44" y="36"/>
      <point x="78" y="-12"/>
    </contour>
    <contour>
      <point x="132" y="13" type="curve" smooth="yes"/>
      <point x="92" y="13"/>
      <point x="70" y="50"/>
      <point x="70" y="113" type="curve" smooth="yes"/>
      <point x="70" y="166"/>
      <point x="92" y="215"/>
      <point x="132" y="215" type="curve" smooth="yes"/>
      <point x="171" y="215"/>
      <point x="193" y="166"/>
      <point x="193" y="113" type="curve" smooth="yes"/>
      <point x="193" y="50"/>
      <point x="171" y="13"/>
    </contour>
    <contour>
      <point x="219" y="113" type="line"/>
      <point x="219" y="526" type="line"/>
      <point x="193" y="526" type="line"/>
      <point x="193" y="188" type="line"/>
    </contour>
  </outline>
</glyph>
<glyph name="ue_wpk" format="2">
  <advance width="191"/>
  <unicode hex="1068"/>
  <note>
ue_wpk
</note>
  <outline>
    <contour>
      <point x="24" y="0" type="line"/>
      <point x="143" y="0" type="line"/>
      <point x="143" y="526" type="line"/>
      <point x="117" y="526" type="line"/>
      <point x="117" y="25" type="line"/>
      <point x="24" y="25" type="line"/>
    </contour>
    <contour>
      <point x="119" y="664" type="curve" smooth="yes"/>
      <point x="159" y="664"/>
      <point x="187" y="698"/>
      <point x="187" y="758" type="curve" smooth="yes"/>
      <point x="187" y="821"/>
      <point x="156" y="849"/>
      <point x="119" y="849" type="curve" smooth="yes"/>
      <point x="82" y="849"/>
      <point x="54" y="817"/>
      <point x="54" y="758" type="curve" smooth="yes"/>
      <point x="54" y="698"/>
      <point x="81" y="664"/>
    </contour>
    <contour>
      <point x="120" y="689" type="curve" smooth="yes"/>
      <point x="94" y="689"/>
      <point x="78" y="716"/>
      <point x="78" y="758" type="curve" smooth="yes"/>
      <point x="78" y="798"/>
      <point x="95" y="824"/>
      <point x="120" y="824" type="curve" smooth="yes"/>
      <point x="145" y="824"/>
      <point x="163" y="798"/>
      <point x="163" y="758" type="curve" smooth="yes"/>
      <point x="163" y="716"/>
      <point x="146" y="689"/>
    </contour>
  </outline>
</glyph>
<glyph name="tone1_wpk" format="2">
  <advance width="268"/>
  <unicode hex="1069"/>
  <note>
tone1_wpk
</note>
  <outline>
    <contour>
      <point x="130" y="-16" type="curve" smooth="yes"/>
      <point x="168" y="-16"/>
      <point x="194" y="5"/>
      <point x="213" y="34" type="curve"/>
      <point x="194" y="51" type="line"/>
      <point x="178" y="27"/>
      <point x="158" y="9"/>
      <point x="130" y="9" type="curve" smooth="yes"/>
      <point x="91" y="9"/>
      <point x="67" y="45"/>
      <point x="67" y="90" type="curve" smooth="yes"/>
      <point x="67" y="148"/>
      <point x="88" y="182"/>
      <point x="149" y="244" type="curve" smooth="yes"/>
      <point x="213" y="309"/>
      <point x="236" y="356"/>
      <point x="236" y="416" type="curve" smooth="yes"/>
      <point x="236" y="486"/>
      <point x="201" y="536"/>
      <point x="143" y="536" type="curve" smooth="yes"/>
      <point x="106" y="536"/>
      <point x="72" y="519"/>
      <point x="46" y="470" type="curve"/>
      <point x="66" y="454" type="line"/>
      <point x="88" y="496"/>
      <point x="114" y="511"/>
      <point x="143" y="511" type="curve" smooth="yes"/>
      <point x="184" y="511"/>
      <point x="210" y="472"/>
      <point x="210" y="416" type="curve" smooth="yes"/>
      <point x="210" y="367"/>
      <point x="195" y="328"/>
      <point x="137" y="268" type="curve" smooth="yes"/>
      <point x="73" y="202"/>
      <point x="42" y="163"/>
      <point x="42" y="90" type="curve" smooth="yes"/>
      <point x="42" y="32"/>
      <point x="75" y="-16"/>
    </contour>
  </outline>
</glyph>
<glyph name="tone2_wpk" format="2">
  <advance width="284"/>
  <unicode hex="106A"/>
  <note>
tone2_wpk
</note>
  <outline>
    <contour>
      <point x="129" y="-12" type="curve" smooth="yes"/>
      <point x="183" y="-12"/>
      <point x="216" y="29"/>
      <point x="216" y="126" type="curve" smooth="yes"/>
      <point x="216" y="526" type="line"/>
      <point x="190" y="526" type="line"/>
      <point x="190" y="126" type="line" smooth="yes"/>
      <point x="190" y="43"/>
      <point x="167" y="13"/>
      <point x="129" y="13" type="curve" smooth="yes"/>
      <point x="102" y="13"/>
      <point x="73" y="33"/>
      <point x="73" y="83" type="curve"/>
      <point x="47" y="83" type="line"/>
      <point x="47" y="22"/>
      <point x="81" y="-12"/>
    </contour>
  </outline>
</glyph>
<glyph name="tone3_wpk" format="2">
  <advance width="284"/>
  <unicode hex="106B"/>
  <note>
tone3_wpk
</note>
  <outline>
    <contour>
      <point x="190" y="0" type="line"/>
      <point x="216" y="0" type="line"/>
      <point x="216" y="400" type="line" smooth="yes"/>
      <point x="216" y="497"/>
      <point x="183" y="538"/>
      <point x="129" y="538" type="curve" smooth="yes"/>
      <point x="81" y="538"/>
      <point x="47" y="504"/>
      <point x="47" y="443" type="curve"/>
      <point x="73" y="443" type="line"/>
      <point x="73" y="493"/>
      <point x="102" y="513"/>
      <point x="129" y="513" type="curve" smooth="yes"/>
      <point x="167" y="513"/>
      <point x="190" y="483"/>
      <point x="190" y="400" type="curve" smooth="yes"/>
    </contour>
  </outline>
</glyph>
<glyph name="tone4_wpk" format="2">
  <advance width="284"/>
  <unicode hex="106C"/>
  <note>
tone4_wpk
</note>
  <outline>
    <contour>
      <point x="155" y="-12" type="curve" smooth="yes"/>
      <point x="203" y="-12"/>
      <point x="237" y="22"/>
      <point x="237" y="83" type="curve"/>
      <point x="211" y="83" type="line"/>
      <point x="211" y="33"/>
      <point x="182" y="13"/>
      <point x="155" y="13" type="curve" smooth="yes"/>
      <point x="117" y="13"/>
      <point x="94" y="43"/>
      <point x="94" y="126" type="curve" smooth="yes"/>
      <point x="94" y="526" type="line"/>
      <point x="68" y="526" type="line"/>
      <point x="68" y="126" type="line" smooth="yes"/>
      <point x="68" y="29"/>
      <point x="101" y="-12"/>
    </contour>
  </outline>
</glyph>
<glyph name="tone5_wpk" format="2">
  <advance width="268"/>
  <unicode hex="106D"/>
  <note>
tone5_wpk
</note>
  <outline>
    <contour>
      <point x="138" y="-16" type="curve" smooth="yes"/>
      <point x="193" y="-16"/>
      <point x="226" y="32"/>
      <point x="226" y="90" type="curve" smooth="yes"/>
      <point x="226" y="163"/>
      <point x="195" y="202"/>
      <point x="131" y="268" type="curve" smooth="yes"/>
      <point x="73" y="328"/>
      <point x="58" y="367"/>
      <point x="58" y="416" type="curve" smooth="yes"/>
      <point x="58" y="472"/>
      <point x="84" y="511"/>
      <point x="125" y="511" type="curve" smooth="yes"/>
      <point x="154" y="511"/>
      <point x="180" y="496"/>
      <point x="202" y="454" type="curve"/>
      <point x="222" y="470" type="line"/>
      <point x="196" y="519"/>
      <point x="162" y="536"/>
      <point x="125" y="536" type="curve" smooth="yes"/>
      <point x="67" y="536"/>
      <point x="32" y="486"/>
      <point x="32" y="416" type="curve" smooth="yes"/>
      <point x="32" y="356"/>
      <point x="55" y="309"/>
      <point x="119" y="244" type="curve" smooth="yes"/>
      <point x="180" y="182"/>
      <point x="201" y="148"/>
      <point x="201" y="90" type="curve" smooth="yes"/>
      <point x="201" y="45"/>
      <point x="177" y="9"/>
      <point x="138" y="9" type="curve" smooth="yes"/>
      <point x="110" y="9"/>
      <point x="90" y="27"/>
      <point x="74" y="51" type="curve"/>
      <point x="55" y="34" type="line"/>
      <point x="74" y="5"/>
      <point x="100" y="-16"/>
    </contour>
  </outline>
</glyph>
<glyph name="nna_epk" format="2">
  <advance width="794"/>
  <unicode hex="106E"/>
  <note>
nna_epk
</note>
  <outline>
    <contour>
      <point x="121" y="-10" type="curve"/>
      <point x="138" y="10" type="line"/>
      <point x="97" y="52"/>
      <point x="69" y="167"/>
      <point x="69" y="251" type="curve" smooth="yes"/>
      <point x="69" y="419"/>
      <point x="124" y="511"/>
      <point x="194" y="511" type="curve" smooth="yes"/>
      <point x="271" y="511"/>
      <point x="312" y="412"/>
      <point x="312" y="251" type="curve" smooth="yes"/>
      <point x="312" y="167"/>
      <point x="284" y="52"/>
      <point x="245" y="10" type="curve"/>
      <point x="261" y="-10" type="line"/>
      <point x="305" y="38"/>
      <point x="338" y="151"/>
      <point x="338" y="251" type="curve" smooth="yes"/>
      <point x="338" y="422"/>
      <point x="290" y="536"/>
      <point x="194" y="536" type="curve" smooth="yes"/>
      <point x="105" y="536"/>
      <point x="43" y="430"/>
      <point x="43" y="251" type="curve" smooth="yes"/>
      <point x="43" y="151"/>
      <point x="78" y="38"/>
    </contour>
    <contour>
      <point x="427" y="-10" type="line"/>
      <point x="470" y="38"/>
      <point x="503" y="151"/>
      <point x="503" y="251" type="curve" smooth="yes"/>
      <point x="503" y="423"/>
      <point x="454" y="536"/>
      <point x="361" y="536" type="curve" smooth="yes"/>
      <point x="323" y="536"/>
      <point x="294" y="517"/>
      <point x="271" y="482" type="curve"/>
      <point x="289" y="464" type="line"/>
      <point x="308" y="495"/>
      <point x="331" y="511"/>
      <point x="361" y="511" type="curve" smooth="yes"/>
      <point x="432" y="511"/>
      <point x="477" y="415"/>
      <point x="477" y="251" type="curve" smooth="yes"/>
      <point x="477" y="167"/>
      <point x="449" y="52"/>
      <point x="411" y="10" type="curve"/>
    </contour>
    <contour>
      <point x="607" y="-8" type="curve" smooth="yes"/>
      <point x="694" y="-8"/>
      <point x="751" y="90"/>
      <point x="751" y="251" type="curve" smooth="yes"/>
      <point x="751" y="427"/>
      <point x="701" y="536"/>
      <point x="608" y="536" type="curve" smooth="yes"/>
      <point x="543" y="536"/>
      <point x="503" y="485"/>
      <point x="476" y="406" type="curve"/>
      <point x="488" y="368" type="line"/>
      <point x="518" y="458"/>
      <point x="552" y="511"/>
      <point x="607" y="511" type="curve" smooth="yes"/>
      <point x="687" y="511"/>
      <point x="725" y="408"/>
      <point x="725" y="251" type="curve" smooth="yes"/>
      <point x="725" y="102"/>
      <point x="678" y="17"/>
      <point x="605" y="17" type="curve" smooth="yes"/>
      <point x="584" y="17"/>
      <point x="567" y="20"/>
      <point x="545" y="33" type="curve"/>
      <point x="533" y="10" type="line"/>
      <point x="559" y="-4"/>
      <point x="578" y="-8"/>
    </contour>
  </outline>
</glyph>
<glyph name="ywa_epk" format="2">
  <advance width="768"/>
  <unicode hex="106F"/>
  <note>
ywa_epk
</note>
  <outline>
    <contour>
      <point x="224" y="-10" type="curve" smooth="yes"/>
      <point x="332" y="-10"/>
      <point x="405" y="101"/>
      <point x="405" y="275" type="curve" smooth="yes"/>
      <point x="405" y="375"/>
      <point x="370" y="488"/>
      <point x="326" y="536" type="curve"/>
      <point x="310" y="516" type="line"/>
      <point x="350" y="474"/>
      <point x="379" y="359"/>
      <point x="379" y="275" type="curve" smooth="yes"/>
      <point x="379" y="107"/>
      <point x="310" y="15"/>
      <point x="224" y="15" type="curve" smooth="yes"/>
      <point x="138" y="15"/>
      <point x="69" y="107"/>
      <point x="69" y="275" type="curve" smooth="yes"/>
      <point x="69" y="359"/>
      <point x="97" y="474"/>
      <point x="138" y="516" type="curve"/>
      <point x="121" y="536" type="line"/>
      <point x="78" y="488"/>
      <point x="43" y="375"/>
      <point x="43" y="275" type="curve" smooth="yes"/>
      <point x="43" y="103"/>
      <point x="115" y="-10"/>
    </contour>
    <contour>
      <point x="443" y="-468" type="line"/>
      <point x="563" y="-468" type="line"/>
      <point x="563" y="0" type="line"/>
      <point x="537" y="0" type="line"/>
      <point x="537" y="-443" type="line"/>
      <point x="443" y="-443" type="line"/>
    </contour>
    <contour>
      <point x="552" y="-8" type="curve" smooth="yes"/>
      <point x="655" y="-8"/>
      <point x="725" y="90"/>
      <point x="725" y="251" type="curve" smooth="yes"/>
      <point x="725" y="419"/>
      <point x="660" y="536"/>
      <point x="549" y="536" type="curve" smooth="yes"/>
      <point x="464" y="536"/>
      <point x="405" y="483"/>
      <point x="366" y="383" type="curve"/>
      <point x="375" y="345" type="line"/>
      <point x="427" y="472"/>
      <point x="478" y="511"/>
      <point x="549" y="511" type="curve" smooth="yes"/>
      <point x="648" y="511"/>
      <point x="699" y="397"/>
      <point x="699" y="251" type="curve" smooth="yes"/>
      <point x="699" y="102"/>
      <point x="639" y="17"/>
      <point x="550" y="17" type="curve" smooth="yes"/>
      <point x="521" y="17"/>
      <point x="490" y="21"/>
      <point x="468" y="35" type="curve"/>
      <point x="456" y="12" type="line"/>
      <point x="483" y="-3"/>
      <point x="512" y="-8"/>
    </contour>
  </outline>
</glyph>
<glyph name="ghwa_epk" format="2">
  <advance width="773"/>
  <unicode hex="1070"/>
  <note>
ghwa_epk
</note>
  <outline>
    <contour>
      <point x="222" y="-10" type="curve" smooth="yes"/>
      <point x="331" y="-10"/>
      <point x="406" y="101"/>
      <point x="406" y="275" type="curve" smooth="yes"/>
      <point x="406" y="387"/>
      <point x="371" y="479"/>
      <point x="326" y="536" type="curve"/>
      <point x="310" y="516" type="line"/>
      <point x="352" y="465"/>
      <point x="380" y="371"/>
      <point x="380" y="275" type="curve" smooth="yes"/>
      <point x="380" y="110"/>
      <point x="311" y="16"/>
      <point x="223" y="16" type="curve" smooth="yes"/>
      <point x="129" y="16"/>
      <point x="76" y="93"/>
      <point x="76" y="204" type="curve" smooth="yes"/>
      <point x="76" y="276"/>
      <point x="95" y="315"/>
      <point x="129" y="364" type="curve" smooth="yes"/>
      <point x="159" y="407"/>
      <point x="166" y="430"/>
      <point x="166" y="460" type="curve" smooth="yes"/>
      <point x="166" y="501"/>
      <point x="144" y="534"/>
      <point x="108" y="534" type="curve" smooth="yes"/>
      <point x="79" y="534"/>
      <point x="58" y="519"/>
      <point x="45" y="489" type="curve"/>
      <point x="62" y="471" type="line"/>
      <point x="73" y="494"/>
      <point x="89" y="509"/>
      <point x="107" y="509" type="curve" smooth="yes"/>
      <point x="129" y="509"/>
      <point x="141" y="489"/>
      <point x="141" y="460" type="curve" smooth="yes"/>
      <point x="141" y="439"/>
      <point x="132" y="411"/>
      <point x="110" y="381" type="curve" smooth="yes"/>
      <point x="73" y="330"/>
      <point x="50" y="280"/>
      <point x="50" y="204" type="curve" smooth="yes"/>
      <point x="50" y="81"/>
      <point x="115" y="-10"/>
    </contour>
    <contour>
      <point x="443" y="-468" type="line"/>
      <point x="563" y="-468" type="line"/>
      <point x="563" y="0" type="line"/>
      <point x="537" y="0" type="line"/>
      <point x="537" y="-443" type="line"/>
      <point x="443" y="-443" type="line"/>
    </contour>
    <contour>
      <point x="555" y="-8" type="curve" smooth="yes"/>
      <point x="665" y="-8"/>
      <point x="729" y="116"/>
      <point x="729" y="277" type="curve" smooth="yes"/>
      <point x="729" y="438"/>
      <point x="659" y="536"/>
      <point x="557" y="536" type="curve" smooth="yes"/>
      <point x="518" y="536"/>
      <point x="489" y="531"/>
      <point x="462" y="516" type="curve"/>
      <point x="473" y="493" type="line"/>
      <point x="496" y="507"/>
      <point x="527" y="511"/>
      <point x="555" y="511" type="curve" smooth="yes"/>
      <point x="644" y="511"/>
      <point x="703" y="426"/>
      <point x="703" y="277" type="curve" smooth="yes"/>
      <point x="703" y="131"/>
      <point x="653" y="17"/>
      <point x="555" y="17" type="curve" smooth="yes"/>
      <point x="490" y="17"/>
      <point x="439" y="56"/>
      <point x="390" y="183" type="curve"/>
      <point x="379" y="150" type="line"/>
      <point x="416" y="47"/>
      <point x="475" y="-8"/>
    </contour>
  </outline>
</glyph>
<glyph name="i_gkn" format="2">
  <unicode hex="1071"/>
  <note>
i_gkn
</note>
  <outline>
    <contour>
      <point x="-128" y="680" type="curve" smooth="yes"/>
      <point x="-88" y="680"/>
      <point x="-59" y="714"/>
      <point x="-59" y="773" type="curve" smooth="yes"/>
      <point x="-59" y="833"/>
      <point x="-91" y="863"/>
      <point x="-128" y="863" type="curve" smooth="yes"/>
      <point x="-168" y="863"/>
      <point x="-196" y="828"/>
      <point x="-196" y="772" type="curve" smooth="yes"/>
      <point x="-196" y="713"/>
      <point x="-169" y="680"/>
    </contour>
    <contour>
      <point x="-128" y="705" type="curve" smooth="yes"/>
      <point x="-156" y="705"/>
      <point x="-170" y="730"/>
      <point x="-170" y="772" type="curve" smooth="yes"/>
      <point x="-170" y="812"/>
      <point x="-153" y="838"/>
      <point x="-128" y="838" type="curve" smooth="yes"/>
      <point x="-103" y="838"/>
      <point x="-85" y="812"/>
      <point x="-85" y="772" type="curve" smooth="yes"/>
      <point x="-85" y="730"/>
      <point x="-103" y="705"/>
    </contour>
    <contour>
      <point x="-300" y="680" type="curve" smooth="yes"/>
      <point x="-261" y="680"/>
      <point x="-231" y="714"/>
      <point x="-231" y="773" type="curve" smooth="yes"/>
      <point x="-231" y="833"/>
      <point x="-262" y="863"/>
      <point x="-300" y="863" type="curve" smooth="yes"/>
      <point x="-339" y="863"/>
      <point x="-369" y="830"/>
      <point x="-369" y="772" type="curve" smooth="yes"/>
      <point x="-369" y="713"/>
      <point x="-339" y="680"/>
    </contour>
    <contour>
      <point x="-299" y="705" type="curve" smooth="yes"/>
      <point x="-328" y="705"/>
      <point x="-343" y="730"/>
      <point x="-343" y="772" type="curve" smooth="yes"/>
      <point x="-343" y="812"/>
      <point x="-325" y="838"/>
      <point x="-299" y="838" type="curve" smooth="yes"/>
      <point x="-274" y="838"/>
      <point x="-257" y="812"/>
      <point x="-257" y="772" type="curve" smooth="yes"/>
      <point x="-257" y="730"/>
      <point x="-274" y="705"/>
    </contour>
  </outline>
</glyph>
<glyph name="oe_kyh" format="2">
  <unicode hex="1072"/>
  <note>
oe_kyh
</note>
  <outline>
    <contour>
      <point x="-206" y="627" type="curve" smooth="yes"/>
      <point x="-156" y="627"/>
      <point x="-112" y="666"/>
      <point x="-93" y="736" type="curve"/>
      <point x="-115" y="747" type="line"/>
      <point x="-132" y="679"/>
      <point x="-168" y="652"/>
      <point x="-206" y="652" type="curve" smooth="yes"/>
      <point x="-262" y="652"/>
      <point x="-298" y="717"/>
      <point x="-298" y="814" type="curve" smooth="yes"/>
      <point x="-298" y="894"/>
      <point x="-264" y="972"/>
      <point x="-206" y="972" type="curve" smooth="yes"/>
      <point x="-161" y="972"/>
      <point x="-131" y="938"/>
      <point x="-118" y="881" type="curve"/>
      <point x="-97" y="893" type="line"/>
      <point x="-115" y="961"/>
      <point x="-152" y="997"/>
      <point x="-205" y="997" type="curve" smooth="yes"/>
      <point x="-278" y="997"/>
      <point x="-324" y="909"/>
      <point x="-324" y="814" type="curve" smooth="yes"/>
      <point x="-324" y="711"/>
      <point x="-281" y="627"/>
    </contour>
  </outline>
</glyph>
<glyph name="u_kyh" format="2">
  <unicode hex="1073"/>
  <note>
u_kyh
</note>
  <outline>
    <contour>
      <point x="-372" y="638" type="line"/>
      <point x="-211" y="867" type="line"/>
      <point x="-50" y="638" type="line"/>
      <point x="-31" y="656" type="line"/>
      <point x="-211" y="911" type="line"/>
      <point x="-391" y="656" type="line"/>
    </contour>
  </outline>
</glyph>
<glyph name="ee_kyh" format="2">
  <unicode hex="1074"/>
  <note>
ee_kyh
</note>
  <outline>
    <contour>
      <point x="-211" y="638" type="line"/>
      <point x="-31" y="893" type="line"/>
      <point x="-50" y="911" type="line"/>
      <point x="-211" y="682" type="line"/>
      <point x="-372" y="911" type="line"/>
      <point x="-391" y="893" type="line"/>
    </contour>
  </outline>
</glyph>
<glyph name="ka_shn" format="2">
  <advance width="444"/>
  <unicode hex="1075"/>
  <note>
ka_shn
</note>
  <outline>
    <contour>
      <point x="103" y="-8" type="curve" smooth="yes"/>
      <point x="139" y="-8"/>
      <point x="161" y="25"/>
      <point x="161" y="66" type="curve" smooth="yes"/>
      <point x="161" y="96"/>
      <point x="154" y="119"/>
      <point x="124" y="162" type="curve" smooth="yes"/>
      <point x="90" y="211"/>
      <point x="71" y="250"/>
      <point x="71" y="322" type="curve" smooth="yes"/>
      <point x="71" y="434"/>
      <point x="124" y="511"/>
      <point x="218" y="511" type="curve" smooth="yes"/>
      <point x="306" y="511"/>
      <point x="375" y="417"/>
      <point x="375" y="251" type="curve" smooth="yes"/>
      <point x="375" y="155"/>
      <point x="347" y="61"/>
      <point x="305" y="10" type="curve"/>
      <point x="321" y="-10" type="line"/>
      <point x="366" y="47"/>
      <point x="401" y="139"/>
      <point x="401" y="251" type="curve" smooth="yes"/>
      <point x="401" y="425"/>
      <point x="326" y="536"/>
      <point x="217" y="536" type="curve" smooth="yes"/>
      <point x="110" y="536"/>
      <point x="45" y="445"/>
      <point x="45" y="322" type="curve" smooth="yes"/>
      <point x="45" y="246"/>
      <point x="68" y="196"/>
      <point x="105" y="145" type="curve" smooth="yes"/>
      <point x="127" y="115"/>
      <point x="136" y="87"/>
      <point x="136" y="66" type="curve" smooth="yes"/>
      <point x="136" y="37"/>
      <point x="124" y="17"/>
      <point x="102" y="17" type="curve" smooth="yes"/>
      <point x="84" y="17"/>
      <point x="68" y="32"/>
      <point x="57" y="55" type="curve"/>
      <point x="40" y="37" type="line"/>
      <point x="53" y="7"/>
      <point x="74" y="-8"/>
    </contour>
  </outline>
</glyph>
<glyph name="kha_shn" format="2">
  <advance width="444"/>
  <unicode hex="1076"/>
  <note>
kha_shn
</note>
  <outline>
    <contour>
      <point x="223" y="-10" type="curve" smooth="yes"/>
      <point x="331" y="-10"/>
      <point x="401" y="103"/>
      <point x="401" y="261" type="curve" smooth="yes"/>
      <point x="401" y="436"/>
      <point x="357" y="532"/>
      <point x="287" y="532" type="curve" smooth="yes"/>
      <point x="235" y="532"/>
      <point x="213" y="497"/>
      <point x="178" y="425" type="curve" smooth="yes"/>
      <point x="157" y="381"/>
      <point x="136" y="363"/>
      <point x="113" y="363" type="curve" smooth="yes"/>
      <point x="88" y="363"/>
      <point x="69" y="384"/>
      <point x="69" y="425" type="curve" smooth="yes"/>
      <point x="69" y="462"/>
      <point x="85" y="495"/>
      <point x="110" y="514" type="curve"/>
      <point x="93" y="533" type="line"/>
      <point x="65" y="510"/>
      <point x="43" y="476"/>
      <point x="43" y="425" type="curve" smooth="yes"/>
      <point x="43" y="370"/>
      <point x="74" y="338"/>
      <point x="112" y="338" type="curve" smooth="yes"/>
      <point x="145" y="338"/>
      <point x="175" y="359"/>
      <point x="200" y="411" type="curve" smooth="yes"/>
      <point x="227" y="466"/>
      <point x="242" y="507"/>
      <point x="288" y="507" type="curve" smooth="yes"/>
      <point x="342" y="507"/>
      <point x="375" y="406"/>
      <point x="375" y="261" type="curve" smooth="yes"/>
      <point x="375" y="113"/>
      <point x="312" y="15"/>
      <point x="223" y="15" type="curve" smooth="yes"/>
      <point x="153" y="15"/>
      <point x="104" y="60"/>
      <point x="73" y="141" type="curve"/>
      <point x="107" y="190"/>
      <point x="155" y="217"/>
      <point x="212" y="217" type="curve" smooth="yes"/>
      <point x="282" y="217"/>
      <point x="329" y="174"/>
      <point x="363" y="135" type="curve"/>
      <point x="378" y="154" type="line"/>
      <point x="344" y="199"/>
      <point x="286" y="242"/>
      <point x="213" y="242" type="curve" smooth="yes"/>
      <point x="138" y="242"/>
      <point x="81" y="203"/>
      <point x="47" y="145" type="curve"/>
      <point x="76" y="47"/>
      <point x="137" y="-10"/>
    </contour>
  </outline>
</glyph>
